<?xml version="1.0" standalone="no"?>
<!DOCTYPE svg PUBLIC "-//W3C//DTD SVG 1.1//EN" "http://www.w3.org/Graphics/SVG/1.1/DTD/svg11.dtd" >
<svg xmlns="http://www.w3.org/2000/svg" xmlns:xlink="http://www.w3.org/1999/xlink" version="1.1">
<metadata>
Created by FontForge 20161003 at Sun Oct 22 09:35:23 2017
 By www-data
Copyright (c) 2012, AP Society for Knowledge Networks, Hyderabad, INDIA.
</metadata>
<defs>
<font id="Ramabhadra" horiz-adv-x="0" >
  <font-face 
    font-family="Ramabhadra"
    font-weight="400"
    font-stretch="normal"
    units-per-em="1024"
    panose-1="2 0 6 0 0 0 0 0 0 0"
    ascent="819"
    descent="-205"
    x-height="434"
    cap-height="600"
    bbox="-651 -724 1708 1358"
    underline-thickness="20"
    underline-position="-653"
    unicode-range="U+0020-25CC"
  />
<missing-glyph horiz-adv-x="800" 
d="M700 700v-700h-600v700h600zM650 650h-500v-600h500v600z" />
    <glyph glyph-name=".notdef" horiz-adv-x="800" 
d="M700 700v-700h-600v700h600zM650 650h-500v-600h500v600z" />
    <glyph glyph-name=".null" 
 />
    <glyph glyph-name="nonmarkingreturn" horiz-adv-x="333" 
 />
    <glyph glyph-name="space" unicode=" " horiz-adv-x="180" 
 />
    <glyph glyph-name="exclam" unicode="!" horiz-adv-x="213" 
d="M79 118l-23 235v108h96v-108l-23 -235h-50zM60 0v88h89v-88h-89z" />
    <glyph glyph-name="quotedbl" unicode="&#x22;" horiz-adv-x="304" 
d="M51 297l-17 87v77h96v-77l-15 -87h-64zM193 297l-17 87v77h96v-77l-15 -87h-64z" />
    <glyph glyph-name="numbersign" unicode="#" horiz-adv-x="357" 
d="M47 115h-43v69h57l18 92h-75v71h90l25 122h70l-25 -122h69l25 122h73l-25 -122h43v-71h-58l-18 -92h76v-69h-91l-25 -122h-70l25 122h-70l-25 -122h-72zM150 276l-18 -92h69l19 92h-70z" />
    <glyph glyph-name="dollar" unicode="$" horiz-adv-x="357" 
d="M152 68v132q-120 34 -120 141q0 53 33 87.5t87 39.5v30h46v-30q100 -13 117 -110l-80 -10q-8 37 -37 49v-122q129 -33 129 -137q0 -59 -35 -97.5t-94 -46.5v-58h-46v57q-113 13 -132 137l81 8q12 -50 51 -70zM152 398q-41 -13 -41 -54q0 -37 41 -54v108zM198 64
q53 10 53 63q0 44 -53 59v-122z" />
    <glyph glyph-name="percent" unicode="%" horiz-adv-x="572" 
d="M27 348q0 121 101 121q103 0 103 -121q0 -122 -102 -122t-102 122zM96 348q0 -72 32 -72t32 72q0 71 -32 71t-32 -71zM195 -17h-64l244 486h64zM338 104q0 121 102 121q101 0 101 -121q0 -123 -99 -123q-104 0 -104 123zM407 104q0 -72 32 -72t32 72q0 71 -32 71t-32 -71
z" />
    <glyph glyph-name="ampersand" unicode="&#x26;" horiz-adv-x="771" 
d="M728 1h-137l-66 57q-37 -30 -91.5 -47t-122.5 -17q-56 0 -100.5 11t-85.5 38q-85 54 -85 149q0 67 39.5 109.5t111.5 58.5q-37 35 -49 53q-18 29 -18 63q0 51 47 88q50 41 134 41q74 0 123 -33t49 -96q0 -101 -122 -142q64 -51 144 -133q12 25 12 69q0 16 -8 38h121
l3 -48q0 -77 -36 -132q17 -11 137 -127zM356 465q0 54 -45 54q-24 0 -39 -16t-17 -43q0 -31 39 -69q62 28 62 74zM448 130l-183 164q-88 -20 -88 -100q0 -43 39 -74.5t98 -31.5q57 0 134 42z" />
    <glyph glyph-name="quotesingle" unicode="'" horiz-adv-x="152" 
d="M45 297l-17 87v77h96v-77l-15 -87h-64z" />
    <glyph glyph-name="parenleft" unicode="(" horiz-adv-x="255" 
d="M220 -159q-77 0 -129 94q-54 93 -54 227q0 130 53 224q53 93 130 95v-58q-49 -8 -79 -82q-31 -75 -31 -179t31 -178q30 -74 79 -83v-60v0z" />
    <glyph glyph-name="parenright" unicode=")" horiz-adv-x="255" 
d="M37 -159v62q48 8 79 81q31 74 31 178q0 103 -31 177t-79 82v60q76 -2 130 -95q53 -94 53 -224q0 -134 -55 -227q-52 -94 -128 -94v0z" />
    <glyph glyph-name="asterisk" unicode="*" horiz-adv-x="250" 
d="M76 249l-47 37q31 35 59 61q-54 12 -80 19l19 56q40 -16 74 -36q-8 51 -8 83h56q0 -22 -9 -84q27 11 79 34l17 -58q-34 -7 -80 -14l37 -44q3 -1 17 -19l-48 -32l-42 70q-18 -35 -44 -73z" />
    <glyph glyph-name="plus" unicode="+" horiz-adv-x="376" 
d="M146 67v119h-121v83h121v120h80v-120h122v-83h-122v-119h-80z" />
    <glyph glyph-name="comma" unicode="," horiz-adv-x="177" 
d="M42 88h89v-63q0 -101 -79 -127l-17 35q49 16 51 67h-44v88z" />
    <glyph glyph-name="hyphen" unicode="-" horiz-adv-x="213" 
d="M19 123v88h174v-88h-174z" />
    <glyph glyph-name="period" unicode="." horiz-adv-x="177" 
d="M45 0v88h88v-88h-88z" />
    <glyph glyph-name="slash" unicode="/" horiz-adv-x="307" 
d="M304 629l-258 -749h-79l258 743z" />
    <glyph glyph-name="zero" unicode="0" horiz-adv-x="565" 
d="M537 255q0 -87 -16.5 -142t-58.5 -93q-58 -53 -175 -53q-115 0 -174 53q-73 68 -73 235q0 164 73 236q58 51 174 51t175 -51q39 -36 57 -93t18 -143zM394 255q0 108 -19 148.5t-88 40.5q-67 0 -85.5 -38t-18.5 -151q0 -114 18 -152.5t86 -38.5q66 0 87 38q9 23 14.5 60
t5.5 93z" />
    <glyph glyph-name="one" unicode="1" horiz-adv-x="513" 
d="M353 -16h-140v377h-173v72q100 0 156.5 29t63.5 69h93v-547z" />
    <glyph glyph-name="two" unicode="2" horiz-adv-x="560" 
d="M531 345q-7 -80 -174 -167q-112 -60 -132 -95h304v-99h-489q4 35 8 55.5t11 35.5q25 52 91 93q89 50 197 118q41 36 41 77l-5 33q-15 58 -99 58q-97 0 -97 -112h-136q0 53 13.5 88t45.5 62t78 38.5t115 11.5q115 0 171.5 -44.5t56.5 -128.5v-24z" />
    <glyph glyph-name="three" unicode="3" horiz-adv-x="563" 
d="M536 126q0 -29 -13.5 -53.5t-39.5 -47.5q-72 -58 -201 -58q-117 0 -189 61q-53 45 -53 118h136q7 -42 17 -55q11 -19 52 -32q23 -6 28.5 -6.5t20.5 -0.5q11 0 23 3t31 17q44 30 44 71q0 35 -36.5 60.5t-90.5 25.5l-34 -2v74q133 0 142 62l4 26q0 67 -96 67q-62 0 -83 -34
q-6 -9 -10 -29t-5 -34h-132q0 52 10 78q22 53 104 87q22 10 61 14t85 4q45 0 77.5 -8t54.5 -24q70 -45 70 -112l-2 -22q-5 -35 -26 -59l-53 -39q57 -26 82 -60q11 -16 16.5 -37.5t5.5 -54.5z" />
    <glyph glyph-name="four" unicode="4" horiz-adv-x="573" 
d="M546 105h-75v-121h-142v121h-289v90l265 336h166v-339h75v-87zM329 192v227l-187 -227h187z" />
    <glyph glyph-name="five" unicode="5" horiz-adv-x="565" 
d="M517 433h-296l-23 -112q14 8 65 24q27 5 40 6t21 1q20 0 33 -1.5t41 -7.5q74 -19 113 -70q35 -46 35 -106q0 -67 -41 -116q-32 -40 -84.5 -62t-124.5 -22q-51 0 -92.5 8.5t-81.5 31.5q-81 50 -74 119h140q5 -68 106 -68q107 0 107 106q0 47 -23 70q-34 32 -99 32
q-57 0 -81 -40h-130l67 305h382v-98z" />
    <glyph glyph-name="six" unicode="6" horiz-adv-x="565" 
d="M526 410h-133q-25 48 -85 48q-83 0 -111 -52q-8 -15 -13 -32t-5 -40l5 -31q31 21 70 31.5t86 10.5q48 0 87 -17.5t68 -47.5q43 -44 43 -111q0 -52 -25 -94q-30 -52 -84.5 -80t-134.5 -28q-42 0 -77.5 8.5t-67.5 28.5q-60 34 -84.5 95t-24.5 156q0 86 25 143
q58 147 238 147l40 -3q160 -16 183 -132zM382 229q-29 34 -95 34q-62 0 -93 -50q-16 -24 -16 -55q0 -43 28.5 -70.5t72.5 -30.5q31 0 47.5 4t36.5 22q38 32 38 84q0 43 -19 62z" />
    <glyph glyph-name="seven" unicode="7" horiz-adv-x="574" 
d="M547 447q-126 -115 -191 -225q-69 -120 -69 -238h-142q26 150 86 252q47 74 166 197h-357v98h507v-84z" />
    <glyph glyph-name="eight" unicode="8" horiz-adv-x="581" 
d="M514 62q-64 -95 -228 -95q-78 0 -134 24.5t-89 70.5q-23 39 -23 81q0 90 111 138q-85 55 -85 110q0 28 25 69q53 82 190 82q72 0 123 -14.5t83 -46.5q42 -44 42 -90q0 -37 -26 -67t-69 -43q58 -12 88 -47t30 -81q0 -53 -38 -91zM388 437q-14 10 -34 16.5t-46 6.5
q-29 0 -48.5 -3.5t-38.5 -14.5q-30 -20 -30 -52q0 -30 30 -57q25 -22 68 -22q22 0 38 3t35 17q44 23 44 65q0 23 -18 41zM378 205q-27 33 -83 33q-50 0 -78.5 -24.5t-28.5 -65.5t19 -59q32 -32 80 -32q50 0 82 27q28 20 28 69q0 31 -19 52z" />
    <glyph glyph-name="nine" unicode="9" horiz-adv-x="566" 
d="M496 438q40 -64 40 -164q0 -140 -57 -215q-65 -92 -214 -92q-111 0 -174 61q-50 44 -42 84h139q-4 -18 19 -37t58 -24q83 0 111 51q19 45 19 78q0 19 -5 30q-48 -48 -122 -48l-55 3q-106 15 -150 92q-23 38 -23 91q0 62 31 105q65 94 200 94l39 -5q41 0 99 -25
q70 -33 87 -79zM362 281q30 25 30 68q0 57 -32.5 81t-83.5 24q-46 0 -83 -35q-28 -19 -28 -69q0 -42 35 -71q37 -27 82 -27q43 0 80 29z" />
    <glyph glyph-name="colon" unicode=":" horiz-adv-x="215" 
d="M183 354q0 -32 -23 -53.5t-51 -21.5q-69 0 -69 71q0 31 22 50t51 19t49.5 -18.5t20.5 -46.5zM188 76q0 -29 -23 -55q-23 -20 -50 -20q-71 0 -71 72q0 31 22.5 57.5t51.5 26.5q28 0 48 -26q22 -30 22 -55z" />
    <glyph glyph-name="semicolon" unicode=";" horiz-adv-x="214" 
d="M184 300q0 -32 -22.5 -53.5t-49.5 -21.5q-34 0 -52.5 21.5t-18.5 49.5t22.5 48t51.5 20q31 0 50 -19q19 -14 19 -45zM187 35q0 -44 -35.5 -81.5t-67.5 -31.5q12 14 16 24.5t5 22.5q0 22 -28 26l-23 22q-14 16 -14 41q0 28 19 45.5t46 17.5q34 0 58 -30q24 -24 24 -56z
" />
    <glyph glyph-name="less" unicode="&#x3c;" horiz-adv-x="576" 
d="M75 202v79l421 230v-37l-336 -228l336 -231v-40z" />
    <glyph glyph-name="equal" unicode="=" horiz-adv-x="597" 
d="M556 315h-516v90h516v-90zM556 143h-516v93h516v-93z" />
    <glyph glyph-name="greater" unicode="&#x3e;" horiz-adv-x="576" 
d="M496 210l-421 -227v39l336 230l-336 230v36l421 -228v-80z" />
    <glyph glyph-name="question" unicode="?" horiz-adv-x="446" 
d="M419 424q0 -88 -138 -129q-35 -9 -47.5 -19t-12.5 -47v-67h-97q-8 24 -8 65q0 79 77 122l74 26q49 20 49 52q0 74 -81 74q-91 0 -91 -70q0 -14 2 -20h-106q0 116 84 154q63 26 123 26q72 0 116 -42q56 -51 56 -125zM257 32q0 -31 -21 -52.5t-57 -21.5q-28 0 -49.5 21.5
t-21.5 52.5q0 32 20.5 53.5t50.5 21.5q32 0 56 -21q22 -24 22 -54z" />
    <glyph glyph-name="at" unicode="@" horiz-adv-x="809" 
d="M688 39h80q-82 -169 -333 -169q-198 0 -295 96t-97 249q0 159 102.5 269.5t283.5 110.5q154 0 237 -84t83 -206q0 -93 -65 -183t-185 -90q-56 0 -67 43q-45 -43 -103 -43q-65 0 -105 44.5t-40 114.5q0 96 58.5 172.5t145.5 76.5q67 0 99 -50l10 41h99l-57 -269
q-5 -25 -5 -34q0 -18 15 -18q29 0 80.5 53.5t51.5 143.5q0 101 -70.5 160t-183.5 59q-161 0 -238 -95t-77 -222q0 -119 81 -194t237 -75q179 0 258 99zM281 195q0 -94 68 -94q57 0 87 62.5t30 121.5q0 88 -69 88q-59 0 -87.5 -61.5t-28.5 -116.5z" />
    <glyph glyph-name="A" unicode="A" horiz-adv-x="603" 
d="M602 0h-132l-52 136h-240l-50 -136h-128l233 600h128zM379 237l-83 223l-81 -223h164z" />
    <glyph glyph-name="B" unicode="B" horiz-adv-x="579" 
d="M46 600h239q145 0 189.5 -44.5t44.5 -106.5q0 -92 -84 -131q113 -32 113 -144q0 -65 -35 -108.5t-80.5 -54.5t-181.5 -11h-205v600zM167 500v-139h80q94 0 124 12.5t30 58.5q0 42 -27 55t-138 13h-69zM167 262v-161h112q84 0 114.5 15t30.5 64q0 47 -33 64.5t-127 17.5
h-97z" />
    <glyph glyph-name="C" unicode="C" horiz-adv-x="584" 
d="M435 223l117 -38q-54 -192 -250 -192q-140 0 -206.5 91.5t-66.5 212.5q0 143 74 229t207 86q190 0 240 -175l-120 -29q-23 100 -127 100q-149 0 -149 -202q0 -210 146 -210q105 0 135 127z" />
    <glyph glyph-name="D" unicode="D" horiz-adv-x="579" 
d="M45 600h221q94 0 152 -26t93.5 -98.5t35.5 -181.5q0 -294 -275 -294h-227v600zM166 498v-397h90q92 0 129.5 40t37.5 159q0 87 -23 130.5t-58 55.5t-122 12h-54z" />
    <glyph glyph-name="E" unicode="E" horiz-adv-x="535" 
d="M45 0v600h445v-102h-324v-133h301v-101h-301v-163h335v-101h-456z" />
    <glyph glyph-name="F" unicode="F" horiz-adv-x="488" 
d="M46 0v600h411v-102h-290v-141h250v-102h-250v-255h-121z" />
    <glyph glyph-name="G" unicode="G" horiz-adv-x="629" 
d="M330 223v100h260v-238q-100 -92 -255 -92q-150 0 -227.5 87t-77.5 225q0 154 86.5 230.5t210.5 76.5q217 0 256 -176l-120 -23q-27 95 -136 95q-172 0 -172 -198q0 -100 44 -157t127 -57q77 0 142 51v76h-138z" />
    <glyph glyph-name="H" unicode="H" horiz-adv-x="573" 
d="M46 0v600h121v-236h237v236h121v-600h-121v262h-237v-262h-121z" />
    <glyph glyph-name="I" unicode="I" horiz-adv-x="206" 
d="M43 0v600h122v-600h-122z" />
    <glyph glyph-name="J" unicode="J" horiz-adv-x="446" 
d="M272 602h121v-380q0 -110 -42.5 -169.5t-156.5 -59.5q-184 0 -185 195l114 13q1 -105 75 -105q43 0 58.5 25.5t15.5 93.5v387z" />
    <glyph glyph-name="K" unicode="K" horiz-adv-x="588" 
d="M48 0v600h121v-267l244 267h163l-226 -234l238 -366h-156l-164 281l-99 -100v-181h-121z" />
    <glyph glyph-name="L" unicode="L" horiz-adv-x="491" 
d="M45 0v600h122v-499h300v-101h-422z" />
    <glyph glyph-name="M" unicode="M" horiz-adv-x="669" 
d="M45 0v600h181l109 -410l107 410h182v-600h-113v471l-118 -471h-117l-119 471v-471h-112z" />
    <glyph glyph-name="N" unicode="N" horiz-adv-x="573" 
d="M46 0v600h117l247 -401v401h111v-600h-121l-242 391v-391h-112z" />
    <glyph glyph-name="O" unicode="O" horiz-adv-x="635" 
d="M27 299q0 145 76.5 229t213.5 84q155 0 223 -92t68 -219q0 -143 -77 -225.5t-212 -82.5q-137 0 -214.5 82t-77.5 224zM152 302q0 -93 43.5 -149.5t122.5 -56.5q84 0 124.5 59.5t40.5 149.5q0 203 -165 203q-166 0 -166 -206z" />
    <glyph glyph-name="P" unicode="P" horiz-adv-x="535" 
d="M45 0v600h194q100 0 146 -9t82.5 -55t36.5 -120q0 -67 -28.5 -110.5t-74.5 -61.5t-156 -18h-79v-226h-121zM166 498v-170h67q80 0 113 18t33 67q0 48 -29.5 66.5t-124.5 18.5h-59z" />
    <glyph glyph-name="Q" unicode="Q" horiz-adv-x="640" 
d="M534 90q44 -32 98 -51l-46 -85q-42 11 -133 76q-60 -26 -131 -26q-157 0 -226 90.5t-69 218.5q0 145 77 227.5t215 82.5q136 0 212.5 -82.5t76.5 -227.5q0 -137 -74 -223zM437 158q46 55 46 155q0 208 -165 208q-80 0 -123 -55.5t-43 -152.5q0 -85 38 -147t124 -62
q26 0 50 8q-37 25 -75 39l34 69q59 -20 114 -62z" />
    <glyph glyph-name="R" unicode="R" horiz-adv-x="588" 
d="M46 0v600h255q119 0 177.5 -36t58.5 -132q0 -145 -159 -168q62 -32 133 -147l74 -117h-145l-130 194q-20 29 -44 42.5t-74 13.5h-25v-250h-121zM167 345h90q91 0 123 15.5t32 62.5q0 45 -26.5 60t-123.5 15h-95v-153z" />
    <glyph glyph-name="S" unicode="S" horiz-adv-x="541" 
d="M22 197l117 13q21 -116 132 -116q117 0 117 82q0 33 -25.5 48t-127.5 41q-191 48 -191 180q0 81 60 124t159 43q223 0 229 -181l-121 -5q-13 86 -110 86q-101 0 -101 -59q0 -20 18 -37.5t112 -40.5q151 -39 185 -86.5t34 -110.5q0 -187 -239 -187q-223 0 -248 206z" />
    <glyph glyph-name="T" unicode="T" horiz-adv-x="503" 
d="M191 0v498h-178v102h476v-102h-177v-498h-121z" />
    <glyph glyph-name="U" unicode="U" horiz-adv-x="573" 
d="M45 602h121v-324q0 -73 5 -105t34.5 -54.5t82.5 -22.5q65 0 89.5 31t24.5 143v332h120v-316q0 -110 -12.5 -164.5t-66 -91.5t-151.5 -37t-153.5 31.5t-74.5 82t-19 176.5v319z" />
    <glyph glyph-name="V" unicode="V" horiz-adv-x="557" 
d="M215 0l-215 600h132l152 -445l145 445h129l-214 -600h-129z" />
    <glyph glyph-name="W" unicode="W" horiz-adv-x="788" 
d="M144 0l-143 600h123l92 -412l109 412h144l104 -419l93 419h122l-147 -600h-128l-118 448l-120 -448h-131z" />
    <glyph glyph-name="X" unicode="X" horiz-adv-x="557" 
d="M0 0l205 312l-185 288h142l119 -193l117 193h141l-186 -292l205 -308h-146l-133 207l-133 -207h-146z" />
    <glyph glyph-name="Y" unicode="Y" horiz-adv-x="557" 
d="M220 0v253l-220 347h142l142 -237l137 237h139l-219 -348v-252h-121z" />
    <glyph glyph-name="Z" unicode="Z" horiz-adv-x="505" 
d="M6 0v109l315 389h-279v102h439v-94l-329 -405h341v-101h-487z" />
    <glyph glyph-name="bracketleft" unicode="[" horiz-adv-x="260" 
d="M45 -130v769h204v-91h-94v-587h94v-91h-204z" />
    <glyph glyph-name="backslash" unicode="\" horiz-adv-x="231" 
d="M0 612h85l149 -619h-86z" />
    <glyph glyph-name="bracketright" unicode="]" horiz-adv-x="260" 
d="M215 639v-769h-204v91h95v588h-95v90h204z" />
    <glyph glyph-name="asciicircum" unicode="^" horiz-adv-x="467" 
d="M35 218l154 326h92l149 -326h-116l-82 200l-80 -200h-117z" />
    <glyph glyph-name="underscore" unicode="_" horiz-adv-x="467" 
d="M-4 -127v74h477v-74h-477z" />
    <glyph glyph-name="grave" unicode="`" horiz-adv-x="255" 
d="M197 375h-71l-114 122h130z" />
    <glyph glyph-name="a" unicode="a" horiz-adv-x="451" 
d="M138 305l-104 18q35 124 188 124q107 0 144.5 -37t37.5 -131l-1 -133q0 -90 26 -144h-113q-7 18 -15 47q-59 -56 -135 -56q-64 0 -104 34.5t-40 93.5q0 47 26 81.5t132 55.5q81 15 112 27v12q0 62 -79 62q-55 0 -75 -54zM292 211q-55 -11 -133 -37q-22 -16 -22 -41
q0 -28 19.5 -43.5t44.5 -15.5q91 0 91 114v23z" />
    <glyph glyph-name="b" unicode="b" horiz-adv-x="492" 
d="M41 2v600h115v-216q53 61 127 61q86 0 134 -62t48 -160q0 -92 -45 -162t-136 -70q-84 0 -136 74v-65h-107zM155 229q0 -146 101 -146q91 0 91 135q0 141 -95 141q-97 0 -97 -130z" />
    <glyph glyph-name="c" unicode="c" horiz-adv-x="452" 
d="M430 308l-114 -21q-12 70 -79 70q-94 0 -94 -130q0 -141 97 -141q66 0 82 83l114 -20q-36 -156 -202 -156q-98 0 -153.5 61.5t-55.5 165.5q0 92 50 159.5t161 67.5q153 0 194 -139z" />
    <glyph glyph-name="d" unicode="d" horiz-adv-x="492" 
d="M449 2h-107v65q-53 -74 -136 -74q-82 0 -131.5 64.5t-49.5 163.5q0 103 48 164.5t135 61.5q72 0 125 -61v216h116v-600zM142 229q0 -146 98 -146q45 0 70 38t25 97q0 141 -97 141q-96 0 -96 -130z" />
    <glyph glyph-name="e" unicode="e" horiz-adv-x="451" 
d="M304 141l115 -20q-46 -128 -189 -128q-112 0 -161.5 64.5t-49.5 158.5q0 102 53.5 166.5t145.5 64.5q207 0 207 -261h-289q6 -108 95 -108q56 0 73 63zM311 257q-3 102 -86 102q-85 0 -85 -102h171z" />
    <glyph glyph-name="f" unicode="f" horiz-adv-x="281" 
d="M7 434h64v32q0 143 133 143q50 0 97 -14l-16 -81q-28 8 -53 8q-46 0 -46 -57v-31h85v-90h-85v-344h-115v344h-64v90z" />
    <glyph glyph-name="g" unicode="g" horiz-adv-x="491" 
d="M40 12l132 -16q6 -44 66 -44q53 0 74 20.5t21 75.5v63q-51 -70 -129 -70q-85 0 -132 64t-47 155q0 90 44.5 157.5t138.5 67.5q81 0 133 -70v60h107v-390q0 -126 -46 -173.5t-160 -47.5q-106 0 -156.5 37t-45.5 111zM142 266q0 -133 94 -133q100 0 100 131q0 133 -99 133
q-95 0 -95 -131z" />
    <glyph glyph-name="h" unicode="h" horiz-adv-x="484" 
d="M160 600v-221q56 65 133 65q84 0 116 -47.5t32 -141.5v-255h-115v229q0 76 -14 102t-57 26q-95 0 -95 -140v-217h-115v600h115z" />
    <glyph glyph-name="i" unicode="i" horiz-adv-x="204" 
d="M45 493v107h115v-107h-115zM45 0v434h115v-434h-115z" />
    <glyph glyph-name="j" unicode="j" horiz-adv-x="227" 
d="M68 534v106h115v-106h-115zM183 475v-421q0 -105 -27 -147.5t-105 -42.5q-33 0 -79 13l20 98q18 -3 28 -3q30 0 39 14.5t9 73.5v415h115z" />
    <glyph glyph-name="k" unicode="k" horiz-adv-x="451" 
d="M41 0v600h115v-319l135 153h141l-148 -159l159 -275h-124l-109 195l-54 -56v-139h-115z" />
    <glyph glyph-name="l" unicode="l" horiz-adv-x="204" 
d="M45 0v600h115v-600h-115z" />
    <glyph glyph-name="m" unicode="m" horiz-adv-x="720" 
d="M39 434h106v-59q57 69 136 69q84 0 122 -69q57 69 133 69q142 0 142 -166v-278h-115v248q0 74 -17.5 91.5t-43.5 17.5q-85 0 -85 -148v-209h-115v238q0 53 -9.5 86t-51.5 33q-37 0 -62 -24.5t-25 -121.5v-211h-115v434z" />
    <glyph glyph-name="n" unicode="n" horiz-adv-x="484" 
d="M441 0h-115v222q0 77 -14 106t-57 29q-39 0 -67 -22.5t-28 -138.5v-196h-115v434h106v-64q58 74 144 74q146 0 146 -174v-270z" />
    <glyph glyph-name="o" unicode="o" horiz-adv-x="497" 
d="M25 226q0 91 61.5 156t161.5 65t162.5 -63.5t62.5 -162.5t-62.5 -163.5t-160.5 -64.5q-103 0 -164 60.5t-61 172.5zM142 220q0 -60 28.5 -97t77.5 -37q51 0 78.5 37t27.5 98q0 59 -27.5 95.5t-78.5 36.5q-49 0 -77.5 -37t-28.5 -96z" />
    <glyph glyph-name="p" unicode="p" horiz-adv-x="491" 
d="M43 473h107v-65q47 74 136 74q86 0 133 -66t47 -158q0 -99 -48.5 -164.5t-132.5 -65.5q-68 0 -127 65v-220h-115v600zM157 263q0 -143 99 -143q93 0 93 137q0 134 -95 134q-97 0 -97 -128z" />
    <glyph glyph-name="q" unicode="q" horiz-adv-x="491" 
d="M335 -127v218q-49 -63 -128 -63q-83 0 -131 66t-48 166q0 88 45 155t140 67q81 0 131 -74v65h106v-600h-115zM339 260q0 132 -95 132q-99 0 -99 -138q0 -136 94 -136q49 0 74.5 42t25.5 100z" />
    <glyph glyph-name="r" unicode="r" horiz-adv-x="315" 
d="M156 0h-115v434h107v-61q45 71 99 71q40 0 75 -22l-35 -100q-29 19 -55 19q-43 0 -59.5 -41t-16.5 -166v-134z" />
    <glyph glyph-name="s" unicode="s" horiz-adv-x="451" 
d="M14 126l115 18q16 -69 94 -69q82 0 82 47q0 27 -47 37q-159 36 -193.5 70.5t-34.5 83.5q0 134 183 134q159 0 192 -115l-108 -20q-14 52 -82 52q-78 0 -78 -36q0 -29 123 -57q90 -19 125 -48t35 -85q0 -71 -58 -108t-139 -37q-174 0 -209 133z" />
    <glyph glyph-name="t" unicode="t" horiz-adv-x="272" 
d="M255 437v-92h-78v-175q0 -53 6 -67.5t25 -14.5q16 0 47 11l10 -89q-41 -17 -92 -17q-71 0 -91.5 35.5t-20.5 126.5v190h-53v92h53v86l116 67v-153h78z" />
    <glyph glyph-name="u" unicode="u" horiz-adv-x="484" 
d="M332 2v66q-52 -75 -145 -75q-144 0 -144 169v275h115v-200q0 -94 14 -125.5t57 -31.5q56 0 75 33.5t19 140.5v183h115v-435h-106z" />
    <glyph glyph-name="v" unicode="v" horiz-adv-x="462" 
d="M177 0l-175 434h121l105 -296l107 296h119l-173 -434h-104z" />
    <glyph glyph-name="w" unicode="w" horiz-adv-x="650" 
d="M139 0l-137 434h111l81 -285l76 285h111l73 -285l82 285h114l-140 -434h-111l-74 279l-74 -279h-112z" />
    <glyph glyph-name="x" unicode="x" horiz-adv-x="462" 
d="M3 0l157 223l-151 211h141l76 -119l82 119h134l-147 -206l161 -228h-141l-89 134l-89 -134h-134z" />
    <glyph glyph-name="y" unicode="y" horiz-adv-x="460" 
d="M3 475h122l104 -308l102 308h119l-182 -494q-42 -117 -161 -117q-34 0 -66 8l-10 89q28 -5 48 -5q66 0 89 83z" />
    <glyph glyph-name="z" unicode="z" horiz-adv-x="409" 
d="M9 0v90l163 186q38 44 59 66l-53 -3h-153v95h359v-81l-165 -191l-59 -63q48 2 59 2h177v-101h-387z" />
    <glyph glyph-name="braceleft" unicode="{" horiz-adv-x="314" 
d="M18 209v97q56 4 73 36.5t17 110.5q0 124 32.5 160.5t135.5 36.5h22v-97q-34 0 -55 -6.5t-23.5 -18.5t-9.5 -130q-4 -102 -72 -140q48 -29 62 -75.5t14 -160.5q0 -37 16 -48.5t68 -11.5v-98h-22q-93 0 -130.5 36t-37.5 148q0 89 -17 123t-73 38z" />
    <glyph glyph-name="bar" unicode="|" horiz-adv-x="201" 
d="M54 -136v786h91v-786h-91z" />
    <glyph glyph-name="braceright" unicode="}" horiz-adv-x="314" 
d="M293 209q-49 -4 -69.5 -33.5t-20.5 -112.5q0 -136 -40 -167.5t-128 -31.5h-22v98q68 0 74.5 16.5t13.5 136.5q5 105 72 143q-46 29 -60 68t-16 165q-1 40 -14.5 51t-69.5 11v97h22q93 0 130.5 -35t37.5 -147q0 -89 16.5 -123.5t73.5 -38.5v-97z" />
    <glyph glyph-name="asciitilde" unicode="~" horiz-adv-x="476" 
d="M20 163v106q52 57 121 57q43 0 126 -34q55 -22 76 -22q56 0 111 58v-110q-52 -54 -122 -54q-36 0 -100 28q-65 29 -101 29q-57 0 -111 -58z" />
    <glyph glyph-name="cent" unicode="&#xa2;" horiz-adv-x="452" 
d="M295 370l-75 -247l18 -1q67 0 84 83l113 -20q-36 -157 -200 -157q-19 0 -42 3l-48 -158l-50 13l47 158q-117 56 -117 213q0 225 233 225q11 -2 16 -2l46 154l50 -15l-45 -151q78 -30 105 -124l-114 -21q-5 29 -21 47zM247 391l-10 1q-95 0 -95 -129q0 -79 32 -115z" />
    <glyph glyph-name="copyright" unicode="&#xa9;" horiz-adv-x="618" 
d="M311 616q129 0 221.5 -90t92.5 -224q0 -127 -91 -220t-223 -93q-128 0 -220.5 91t-92.5 222q0 130 90.5 222t222.5 92zM311 554q-104 0 -177.5 -73.5t-73.5 -178.5q0 -106 74.5 -178.5t176.5 -72.5q104 0 178 74t74 177q0 105 -74 178.5t-178 73.5zM388 255l65 -22
q-32 -106 -137 -106q-61 0 -110 41t-49 132q0 86 45 131t114 45q103 0 137 -100l-66 -16q-21 57 -73 57q-84 0 -84 -115q0 -116 79 -116q58 0 79 69z" />
    <glyph glyph-name="registered" unicode="&#xae;" horiz-adv-x="618" 
d="M311 616q129 0 221.5 -89.5t92.5 -224.5q0 -127 -91 -220t-223 -93q-128 0 -220.5 91t-92.5 222q0 130 90 222t223 92zM311 554q-107 0 -179 -76t-72 -176q0 -102 73.5 -177.5t177.5 -75.5t178.5 73.5t74.5 179.5q0 104 -72.5 178t-180.5 74zM169 134v334h68l106 -2
q44 0 70.5 -27t26.5 -66q0 -78 -90 -93q22 -6 45 -38l25 -41l39 -67h-83l-28 55q-26 49 -45 65.5t-48 16.5h-18v-137h-68zM237 323h27q65 0 84.5 9.5t19.5 36.5q0 15 -9 25q-7 21 -95 21h-27v-92z" />
    <glyph glyph-name="onequarter" unicode="&#xbc;" horiz-adv-x="774" 
d="M661 126v158l-116 -158h116zM661 -7v90h-176v38l177 238h55v-233h53v-43h-53v-90h-56zM149 -26l424 680h67l-423 -680h-68zM155 269v274q-25 0 -37 -2.5t-50 -2.5h-14v37h10q48 0 70 15.5t26 54.5h51v-376h-56z" />
    <glyph glyph-name="onehalf" unicode="&#xbd;" horiz-adv-x="774" 
d="M483 -7v18q0 41 24 73t80 63q14 7 38 20q48 24 63 39q11 10 16.5 22.5t5.5 28.5q0 32 -20 50.5t-57 18.5q-41 0 -62.5 -21.5t-23.5 -68.5h-54q3 67 39 100t102 33q60 0 96 -30.5t36 -81.5q0 -23 -8.5 -42t-26.5 -36q-18 -20 -77 -49q-20 -10 -31 -16q-45 -23 -63.5 -43
t-19.5 -35h225v-43h-282zM149 -26l424 680h67l-423 -680h-68zM155 269v274q-25 0 -37 -2.5t-50 -2.5h-14v37h10q48 0 70 15.5t26 54.5h51v-376h-56z" />
    <glyph glyph-name="threequarters" unicode="&#xbe;" horiz-adv-x="773" 
d="M661 126v158l-116 -158h116zM661 -7v90h-177v38l177 238h54v-233h54v-43h-54v-90h-54zM149 -26l424 680h67l-425 -680h-66zM19 387h57q1 -44 22 -64.5t60 -20.5q41 0 63.5 18.5t22.5 54.5q0 35 -23 51.5t-72 16.5h-10.5t-15.5 -3v44h23q43 0 64 15t21 46q0 26 -18.5 42
t-50.5 16q-36 0 -55.5 -18.5t-20.5 -60.5h-55q4 61 38 91t93 30q58 0 91.5 -27t33.5 -73q0 -29 -15.5 -50.5t-25.5 -28.5q15 -2 34.5 -28t19.5 -63q0 -54 -37.5 -85t-102.5 -31q-66 0 -103.5 32t-37.5 89v7z" />
    <glyph glyph-name="multiply" unicode="&#xd7;" horiz-adv-x="600" 
d="M573 496l-204 -253l202 -250h-123l-140 174l-143 -174h-123l202 250l-204 253l127 2l141 -177l140 177z" />
    <glyph glyph-name="divide" unicode="&#xf7;" horiz-adv-x="593" 
d="M369 450q0 -37 -25 -61.5t-57 -24.5q-36 0 -56 24t-20 59q0 30 23 52.5t59 22.5q33 0 54.5 -21t21.5 -51zM551 218h-511v104h511v-104zM369 94q0 -37 -25 -62t-57 -25q-35 0 -55.5 24.5t-20.5 58.5q0 33 23 53q24 24 59 24q32 0 54 -23q22 -18 22 -50z" />
    <glyph glyph-name="uni0950" unicode="&#x950;" horiz-adv-x="769" 
d="M37 331l23 7q20 -123 83.5 -201t145.5 -78q43 0 74 32t31 78q0 84 -68 153q-35 -48 -83 -70l-30 72q107 31 107 104q0 28 -17 42.5t-50 14.5q-48 0 -101 -29l-30 72q42 21 90 21q62 0 101 -40t39 -104q0 -27 -13 -52l16 -15q62 59 118 59q4 0 16 -1q21 112 112 112
q60 0 89.5 -48.5t29.5 -146.5t-37 -156t-101 -58q-44 0 -62.5 27.5t-18.5 94.5v34q0 66 -35 66q-28 0 -74 -31q61 -83 61 -156q0 -59 -39 -96t-104 -37q-105 0 -183 95t-90 235zM507 389q26 -14 26 -58v-55v-28q0 -86 53 -86q43 0 72.5 41t29.5 105q0 61 -27 99t-69 38
q-58 0 -85 -56zM266 623l21 15q44 -56 103 -56q57 0 97 56l61 -50q-59 -64 -122 -64q-95 0 -160 99zM400 713l45 -47l-45 -44l-46 48z" />
    <glyph glyph-name="uni0951" unicode="&#x951;" 
d="M-206 935h-58v423h58v-423zM-236 788z" />
    <glyph glyph-name="uni0952" unicode="&#x952;" 
d="M-361 -88zM-59 -416h-592v51h592v-51zM-361 174z" />
    <glyph glyph-name="uni0964" unicode="&#x964;" horiz-adv-x="262" 
d="M206 -75h-97v610h97v-610v0z" />
    <glyph glyph-name="uni0965" unicode="&#x965;" horiz-adv-x="499" 
d="M109 -75v610h97v-610h-97v0zM345 -75v610h98v-610h-98v0z" />
    <glyph glyph-name="uni0C01" unicode="&#xc01;" horiz-adv-x="338" 
d="M313 402v-43q-104 19 -147 -30q-44 -45 -44 -102q0 -65 27 -102t69.5 -44.5t82.5 5.5v-48v-34q-29 -11 -50 -10q-108 0 -170.5 68.5t-62.5 170.5q0 89 81 162.5t214 43.5v-37z" />
    <glyph glyph-name="uni0C02" unicode="&#xc02;" horiz-adv-x="523" 
d="M498 225q0 -105 -86 -174q-73 -57 -163 -57q-92 0 -153 50q-78 62 -78 185q0 115 100 181q74 43 147 43q90 0 159 -57q74 -65 74 -171zM402 218q0 51 -32 90q-41 51 -110 51q-61 0 -99.5 -40t-38.5 -90q0 -64 37 -101t98 -37q55 0 99 40q46 44 46 87z" />
    <glyph glyph-name="uni0C03" unicode="&#xc03;" horiz-adv-x="264" 
d="M239 357q0 -39 -33 -73q-31 -29 -77 -29q-33 0 -57 13q-50 29 -50 82q0 41 32 70.5t76 29.5q50 0 80 -31q29 -23 29 -62zM235 100q0 -42 -33 -70q-16 -18 -34.5 -25t-42.5 -7q-37 0 -56 12q-51 33 -51 84q0 43 32 70.5t77 27.5q50 0 79 -25.5t29 -66.5zM175 354
q0 38 -41 38q-47 0 -47 -38q0 -39 41 -39q47 0 47 39zM170 99q0 38 -41 38q-46 0 -46 -40t41 -40q46 0 46 42z" />
    <glyph glyph-name="uni0C05" unicode="&#xc05;" horiz-adv-x="606" 
d="M135 215v79h114l-5 43q2 61 43 101.5t123 38.5q66 0 119 -65t53 -155q0 -105 -94 -190q-80 -73 -196 -73q-123 0 -198.5 70t-75.5 199q0 33 19.5 83.5t52.5 82.5q54 55 135 55v-93q-33 11 -73.5 -39t-31.5 -125t50 -107q52 -35 124 -35q90 0 142 53t52 130q0 53 -34 92
q-30 31 -57 31q-57 0 -57 -47q0 -39 47 -39h12l1 -90h-265z" />
    <glyph glyph-name="uni0C06" unicode="&#xc06;" horiz-adv-x="581" 
d="M556 192q0 -92 -116 -159q-64 -39 -148 -39q-95 0 -165 44q-109 67 -109 198q0 75 59 153q67 84 158 84v-91l-17 4q-32 0 -63.5 -40.5t-34.5 -102.5q3 -64 35 -106q48 -61 138 -61q68 0 121 47q47 39 47 64.5t-11 45.5q-22 -12 -52 -13h-231v77h120q-26 30 -22 64
q0 45 42 81.5t103 36.5q64 0 105 -37q32 -34 32 -81q0 -64 -26 -85q35 -38 35 -84zM451 357q0 34 -43 34t-43 -37q0 -27 44 -32q42 0 42 35z" />
    <glyph glyph-name="uni0C07" unicode="&#xc07;" horiz-adv-x="610" 
d="M586 -43h-119q-13 45 -48 110q-102 -73 -197 -73q-77 0 -128 31q-65 39 -65 118q0 57 72 98q68 35 135 35q76 0 179 -79q26 50 26 113q0 34 -18 65q-20 26 -47 26q-47 0 -47 -44q0 -28 12 -54h-108q3 40 -21 65q-18 22 -43 22q-41 0 -41 -53q0 -17 15 -37l-125 -5v32
q0 42 26 86q38 67 115 67q33 2 64 -3q13 -4 25.5 -11t28.5 -19q30 46 99 46q71 0 113 -59.5t42 -142.5q0 -76 -50 -150q75 -76 105 -184zM357 128q-15 20 -53 39q-45 18 -81 18q-34 0 -64 -14t-32 -34q0 -21 36 -36.5t71 -15.5q12 0 25.5 2.5t38.5 12.5q41 12 59 28z" />
    <glyph glyph-name="uni0C08" unicode="&#xc08;" horiz-adv-x="929" 
d="M904 146q0 -57 -50 -98t-104 -41q-51 0 -92 42q-35 41 -35 99q0 20 7 44h-67q-13 -78 -82 -136q-76 -65 -180 -65q-103 0 -169 62q-51 51 -70 135h-44v90h53q0 17 21.5 62.5t55.5 64.5l-37 34q-29 34 -29 95h121q-10 -11 -10 -29q0 -20 24 -35q21 -10 40 -12q31 0 63 34
l58 62q19 17 62 36q2 1 28 9.5t41 8.5q16 0 27 -8v-103q-7 9 -33 11q-64 0 -95 -50q111 -16 158 -174h143q64 24 64 95q0 37 -47 37q-44 0 -44 -35l10 -24h-89l-1 16l-2 25q0 35 27 67q37 45 107 45q61 0 103 -52q35 -42 35 -94q0 -35 -13 -57l-17 -32q62 -47 62 -129z
M809 148q0 20 -13.5 38.5t-34.5 18.5t-37 -19q-14 -17 -14 -33q0 -52 51 -52q17 0 31 14.5t17 32.5zM474 276q-33 97 -154 97q-97 0 -138 -97h292zM466 189h-290q-5 -25 40 -60t98 -35q102 0 152 95z" />
    <glyph glyph-name="uni0C09" unicode="&#xc09;" horiz-adv-x="657" 
d="M632 159q0 -58 -49 -112t-126 -54q-79 0 -106 55l-30 -37q-23 -20 -81 -20q-68 0 -116.5 61.5t-48.5 131.5v27h-57v86h73q23 37 36 57t23 30q57 61 134 74v149h94v-144q96 0 156 -53q43 -39 49 -81h-95q-33 53 -127 53q-121 0 -165 -85h190v-86h-208l-6 -27
q0 -30 18.5 -63t52.5 -33q41 0 56 28q3 9 5.5 23.5t2.5 34.5h116q-7 -5 -7 -43q0 -47 63 -47q25 0 41.5 19.5t16.5 48.5q0 16 -6 26.5t-24 20.5t-46 10v85q7 2 31 2l27 -2q46 0 83 -48q13 -21 21.5 -43t8.5 -44z" />
    <glyph glyph-name="uni0C0A" unicode="&#xc0a;" horiz-adv-x="956" 
d="M931 181q0 -54 -47 -96q-16 -16 -36 -26q-32 -17 -70 -17q-57 0 -90 41.5t-25 100.5q0 27 19 38h-489l1 -54q0 -25 18 -48.5t45 -23.5t44 21t17 47l-3 17h88v-33q0 -25 17 -42t37 -17q26 0 50 28q14 17 14 51q0 15 -5 26h98q4 -16 5 -25t1 -26q0 -69 -45 -108t-118 -39
q-76 0 -101 57q-26 -60 -111 -60q-84 0 -127 65q-32 52 -32 117q0 38 4 47h-72v86h90q0 21 21 56q28 51 90 85v157h88v-129l19 2l23 1v125h88v-129q120 -32 134 -122h-92q-33 47 -104 47q-61 0 -103 -26.5t-53 -66.5h507q52 0 80.5 26t28.5 51q0 17 -15.5 34.5t-32.5 17.5
q-18 0 -32.5 -15.5t-14.5 -36.5l2 -10h-85l-2 21q0 43 28 75q38 41 106 41q61 0 95 -47q25 -39 25 -87q0 -29 -11 -46l-21 -31q32 -26 42 -44q5 -9 8.5 -26.5t3.5 -49.5zM845 175q0 45 -44 52q-51 0 -51 -46q0 -24 14.5 -39t31.5 -16q49 0 49 49z" />
    <glyph glyph-name="uni0C0B" unicode="&#xc0b;" horiz-adv-x="1151" 
d="M514 56q-59 -60 -149 -60q-26 0 -47 13q-4 1 -34 33q-51 -48 -123 -48q-68 0 -104 42q-37 36 -37 95q0 102 114 139l48 14q22 11 22 36q0 39 -43 39q-59 0 -59 -59h-84q0 147 149 147q57 0 92 -34t35 -91q0 -58 -45 -90l-84 -37q-45 -21 -45 -58q0 -19 15.5 -33.5
t42.5 -14.5q47 0 57 42q1 7 1 23q0 6 -2 17h99v-23q0 -27 26 -43q19 -12 40 -15q38 0 65 44t27 93q0 43 -26 81q-32 46 -78 46q-16 0 -36 -9v99l41 3q79 0 132.5 -64.5t53.5 -166.5v-15l19 -57q23 -53 72 -53q40 0 68 46q26 41 26 90q0 46 -23 83q-30 49 -80 49l-36 -1v89
l42 2q79 0 132 -66.5t53 -166.5v-15l20 -57q23 -53 72 -53q40 0 67 44t27 92q0 47 -25 83q-28 49 -77 49l-39 -1v89l42 2q79 0 133.5 -66.5t54.5 -166.5q0 -90 -60 -156.5t-142 -66.5q-87 0 -132 54l-4 6q-59 -60 -137 -60q-88 0 -131 54z" />
    <glyph glyph-name="uni0C0C" unicode="&#xc0c;" horiz-adv-x="698" 
d="M673 268q0 -117 -50 -193q-60 -82 -172 -82q-116 0 -157 70q-27 44 -27 132q0 100 117 134q65 16 65 69q0 57 -53 57q-25 0 -51 -18q-11 -11 -17.5 -21.5t-7.5 -23.5v-33h-93l-2 51q0 12 -16.5 27t-38.5 17q-22 0 -42 -17q-17 -24 -17 -50q0 -51 44 -51q23 0 34 5v-98
q-101 0 -129 31q-42 44 -42 111q0 65 52 113.5t106 48.5q91 0 115 -56q1 20 29 37q35 20 80 20q57 0 100 -36q49 -41 49 -106q0 -123 -108 -147q-36 -10 -57.5 -29t-21.5 -41q0 -41 9 -61q18 -43 78 -43q66 0 97 53q23 37 23 74v56h104z" />
    <glyph glyph-name="uni0C0E" unicode="&#xc0e;" horiz-adv-x="598" 
d="M573 218q0 -84 -61.5 -153t-136.5 -69q-65 0 -99 40q-37 -45 -119 -45q-67 0 -104 47q-35 40 -35 99q0 54 44 99q52 51 135 51q59 0 97.5 -46t38.5 -110q13 -40 54 -40q28 0 57.5 44t29.5 78q0 135 -118 135q-17 0 -26.5 -2.5t-24.5 -2.5v99q34 8 56 8q96 0 159 -75
q53 -69 53 -157zM231 141q0 23 -18 39q-14 19 -41 19q-54 0 -54 -62q0 -54 54 -54q59 0 59 58z" />
    <glyph glyph-name="uni0C0F" unicode="&#xc0f;" horiz-adv-x="603" 
d="M414 565l-53 -78q-41 27 -78 27q-76 0 -124 -44q-34 -37 -34 -83q0 -40 27 -67h-118q-16 43 -16 75q0 100 122 170q37 21 71 31t73 10q86 0 130 -41zM578 218q0 -80 -61.5 -151t-135.5 -71q-62 0 -95 46q-21 -51 -121 -51q-68 0 -108 46q-32 39 -32 100q0 54 45 99
q50 51 133 51q58 0 97.5 -46t39.5 -110q20 -40 53 -40q31 0 57 42q29 42 29 83q0 117 -107 132q-11 1 -16 1q-4 0 -17 -2l-31 -4v99q33 8 59 8q96 0 158 -75q53 -68 53 -157zM236 141q0 23 -17 39q-13 19 -39 19q-56 0 -56 -62q0 -53 54 -53q58 0 58 57z" />
    <glyph glyph-name="uni0C10" unicode="&#xc10;" horiz-adv-x="581" 
d="M556 252q0 -99 -67.5 -177.5t-132.5 -78.5q-52 0 -96 37l-38 -27q-31 -15 -70 -15q-64 0 -103 53q-31 44 -31 102q0 54 32 93q44 57 138 57q95 0 140 -143q16 -48 42 -48q33 0 60 50q24 45 24 86q0 55 -24 100q-28 51 -71 51q-26 0 -33 -18l-6 -40l-93 -5q0 29 -15.5 48
t-41.5 19q-50 0 -50 -33l12 -36h-103l-1 23q0 23 3.5 39.5t21.5 43.5q38 65 119 65q53 0 112 -38l28 21q19 15 49 15q100 0 157 -100q38 -69 38 -144zM223 148q0 20 -19 34.5t-43 17.5q-17 0 -32.5 -16t-15.5 -43q0 -53 48 -53q25 0 43.5 18.5t18.5 41.5z" />
    <glyph glyph-name="uni0C12" unicode="&#xc12;" horiz-adv-x="576" 
d="M551 154q0 -65 -54 -116q-48 -45 -101 -45q-94 0 -116 55q-3 -20 -31 -39q-34 -18 -79 -18q-57 0 -100 35q-50 39 -50 105q0 124 108 149q78 16 78 54q0 15 -12 34q-9 13 -24 16q-18 0 -32 -17t-14 -31l3 -14h-109q0 47 25 88q38 64 124 64q45 0 82 -24q52 -35 52 -107
q0 -101 -116 -133q-63 -18 -63 -69q0 -57 54 -57q22 0 49 18q6 5 14 17t10 27v33h95l1 -51q0 -12 16.5 -26t38.5 -17q23 0 41 17q20 23 20 50q0 50 -47 50q-22 0 -33 -3v95q100 0 128 -29q42 -44 42 -111z" />
    <glyph glyph-name="uni0C13" unicode="&#xc13;" horiz-adv-x="576" 
d="M551 154q0 -65 -54 -116q-48 -45 -101 -45q-94 0 -116 55q-3 -20 -31 -39q-34 -18 -79 -18q-57 0 -100 35q-50 39 -50 105q0 124 108 149q78 16 78 54q0 15 -12 34q-9 13 -24 16q-18 0 -32 -17t-14 -31l3 -14h-109q0 91 75 136q-13 18 -13 50q0 58 42 95q44 32 117 32
q75 0 123 -49q38 -41 38 -90v-38h-107q0 89 -57 89q-58 0 -58 -47q0 -18 4 -26q51 -14 69 -27q50 -34 50 -104q0 -101 -116 -133q-63 -18 -63 -69q0 -57 54 -57q22 0 49 18q6 5 14 17t10 27v33h95l1 -51q0 -12 16.5 -26t38.5 -17q23 0 41 17q20 23 20 50q0 50 -47 50
q-22 0 -33 -3v95q100 0 128 -29q42 -44 42 -111z" />
    <glyph glyph-name="uni0C14" unicode="&#xc14;" horiz-adv-x="655" 
d="M630 464q0 -64 -47 -114q-46 -49 -96 -49q-41 0 -76 37t-35 85q0 42 36 80q35 31 82 31q17 0 27 -2q-16 17 -40 19h-211q11 -25 11 -45q0 -26 -29 -56q12 -6 30.5 -34.5t18.5 -65.5q0 -76 -71 -123l-55 -21q-45 -23 -45 -60q0 -18 15 -40q12 -21 37 -21q21 0 41 25
q17 27 17 57l-4 21h116l-5 -28q0 -69 56 -69q22 0 43 23q19 20 19 43q-2 17 -15 32.5t-22 15.5q-16 0 -25 -16v105l12 2l25 1q33 0 58 -17q57 -42 57 -120q0 -58 -64 -116q-57 -49 -94 -49q-67 0 -109 43q-49 -47 -132 -47q-54 0 -95.5 46t-41.5 109q0 101 84 128l68 20
q35 12 35 43q0 48 -40 48q-49 0 -49 -37l3 -33h-102q0 90 52 118q-6 17 -6 33q0 14 6 21h96q16 0 31 9q11 11 11 16q0 39 -39 39h-141v82h476q126 -41 126 -169zM525 423q0 32 -33 32q-11 0 -21 -11q-6 -11 -6 -26q0 -12 11.5 -22t25.5 -9q23 0 23 36z" />
    <glyph glyph-name="uni0C15" unicode="&#xc15;" horiz-adv-x="494" 
d="M308 449q134 -20 134 -125h-98q-11 25 -43 39q-14 8 -27 9.5t-34 1.5q-95 0 -95 -63q0 -41 85 -41l43 11q40 10 78 10q59 0 91 -38q28 -27 28 -70q-9 -89 -75.5 -139t-154.5 -50q-111 0 -173 62q-49 45 -49 102h105q0 -27 36.5 -50.5t86.5 -23.5q58 0 90 23.5t32 47.5
q0 46 -54 46l-55 -9l-73 -7q-54 0 -100 33q-51 35 -51 92q0 44 52 90l6 3l-17 13q-44 38 -44 85v13h103l-1 -11q0 -50 51 -50q19 0 40 20l39 45q65 73 138 73q32 0 49 -11v-96q-15 21 -52 21q-38 0 -69 -32z" />
    <glyph glyph-name="uni0C16" unicode="&#xc16;" horiz-adv-x="689" 
d="M664 227q0 -96 -63.5 -162t-156.5 -66q-47 0 -68.5 6t-62.5 46q-24 -25 -75 -45q-21 -7 -41 -11t-38 -4q-60 0 -98 26q-43 27 -43 80q0 49 48 83.5t105 34.5q88 0 141 -40q13 61 13 80t-11.5 50t-29.5 32q-9 -42 -40 -73q-9 -9 -32 -21q-34 -14 -53 -14q-63 0 -99.5 31.5
t-36.5 84.5q0 56 75 102q40 26 109 26q96 0 161 -70q48 -53 48 -156q0 -25 -9 -66q-11 -33 -28 -50q3 -19 24.5 -30.5t43.5 -11.5q42 0 78 34q40 44 40 102q0 45 -23 83q-27 41 -77 41l-31 -4v99q96 0 129 -21q37 -18 69 -71q32 -63 32 -125zM189 345q0 39 -35 39
q-36 0 -36 -39q0 -37 36 -37q35 0 35 37zM244 111q-27 22 -66 22q-54 0 -54 -23q0 -26 47 -26q53 0 73 27zM360 -117h-101v111h101v-111z" />
    <glyph glyph-name="uni0C17" unicode="&#xc17;" horiz-adv-x="521" 
d="M352 438q64 -26 104.5 -95t40.5 -133q0 -84 -48 -150q-36 -48 -65 -56l-3 2l-50 78v5q67 53 67 123q0 57 -30 98q-35 50 -101 50q-65 0 -103.5 -48t-38.5 -120q0 -30 3.5 -46t12.5 -30q7 -9 47 -43l3 -4q-6 -18 -59 -71h-5q-109 41 -109 209q0 96 70 168l23 20l-9 3
q-48 34 -48 82l1 18h110q-4 -2 -4 -11q0 -16 18.5 -28t35.5 -15l24 5q15 4 26 15l38 41q57 61 125 61q32 0 55 -11v-100q-18 18 -57 18q-29 0 -74 -35z" />
    <glyph glyph-name="uni0C18" unicode="&#xc18;" horiz-adv-x="874" 
d="M231 141q0 23 -18 39q-14 19 -41 19q-54 0 -54 -62q0 -54 54 -54q25 0 42 16t17 42zM573 212l22 -68q23 -53 73 -53q40 0 67 44t27 92q0 47 -25 83q-28 49 -79 49l-38 -1v91h43q79 0 133 -66.5t54 -166.5q0 -90 -59.5 -156.5t-143.5 -66.5q-85 0 -129 54l-4 5
q-54 -61 -135 -61q-62 0 -103 45q-37 -45 -119 -45q-67 0 -104 47q-35 40 -35 99q0 58 39 99q42 51 128 51q60 0 104 -48t44 -108q13 -40 54 -40q38 0 62.5 38t24.5 84q0 135 -130 135v96q56 6 97 -10.5t75 -55.5q57 -70 57 -160v-6zM420 523q-10 5 -28 5q-36 0 -66 -32
l-59 -69q-50 -48 -131 -48q-51 0 -83 32q-34 28 -34 76h99q0 -32 39 -32q35 0 66 43l53 77q39 43 103 43q24 0 41 -11v-84zM325 -117h-101v111h101v-111z" />
    <glyph glyph-name="uni0C19" unicode="&#xc19;" horiz-adv-x="576" 
d="M551 154q0 -65 -54 -116q-48 -45 -101 -45q-94 0 -116 55q-3 -20 -31 -39q-34 -18 -79 -18q-57 0 -100 35q-50 39 -50 105q0 124 108 149q78 16 78 54q0 15 -12 34q-9 13 -24 16q-18 0 -32 -17t-14 -31l3 -14h-109q0 47 25 88q38 64 124 64q77 0 113 -57h64v70h92v-68h67
v-91h-204q0 -44 -29.5 -73.5t-88.5 -46t-59 -67.5q0 -57 54 -57q22 0 49 18q6 5 14 17t10 27v33h95l1 -51q0 -12 16.5 -26t38.5 -17q23 0 41 17q20 23 20 50q0 50 -47 50q-22 0 -33 -3v95q100 0 128 -29q42 -44 42 -111z" />
    <glyph glyph-name="uni0C1A" unicode="&#xc1a;" horiz-adv-x="731" 
d="M524 447q64 -5 117 -58q65 -62 65 -167q0 -91 -55.5 -159.5t-143.5 -68.5q-93 0 -110 50q-40 -51 -120 -51q-65 0 -112.5 50t-47.5 116q0 47 22 68h-121v95h279v-75q-66 -15 -66 -73q0 -30 16 -56q19 -22 47 -22q55 0 55 75l-4 30h120l-4 -41q0 -72 55 -72q44 0 70 50
q19 41 19 87q0 97 -81 124q-45 12 -153 12h-16q-61 0 -103 37q-23 19 -34.5 49t-11.5 67h104q-3 -4 -3 -14q0 -26 23 -40q11 -5 36 -10h18q35 4 62 40l58 73q40 38 95 38q24 0 48 -11v-95q-10 16 -48 16q-27 0 -55 -38z" />
    <glyph glyph-name="uni0C1B" unicode="&#xc1b;" horiz-adv-x="731" 
d="M524 447q64 -5 117 -58q65 -62 65 -167q0 -91 -55.5 -159.5t-143.5 -68.5q-93 0 -110 50q-40 -51 -120 -51q-65 0 -112.5 50t-47.5 116q0 47 22 68h-121v95h279v-75q-66 -15 -66 -73q0 -30 16 -56q19 -22 47 -22q55 0 55 75l-4 30h120l-4 -41q0 -72 55 -72q44 0 70 50
q19 41 19 87q0 97 -81 124q-45 12 -153 12h-16q-61 0 -103 37q-23 19 -34.5 49t-11.5 67h104q-3 -4 -3 -14q0 -26 23 -40q11 -5 36 -10h18q35 4 62 40l58 73q40 38 95 38q24 0 48 -11v-95q-10 16 -48 16q-27 0 -55 -38zM444 -117h-100v111h100v-111z" />
    <glyph glyph-name="uni0C1C" unicode="&#xc1c;" horiz-adv-x="582" 
d="M556 131q0 -55 -41 -95.5t-115 -40.5q-69 -7 -113 49q-43 -51 -104 -51q-59 0 -106 42q-44 43 -44 102q0 68 50 96l89 32q50 16 50 56q0 43 -42 43q-52 0 -52 -68h-110q0 64 55 113t116 49t98 -41q4 -2 43 -72q24 -39 56 -39q21 0 37.5 12.5t16.5 31.5q0 40 -48 40
q-19 0 -31 -4l-17 -8v98q96 0 124 -10q81 -26 81 -109q0 -62 -54 -97q-44 -35 -102 -35q-48 0 -96 22q-10 -22 -87 -50q-62 -23 -62 -60q0 -20 15 -33t36 -15q61 0 66 71h96l-4 -23q0 -21 10.5 -36t34.5 -17q19 0 37 15q15 16 15 34q0 22 -5 27l-9 15h112q5 -23 4 -44z" />
    <glyph glyph-name="uni0C1D" unicode="&#xc1d;" horiz-adv-x="1090" 
d="M402 222q0 64 -41 99q-41 37 -101 37q-56 0 -95 -38q-40 -36 -40 -93q0 -60 36 -101q38 -36 93 -36q60 0 104 37.5t44 94.5zM772 -117h-103v111h103v-111zM497 175l17 -37q25 -47 74 -47q39 0 66.5 44t27.5 92q0 43 -24 83q-29 49 -80 49h-17l-19 -1v89h20l22 2
q74 0 131.5 -66.5t57.5 -169.5q0 -27 -4 -39q21 -83 111 -83q37 0 68 43.5t31 92.5q0 43 -25 83q-29 49 -80 49h-18l-19 -1v89h22l21 2q77 0 131 -66.5t54 -166.5q0 -93 -59.5 -158t-141.5 -65q-102 0 -146 74q-61 -74 -149 -74q-85 0 -133 54l-11 13q-78 -66 -174 -66
q-108 0 -170.5 68.5t-62.5 170.5q0 89 75 154q-50 40 -50 113h107q-5 -24 18 -37.5t50 -13.5l12 1q22 4 51 31l52 66q39 33 97 33q30 0 49 -16v-94q-23 17 -49 17q-42 0 -86 -45q53 -18 90 -56q68 -64 68 -164z" />
    <glyph glyph-name="uni0C1E" unicode="&#xc1e;" horiz-adv-x="869" 
d="M845 188h-111v-74h-120v74l-42 -8l-30 -50l67 -114l-85 -62l-67 99q-38 -32 -85 -46t-102 -14q-95 0 -146.5 29.5t-51.5 82.5q0 96 190 121l45 2q64 0 129 -37q25 32 25 77q0 39 -15 73q-18 37 -43 37q-27 0 -42.5 -23t-15.5 -50l2 -24h-117q0 90 -65 90q-35 0 -35 -44
q-3 -44 25 -61h-126q-11 34 -11 52q0 57 46.5 98.5t104.5 48.5q28 0 44 -1t27 -9l48 -29q27 26 42 32q26 11 67 11q76 0 128 -57q25 -27 36 -59t11 -74h39v69h111v-67h123v-93zM378 107q-47 39 -97 39q-24 0 -37 -3l-31 -9q-15 -3 -20 -14l-2 -9q0 -14 21 -25t59 -11
q15 -1 20 -1q44 0 87 33z" />
    <glyph glyph-name="uni0C1F" unicode="&#xc1f;" horiz-adv-x="642" 
d="M618 247q0 -96 -57.5 -172.5t-137.5 -76.5q-78 0 -111 62q-36 -67 -115 -67q-74 0 -126.5 70.5t-52.5 165.5q0 76 36.5 143.5t89.5 87.5v145h102v-136q14 -11 28 -21t19 -17q32 -40 32 -94q0 -58 -48 -99t-105 -41q-45 9 -60 39q0 -71 26.5 -108.5t64.5 -37.5
q30 0 50 30.5t20 60.5h99q0 -77 52 -77q37 0 66.5 42.5t29.5 94.5q0 43 -28 82q-31 40 -73 40l-37 -3v99q17 5 41 5q13 0 19 -1q89 -9 137 -82q39 -63 39 -134zM235 341q0 16 -12.5 28t-28.5 15q-13 0 -26 -13t-13 -30q0 -46 39 -46q15 0 27 13.5t14 32.5z" />
    <glyph glyph-name="uni0C20" unicode="&#xc20;" horiz-adv-x="526" 
d="M402 222q0 64 -41 99q-41 37 -101 37q-56 0 -95 -38q-40 -36 -40 -93q0 -60 36 -101q38 -36 93 -36q60 0 104 37.5t44 94.5zM43 500h107q-5 -24 18 -37.5t50 -13.5l12 1q22 4 51 31l52 66q39 33 97 33q30 0 49 -16v-94q-23 17 -49 17q-42 0 -86 -45q53 -18 90 -56
q68 -64 68 -164q0 -95 -77.5 -161.5t-173.5 -66.5q-108 0 -170.5 68.5t-62.5 170.5q0 89 75 154q-50 40 -50 113zM301 199q-12 -20 -40 -20q-12 0 -22 5q-20 11 -20 41q0 12 6 22q11 21 39 21q11 0 26 -9.5t15 -36.5q0 -12 -4 -23z" />
    <glyph glyph-name="uni0C21" unicode="&#xc21;" horiz-adv-x="577" 
d="M355 450h119v-81h-212q-73 0 -114 -47q-36 -43 -36 -111q0 -52 21.5 -87t59.5 -35q19 0 40 25q16 28 16 55l-3 19h101l-2 -21q0 -70 57 -70q24 0 44 25t20 51t-17 42q-12 14 -30 18q-35 0 -48 -11v101q21 6 43 6q35 0 63 -19q75 -46 75 -137q0 -87 -54 -140
q-48 -40 -115 -40q-55 0 -96 51q-38 -53 -115 -53q-71 0 -113 69q-19 31 -30 69t-11 78q0 108 58 171q23 24 54 41l-3 5q-46 39 -46 87l1 15h104l-3 -14q0 -48 53 -48q18 0 41 18l41 46q66 78 142 78q23 0 49 -13v-97q-16 18 -53 18q-41 0 -73 -33z" />
    <glyph glyph-name="uni0C22" unicode="&#xc22;" horiz-adv-x="577" 
d="M355 450h119v-81h-212q-73 0 -114 -47q-36 -43 -36 -111q0 -52 21.5 -87t59.5 -35q19 0 40 25q16 28 16 55l-3 19h101l-2 -21q0 -70 57 -70q24 0 44 25t20 51t-17 42q-12 14 -30 18q-35 0 -48 -11v101q21 6 43 6q35 0 63 -19q75 -46 75 -137q0 -87 -54 -140
q-48 -40 -115 -40q-55 0 -96 51q-38 -53 -115 -53q-71 0 -113 69q-19 31 -30 69t-11 78q0 108 58 171q23 24 54 41l-3 5q-46 39 -46 87l1 15h104l-3 -14q0 -48 53 -48q18 0 41 18l41 46q66 78 142 78q23 0 49 -13v-97q-16 18 -53 18q-41 0 -73 -33zM340 -117h-102v111h102
v-111z" />
    <glyph glyph-name="uni0C23" unicode="&#xc23;" horiz-adv-x="588" 
d="M563 222q0 -80 -33 -148q-46 -81 -132 -81q-56 0 -96 31.5t-40 87.5q0 58 34 94t92 36q67 0 82 -24q0 30 -4 53t-19 46q-21 43 -63 43q-45 0 -45 -52h-96q0 26 -24 49q-21 17 -41 17q-56 0 -56 -40q0 -17 14 -32t33 -15q12 0 22 5v-81l-11 1q-25 0 -45 -20
q-20 -22 -20 -48q0 -27 20.5 -41t46.5 -14q15 0 25 5v-93q-27 -7 -53 -7q-56 0 -97 34q-38 35 -38 89q0 94 51 121q-52 28 -52 84q0 63 49 97q47 34 110 34q59 0 104 -43q37 40 118 40q83 0 129 -77q35 -68 35 -151zM441 118q0 19 -13.5 35.5t-34.5 17.5q-15 0 -32 -16
q-14 -18 -14 -34q0 -48 50 -48q44 0 44 45z" />
    <glyph glyph-name="uni0C24" unicode="&#xc24;" horiz-adv-x="635" 
d="M188 234q0 36 -39 36q-15 0 -31 -10q-10 -13 -11 -26q0 -13 11.5 -22.5t30.5 -10.5q39 0 39 33zM487 257q0 13 -12 28t-29 15q-11 0 -23.5 -11t-14.5 -29q0 -37 34 -37q45 0 45 34zM287 364l-28 -1q-57 0 -103 35q-24 20 -34 48t-10 71h103q-3 -6 -3 -17q0 -24 23 -37
q10 -7 22.5 -10t23.5 -3q37 0 71 41l57 72q40 40 95 40q24 0 48 -12v-95q-10 16 -48 16q-28 0 -55 -39l-21 -28q43 -9 79 -39q43 -35 53 -74q50 -49 50 -114q0 -101 -102 -165q-94 -59 -210 -59q-115 0 -196 59q-84 64 -84 157q0 50 31 85q38 48 112 48q48 0 78.5 -27
t30.5 -73q0 -42 -29 -72t-64 -30q-26 0 -49 16q4 -16 27 -34q17 -12 33 -21q56 -28 120 -28q67 0 106 20q49 21 95 77q-25 -13 -47 -20.5t-38 -7.5q-43 0 -74 29t-31 67q0 45 33 78q14 15 34.5 20.5t46.5 5.5q-23 14 -61 17z" />
    <glyph glyph-name="uni0C25" unicode="&#xc25;" horiz-adv-x="579" 
d="M461 222q0 28 -10 53.5t-28 46.5q-48 51 -130 51q-60 0 -117.5 -52.5t-57.5 -131.5q0 -34 16 -63t48 -29q54 0 54 102h99l-4 -40q11 -65 55 -65q34 0 50 29.5t20.5 52.5t4.5 46zM124 400q-21 17 -29.5 43.5t-8.5 63.5h102l-3 -16q0 -41 55 -41q30 0 61 26l45 48
q22 27 36 34q28 13 75 13q41 0 58 -11v-90q-8 3 -19.5 4.5t-35.5 1.5q-44 0 -93 -37q72 -13 117 -57q71 -61 71 -176q0 -88 -53 -150.5t-137 -62.5q-40 0 -82 51q-45 -53 -103 -53q-69 0 -115.5 60t-46.5 144q0 121 84 189zM324 242q-11 -19 -38 -19q-14 0 -24 5
q-19 11 -19 40q0 12 8.5 27t36.5 15q13 0 22 -5q19 -11 19 -40q0 -13 -5 -23zM326 -117h-101v111h101v-111z" />
    <glyph glyph-name="uni0C26" unicode="&#xc26;" horiz-adv-x="579" 
d="M461 222q0 28 -10 53.5t-28 46.5q-48 51 -130 51q-60 0 -117.5 -52.5t-57.5 -131.5q0 -34 16 -63t48 -29q54 0 54 102h99l-4 -40q11 -65 55 -65q34 0 50 29.5t20.5 52.5t4.5 46zM124 400q-21 17 -29.5 43.5t-8.5 63.5h102l-3 -16q0 -41 55 -41q30 0 61 26l45 48
q22 27 36 34q28 13 75 13q41 0 58 -11v-90q-8 3 -19.5 4.5t-35.5 1.5q-44 0 -93 -37q72 -13 117 -57q71 -61 71 -176q0 -88 -53 -150.5t-137 -62.5q-40 0 -82 51q-45 -53 -103 -53q-69 0 -115.5 60t-46.5 144q0 121 84 189z" />
    <glyph glyph-name="uni0C27" unicode="&#xc27;" horiz-adv-x="579" 
d="M461 222q0 28 -10 53.5t-28 46.5q-48 51 -130 51q-60 0 -117.5 -52.5t-57.5 -131.5q0 -34 16 -63t48 -29q54 0 54 102h99l-4 -40q11 -65 55 -65q34 0 50 29.5t20.5 52.5t4.5 46zM124 400q-21 17 -29.5 43.5t-8.5 63.5h102l-3 -16q0 -41 55 -41q30 0 61 26l45 48
q22 27 36 34q28 13 75 13q41 0 58 -11v-90q-8 3 -19.5 4.5t-35.5 1.5q-44 0 -93 -37q72 -13 117 -57q71 -61 71 -176q0 -88 -53 -150.5t-137 -62.5q-40 0 -82 51q-45 -53 -103 -53q-69 0 -115.5 60t-46.5 144q0 121 84 189zM326 -117h-101v111h101v-111z" />
    <glyph glyph-name="uni0C28" unicode="&#xc28;" horiz-adv-x="590" 
d="M566 225q0 -102 -69 -172q-62 -62 -141 -62q-57 0 -97.5 37t-40.5 98l1 26l4 28q0 45 -35 45q-31 0 -47 -23t-16 -54q0 -73 90 -147h-121q-18 9 -40 43q-29 41 -29 87q0 76 45 125.5t122 49.5q125 0 125 -154q0 -59 50 -59q40 0 68 43t28 79q0 135 -139 135l-65 -2
l-55 -3q-186 0 -186 152h96q-3 -21 16.5 -42.5t45.5 -21.5q43 0 71 37l58 75q44 37 115 37h51v-105q-20 10 -51 10q-61 0 -95 -54l34 4q76 0 120 -37q87 -69 87 -175z" />
    <glyph glyph-name="uni0C2A" unicode="&#xc2a;" horiz-adv-x="598" 
d="M573 218q0 -92 -55 -159.5t-139 -67.5q-62 0 -103 45q-37 -45 -119 -45q-67 0 -104 47q-35 40 -35 99q0 58 39 99q42 51 128 51q60 0 104 -48t44 -108q13 -40 54 -40q38 0 62.5 38t24.5 84q0 135 -130 135v102q56 0 97 -16.5t75 -55.5q57 -70 57 -160zM231 141
q0 23 -18 39q-14 19 -41 19q-54 0 -54 -62q0 -54 54 -54q25 0 42 16t17 42zM420 523q-10 5 -28 5q-36 0 -66 -32l-59 -69q-50 -48 -131 -48q-51 0 -83 32q-34 28 -34 76h99q0 -32 39 -32q35 0 66 43l53 77q39 43 103 43q24 0 41 -11v-84z" />
    <glyph glyph-name="uni0C2B" unicode="&#xc2b;" horiz-adv-x="598" 
d="M573 218q0 -92 -55 -159.5t-139 -67.5q-62 0 -103 45q-37 -45 -119 -45q-67 0 -104 47q-35 40 -35 99q0 58 39 99q42 51 128 51q60 0 104 -48t44 -108q13 -40 54 -40q38 0 62.5 38t24.5 84q0 135 -130 135v102q56 0 97 -16.5t75 -55.5q57 -70 57 -160zM231 141
q0 23 -18 39q-14 19 -41 19q-54 0 -54 -62q0 -54 54 -54q25 0 42 16t17 42zM325 -116h-101v110h101v-110zM420 523q-10 5 -28 5q-36 0 -66 -32l-59 -69q-50 -48 -131 -48q-51 0 -83 32q-34 28 -34 76h99q0 -32 39 -32q35 0 66 43l53 77q39 43 103 43q24 0 41 -11v-84z" />
    <glyph glyph-name="uni0C2C" unicode="&#xc2c;" horiz-adv-x="603" 
d="M578 216q0 -95 -60.5 -157.5t-152.5 -62.5q-26 0 -47 13q-4 1 -34 33q-51 -48 -123 -48q-68 0 -104 42q-37 36 -37 95q0 102 114 139l48 14q22 11 22 36q0 39 -43 39q-59 0 -59 -59h-84q0 147 149 147q57 0 92 -34t35 -91q0 -58 -45 -90l-84 -37q-45 -21 -45 -58
q0 -19 15.5 -33.5t42.5 -14.5q47 0 57 42q1 7 1 23q0 6 -2 17h99v-23q0 -27 26 -43q19 -12 40 -15q38 0 65 44t27 93q0 43 -26 81q-32 46 -78 46q-16 0 -36 -9v99l41 3q79 0 132.5 -64.5t53.5 -166.5z" />
    <glyph glyph-name="uni0C2D" unicode="&#xc2d;" horiz-adv-x="618" 
d="M471 431q32 -21 54 -49q53 -65 53 -166q0 -95 -60.5 -157.5t-152.5 -62.5q-26 0 -47 13q-4 1 -34 33q-51 -48 -123 -48q-68 0 -104 42q-37 36 -37 95q0 102 114 139l48 14q22 11 22 36q0 39 -43 39q-59 0 -59 -59h-84q0 147 149 147q57 0 92 -34t35 -91q0 -58 -45 -90
l-84 -37q-45 -21 -45 -58q0 -19 15.5 -33.5t42.5 -14.5q47 0 57 42q1 7 1 23q0 6 -2 17h99v-23q0 -27 26 -43q19 -12 40 -15q38 0 65 44t27 93q0 88 -68 132q-20 15 -62 19l-10 3q-34 4 -58 31q-31 32 -31 91v7h90l-1 -9l-2 -6q0 -16 10.5 -29t27.5 -13q13 -1 36 26
q16 22 27.5 34.5t20.5 21.5q34 31 78 31q17 0 40 -11l4 -5v-71q-6 -6 -9 -6l-19 11q-3 1 -21 6q-24 0 -50 -35zM326 -117h-101v111h101v-111z" />
    <glyph glyph-name="uni0C2E" unicode="&#xc2e;" horiz-adv-x="842" 
d="M230 141q0 66 -52 66q-63 0 -63 -55q0 -64 54 -64q22 0 41.5 15t19.5 38zM552 171l10 -27q25 -53 74 -53q37 0 65 44t28 92q0 43 -23 83q-32 49 -79 49l-38 -1v89l42 2q79 0 132.5 -65.5t53.5 -167.5q0 -91 -60 -157t-142 -66q-78 0 -124 46l-3 -2q-53 -47 -134 -47
q-63 0 -95 46q-30 -43 -100 -43q-51 0 -89 37q-51 40 -51 116q0 63 46.5 104.5t110.5 41.5q63 0 108.5 -40.5t45.5 -123.5q17 -34 38 -34q40 0 64 37t24 79q0 63 -43 105q-42 42 -105 42q-24 0 -70 -8t-72 -8q-64 0 -107 41q-24 21 -32.5 48.5t-8.5 66.5h100
q-3 -21 11 -40.5t42 -19.5q39 0 79 42l69 82q47 44 107 44q28 0 39 -5v-108q-30 18 -49 19q-55 0 -87 -64q223 0 223 -264v-12z" />
    <glyph glyph-name="uni0C2F" unicode="&#xc2f;" horiz-adv-x="1138" 
d="M408 222q0 64 -43.5 101.5t-104.5 37.5q-54 0 -96 -38.5t-42 -95.5q0 -63 35 -104q41 -37 97 -37q64 0 107 39q47 37 47 97zM836 184q6 -16 13.5 -27t7.5 -13q26 -53 74 -53q38 0 67 46q25 38 25 90q0 47 -23 83q-30 49 -78 49l-37 -1v89l41 2q79 0 133.5 -66.5
t54.5 -166.5q0 -93 -60 -158t-143 -65q-85 0 -131 54l-4 6q-58 -60 -139 -60q-119 0 -180 107q-78 -106 -206 -106q-108 0 -170.5 68.5t-62.5 170.5q0 89 76.5 154.5t172.5 65.5q95 0 162 -63q36 -33 54.5 -71.5t18.5 -82.5q32 -77 55 -104q33 -41 84 -41q49 0 80 46
q29 37 29 90q0 47 -25 83q-27 48 -80 48l-88 2h-8q-57 0 -102 36q-24 20 -34.5 47.5t-10.5 69.5h103q-2 -5 -2 -16q0 -24 23 -37t46 -13q37 0 70 40l58 73q37 40 94 40q23 0 49 -12v-95q-11 17 -49 17q-28 0 -55 -40l-26 -33q40 -19 70 -56q54 -65 54 -165z" />
    <glyph glyph-name="uni0C30" unicode="&#xc30;" horiz-adv-x="526" 
d="M402 222q0 64 -41 99q-41 37 -101 37q-56 0 -95 -38q-40 -36 -40 -93q0 -60 36 -101q38 -36 93 -36q60 0 104 37.5t44 94.5zM43 500h107q-5 -24 18 -37.5t50 -13.5l12 1q22 4 51 31l52 66q39 33 97 33q30 0 49 -16v-94q-23 17 -49 17q-42 0 -86 -45q53 -18 90 -56
q68 -64 68 -164q0 -95 -77.5 -161.5t-173.5 -66.5q-108 0 -170.5 68.5t-62.5 170.5q0 89 75 154q-50 40 -50 113z" />
    <glyph glyph-name="uni0C31" unicode="&#xc31;" horiz-adv-x="634" 
d="M609 213q0 -88 -49 -151q-53 -68 -136 -68q-78 0 -126 54q-17 -54 -123 -54q-68 0 -112.5 56.5t-44.5 135.5q0 101 37 177q44 92 130 92q39 0 71 -27.5t32 -66.5q0 -60 -32 -98h62q-11 29 -11 55q0 57 36 94.5t93 37.5q85 0 135 -75q38 -65 38 -162zM515 234q0 46 -21 82
q-23 44 -64 44q-37 0 -37 -39q0 -41 46 -56v-94h-257v47q-6 -5 -15.5 -6t-12.5 -1q-13 0 -25 9l-5 -36q0 -40 19 -74.5t59 -34.5q55 0 55 72h108v-20q0 -42 50 -42q51 0 77 47q23 42 23 102zM213 334q0 40 -33 40q-36 0 -36 -40q0 -38 36 -38q33 0 33 38z" />
    <glyph glyph-name="uni0C32" unicode="&#xc32;" horiz-adv-x="581" 
d="M556 229q0 -112 -82 -175.5t-188 -63.5q-134 0 -204 77q-64 67 -64 176q0 88 43 147q24 29 56 43t77 14q49 0 77 -36q31 -33 31 -82q0 -55 -34.5 -91t-86.5 -36q-38 0 -67 25q0 -28 6 -47q12 -37 49 -63q48 -31 115 -31q72 0 124 31q59 40 59 110q0 79 -32 105t-81 27v83
q33 11 67.5 -2.5t62.5 -38.5q72 -59 72 -172zM218 328q0 16 -11 33q-13 17 -27 17q-24 0 -34 -9.5t-12 -34.5q0 -51 38 -51q41 0 46 45z" />
    <glyph glyph-name="uni0C33" unicode="&#xc33;" horiz-adv-x="590" 
d="M372 146q0 46 -100 46q-26 0 -36.5 -1.5t-28.5 -10.5q-35 -15 -35 -46q0 -61 95 -61q40 0 67 18q38 20 38 55zM161 361q0 15 -10.5 25t-25.5 10q-32 -5 -32 -39q0 -30 36 -30q37 4 32 34zM331 381l-11 -2q-50 0 -85.5 33t-35.5 81l3 17v2h99v-4l-2 -21q0 -33 30 -33
q18 0 73 59q35 45 58 59q28 21 60 21q24 0 46 -8v-98q-16 19 -48 19q-15 0 -27 -11q-3 -3 -25 -27l-22 -24q22 -8 37.5 -33.5t15.5 -65.5q0 -54 -77 -107q34 -25 34 -86q0 -48 -31 -89q-25 -35 -65.5 -53.5t-98.5 -18.5q-77 0 -126.5 36t-49.5 107q0 61 52 95q-47 9 -78 41
q-39 35 -39 90q0 103 109 103q44 0 70 -24t26 -63q0 -31 -7 -46t-40 -39q41 -25 104 -25q40 0 90 22t50 53q0 40 -53 40h-36z" />
    <glyph glyph-name="uni0C34" unicode="&#xc34;" horiz-adv-x="627" 
d="M213 334q0 40 -33 40q-36 0 -36 -40q0 -38 36 -38q33 0 33 38zM441 296q36 0 36 38q0 40 -36 40q-33 0 -33 -40q0 -38 33 -38zM312 63q-31 -69 -137 -69q-68 0 -112.5 56.5t-44.5 135.5q0 101 37 177q44 92 130 92q39 0 71 -27.5t32 -66.5q0 -60 -27 -97.5t-63.5 -45
t-68.5 1.5q-21 -53 6 -99t67 -46q55 0 55 72h108q0 -72 55 -72q40 0 67 46t5 99q-31 -9 -68 -1.5t-64 45t-27 97.5q0 39 32 66.5t71 27.5q85 0 130 -92q37 -76 37 -177q0 -79 -44 -135.5t-112 -56.5q-107 0 -135 69z" />
    <glyph glyph-name="uni0C35" unicode="&#xc35;" horiz-adv-x="577" 
d="M552 183q0 -87 -64 -146q-53 -47 -134 -47q-63 0 -95 46q-30 -43 -100 -43q-51 0 -89 37q-51 40 -51 116q0 63 46.5 104.5t110.5 41.5q63 0 108.5 -40.5t45.5 -123.5q17 -34 38 -34q40 0 64 37t24 79q0 63 -43 105q-42 42 -105 42q-24 0 -70 -8t-72 -8q-64 0 -107 41
q-24 21 -32.5 48.5t-8.5 66.5h100q-3 -21 11 -40.5t42 -19.5q39 0 79 42l69 82q47 44 107 44q28 0 39 -5v-108q-30 18 -49 19q-55 0 -87 -64q223 0 223 -264zM230 141q0 66 -52 66q-63 0 -63 -55q0 -64 54 -64q22 0 41.5 15t19.5 38z" />
    <glyph glyph-name="uni0C36" unicode="&#xc36;" horiz-adv-x="556" 
d="M423 160q0 32 -26 56.5t-55 24.5q-35 0 -58 -23.5t-23 -57.5t26 -57.5t57 -23.5q79 0 79 81zM298 381l-23 -2q-50 0 -85 33t-35 81v17l2 2h95l4 -4l-2 -21q0 -33 30 -33q20 0 72 59q60 73 127 73q25 0 48 -11v-96q-17 17 -50 17q-34 0 -60 -28l-16 -18h20q35 0 64 -30.5
t29 -67.5q0 -20 -15 -44l-29 -33q5 -10 14.5 -24t15.5 -22q19 -29 19 -69q0 -75 -54 -122t-135 -47q-88 0 -138 51q-41 44 -41 106q0 47 36 99q-78 0 -78 -92q0 -35 16 -55h-101q-10 15 -10 51q0 86 74 131t200 45l39 2h36q15 -1 22 -3t19 -8q17 5 18 26q0 37 -47 37h-81z
" />
    <glyph glyph-name="uni0C37" unicode="&#xc37;" horiz-adv-x="635" 
d="M610 -99q-34 -19 -63 -31.5t-47 -12.5q-39 32 -39 115v27q4 16 5 22l-38 -19q-26 -11 -61 -11q-75 0 -100 51q-36 -48 -100 -48q-65 0 -107 47.5t-42 106.5q0 68 45.5 114t119.5 46q79 0 121 -70q14 -22 24.5 -50.5t10.5 -56.5q17 -37 49 -37q31 0 59 37q27 38 27 80
q0 48 -19 80q-25 43 -66 43h-33v105q11 5 42 5q73 0 118 -58q50 -68 50 -195v-48q-4 -26 -5 -38q-5 -46 -5.5 -54t-0.5 -32q0 -98 55 -118zM229 157q0 58 -49 58q-55 0 -55 -61q0 -57 55 -57q12 0 30.5 20t18.5 40zM423 523q-10 5 -27 5q-37 0 -67 -32l-58 -69
q-52 -48 -132 -48q-52 0 -84 32q-33 28 -33 76h100q0 -32 39 -32q33 0 64 43l55 77q38 43 102 43q25 0 41 -11v-84z" />
    <glyph glyph-name="uni0C38" unicode="&#xc38;" horiz-adv-x="603" 
d="M578 225q0 -79 -41 -142q-55 -93 -159 -93q-84 0 -119 54q-9 15 -34 102q-17 54 -55 54q-45 0 -45 -63q0 -47 26 -84l43 -59h-122q-54 69 -54 132q0 69 37 116q43 54 133 54q68 0 105 -53l40 -97q21 -55 55 -55q35 0 67 37q13 19 21 41t8 49q0 47 -31.5 85.5t-74.5 38.5
l-24 -5v107q107 0 165.5 -61t58.5 -158zM420 523q-10 5 -28 5q-36 0 -66 -32l-59 -69q-50 -48 -131 -48q-51 0 -83 32q-34 28 -34 76h99q0 -32 39 -32q35 0 66 43l53 77q39 43 103 43q24 0 41 -11v-84z" />
    <glyph glyph-name="uni0C39" unicode="&#xc39;" horiz-adv-x="926" 
d="M421 523q-9 5 -28 5q-36 0 -65 -32l-58 -69q-52 -48 -132 -48q-52 0 -84 32q-34 28 -34 76h100q0 -32 39 -32q34 0 65 43l53 77q40 43 104 43q24 0 40 -11v-84zM787 207q0 36 -41 36q-45 0 -45 -38q0 -45 41 -45q45 0 45 47zM231 141q0 23 -17 40.5t-42 17.5
q-55 0 -55 -62q0 -54 55 -54q25 0 42 16t17 42zM534 363q21 -34 30.5 -74t9.5 -95q0 -71 -54 -134q-58 -69 -149 -69q-57 0 -95 45q-40 -45 -120 -45q-68 0 -106 47q-32 40 -32 99q0 60 38 99q45 51 127 51q61 0 105.5 -48t44.5 -108q11 -34 49 -34h14q28 0 55 36t27 80
q0 39 -24 89q-33 61 -78 61h-35v89h257q157 0 189 -13q114 -44 114 -191q0 -69 -49 -126.5t-123 -57.5q-51 0 -88.5 37t-37.5 87q0 62 37.5 100.5t107.5 38.5l45 -5q-21 26 -58 33.5t-124 7.5h-77z" />
    <glyph glyph-name="uni0C3D" unicode="&#xc3d;" horiz-adv-x="808" 
d="M32 389q0 54 54 87q55 34 147 34q108 0 174 -51q64 -49 64 -131q0 -68 -74 -116q-76 -48 -180 -48q-35 0 -60 -13q-23 -14 -23 -34q0 -15 17 -24q18 -10 42 -10h590v-89h-605q-66 0 -112 36q-48 33 -48 82q0 55 56 93q56 36 135 36q68 0 116 25t48 62q0 22 -14 43
q-14 20 -40 31q9 -47 -36 -84q-47 -38 -113 -38q-57 0 -98 31q-40 33 -40 78v0zM231 395q0 17 -13 29q-14 14 -32 14q-21 0 -37 -14q-15 -12 -15 -29q0 -19 15 -32q16 -13 37 -13q18 0 32 13q13 13 13 32v0z" />
    <glyph glyph-name="uni0C3E" unicode="&#xc3e;" horiz-adv-x="689" 
d="M338 194q0 59 45 98q43 39 107 39q30 0 56 -15q21 -14 29 -29q0 46 -40 71q-37 23 -88 23h-697v98h702q100 0 162 -76q50 -62 50 -138q0 -96 -37 -150q-42 -64 -132 -64q-76 0 -119 49q-38 41 -38 94v0zM549 205q-1 23 -18 37q-14 13 -35 13q-22 0 -37 -17
q-12 -15 -12 -36q0 -22 17 -35q18 -13 37 -13q23 0 36 16q12 14 12 35v0z" />
    <glyph glyph-name="uni0C3F" unicode="&#xc3f;" 
d="M202 563q0 -63 -55 -116q-58 -58 -145 -58q-56 0 -99 14q-44 14 -69 42l48 65q21 -23 54 -34q30 -10 73 -10q41 0 74 32q36 33 36 70q0 23 -10 44q-10 20 -29 30q0 -2 1 -8q1 -5 1 -7q0 -51 -44 -79q-36 -24 -77 -24q-59 0 -90 35q-28 27 -28 70q0 38 37 69q47 40 119 40
q103 0 157 -55q46 -48 46 -120v0zM-70 628q0 -14 13 -25q13 -12 30 -12q21 0 35 12q11 11 11 25q0 16 -11 27q-14 14 -35 14q-17 0 -30 -14q-13 -12 -13 -27v0z" />
    <glyph glyph-name="uni0C40" unicode="&#xc40;" 
d="M195 564q0 -72 -58 -122q-58 -52 -142 -52q-56 0 -100 15q-43 13 -68 42l48 64q20 -20 54 -32q32 -11 73 -11t74 32q36 32 36 69q0 23 -11 44q-9 19 -28 30q0 -3 1 -8t1 -7q0 -42 -33 -73q-37 -29 -88 -29q-54 0 -86 28t-32 76q0 34 29 63q29 30 74 41q-8 19 -8 44
q0 46 34 76q38 29 100 29q65 0 101 -32q32 -33 32 -97h-90q0 24 -12 41q-14 16 -31 16q-23 0 -37 -14q-12 -14 -12 -39q0 -3 2 -8q1 -5 6 -12q73 -9 124 -57q47 -51 47 -117v0zM-77 629q0 -15 13 -24q12 -13 29 -13q20 0 30 11q11 10 11 26q0 17 -11 29q-10 12 -30 12
q-17 0 -29 -12q-13 -13 -13 -29v0z" />
    <glyph glyph-name="uni0C41" unicode="&#xc41;" horiz-adv-x="284" 
d="M259 225q0 -100 -52 -163q-55 -69 -155 -69q-91 0 -138 56q-29 35 -36 77q0 60 39 83l4 2h15q4 -47 38 -81q34 -31 79 -31q51 0 83 39q31 37 31 91t-27 95q-34 50 -88 50q-17 0 -30 -1v92l42 1q84 0 140 -66q55 -68 55 -175v0z" />
    <glyph glyph-name="uni0C42" unicode="&#xc42;" horiz-adv-x="641" 
d="M259 225q0 -100 -52 -163q-55 -69 -155 -69q-93 0 -139 55q-35 40 -35 78q0 44 14 66q8 15 29 26q8 5 15 7q5 0 7 -2q3 -1 3 -3q0 -55 27 -88q28 -33 86 -33q51 0 81 43q27 39 27 95q0 53 -24 91q-31 46 -85 46q-23 0 -36 -1v93h384q100 0 160 -69q52 -60 52 -133
q0 -94 -40 -150q-46 -65 -129 -65q-75 0 -119 50q-36 39 -36 93q0 60 43 99q43 38 106 38q28 0 57 -18q21 -11 28 -25q0 46 -41 71q-35 21 -85 21h-185q42 -67 42 -153v0zM501 202q0 21 -18 37q-17 14 -33 14q-25 0 -41 -15q-18 -15 -18 -38q0 -22 20 -36q20 -12 39 -12
q24 0 37 12q14 14 14 38v0z" />
    <glyph glyph-name="uni0C43" unicode="&#xc43;" horiz-adv-x="339" 
d="M330 -17q25 -120 -33 -196t-126.5 -84t-132.5 24q-69 37 -85 114q-10 44 19 91.5t85 60.5q46 9 78 -13q15 -11 25 -24t14 -32q16 -79 -64 -126q28 -9 53 -5q49 11 71 66t5 132q-15 69 -58 103q-32 26 -68 18q-12 -2 -18 -7v96q70 15 137 -37q72 -62 98 -181zM100 -101
q-6 26 -35 18q-27 -6 -20 -32q5 -26 32 -22q29 7 23 36z" />
    <glyph glyph-name="uni0C44" unicode="&#xc44;" horiz-adv-x="604" 
d="M508 10q0 32 -32 32q-36 0 -36 -35q0 -33 33 -33q35 0 35 36zM102 -101q-5 26 -34 18q-27 -6 -21 -32q7 -26 34 -22q28 7 21 36zM156 205h202q129 0 150 -9q92 -37 92 -152q0 -55 -40 -100.5t-97 -45.5q-39 0 -71 27q-30 31 -30 70q0 51 30.5 80.5t84.5 29.5l38 -4
q-18 24 -46 28.5t-100 4.5h-91q-5 -1 -8 -1q46 -57 67 -149q25 -118 -35 -194t-125 -79q-68 -14 -132 19q-69 36 -85 112q-10 44 19 91.5t85 60.5q46 10 78 -13q14 -11 24 -24t15 -32q16 -79 -66 -126q29 -9 53 -5q50 11 72 66t6 133q-15 69 -58 103q-32 25 -68 18
q-12 -3 -18 -8v96q27 7 54 3z" />
    <glyph glyph-name="uni0C46" unicode="&#xc46;" 
d="M230 519q0 -56 -42 -97t-110 -41h-212v85h201q26 0 43 11q23 15 23 36q0 26 -18 37q-13 8 -45 8h-315v84h360q48 0 82 -34q33 -34 33 -89v0z" />
    <glyph glyph-name="uni0C47" unicode="&#xc47;" 
d="M228 517q0 -52 -37 -93q-42 -43 -109 -43h-216v85h209q22 0 37 10q17 14 17 35q0 26 -17 37q-11 7 -42 7h-316v85h301l-1 37q0 52 49 87q45 33 95 33q72 0 112 -42q40 -44 40 -127h-103v26q0 17 -8 32q-14 23 -41 23q-23 0 -37 -14q-15 -15 -15 -40l2 -20q35 -12 56 -43
q24 -31 24 -75v0z" />
    <glyph glyph-name="uni0C48" unicode="&#xc48;" horiz-adv-x="724" 
d="M668 519q0 -55 -42 -92q-43 -37 -111 -37h-212v84h210q26 0 39 7q18 10 18 31q0 26 -16 37q-15 9 -45 9h-455v84h500q47 0 80 -34q34 -34 34 -89v0zM668 -308h-473q-56 0 -95 33q-42 38 -42 92q0 44 40 77q37 32 86 32q44 0 75 -30q31 -28 31 -70q0 -27 -10 -46h388v-88
v0zM205 -183q0 12 -10 19q-8 7 -19 7q-12 0 -22 -7q-7 -7 -7 -19t12 -22q12 -8 25 -8q9 0 17 11q4 6 4 19v0z" />
    <glyph glyph-name="uni0C4A" unicode="&#xc4a;" horiz-adv-x="682" 
d="M338 305q0 60 40 98q41 39 104 39q23 0 45 -6q24 -10 34 -21q0 44 -33 76q-29 28 -67 28q-39 0 -68 -23q-30 -26 -30 -63h-103q0 58 -54 98q-53 40 -127 40q-55 0 -95 -16q-37 -17 -37 -38q0 -20 9 -32q11 -14 40 -19h25v-85h-35q-71 9 -109 57q-32 38 -32 76
q0 60 68 100q66 41 163 41q90 0 158 -28q66 -29 91 -78q20 32 59 51q35 17 74 17q109 0 162 -96q37 -66 37 -140q0 -97 -38 -153q-42 -64 -134 -64q-75 0 -114 47q-33 38 -33 94v0zM541 315q-1 23 -17 37q-15 12 -36 12t-36 -16q-14 -15 -14 -37q0 -21 19 -35q15 -12 37 -12
q23 0 34 15q13 15 13 36v0z" />
    <glyph glyph-name="uni0C4B" unicode="&#xc4b;" horiz-adv-x="713" 
d="M340 305q0 56 41 96q42 41 102 41q25 0 46 -6q20 -9 33 -21q0 43 -29 75q-30 29 -71 29q-40 0 -68 -24q-29 -26 -29 -62h-105q0 58 -65 98t-157 40q-40 0 -69 -16q-29 -17 -29 -38q0 -17 14 -33q14 -14 35 -18h33v-85h-57q-55 8 -90 45q-37 39 -37 88q0 60 57 100
q59 41 138 41q108 0 189 -28q79 -29 105 -78q13 22 35 38q21 18 51 25q-9 10 -14 27q-5 16 -5 37q0 51 41 86q42 35 103 35q70 0 111 -39q39 -37 39 -110h-104q0 27 -13 45q-15 18 -33 18q-25 0 -39 -15q-13 -14 -13 -41q0 -7 11 -36l4 -7q70 -19 112 -84q44 -63 44 -147
q0 -100 -47 -158q-44 -59 -123 -59q-62 0 -105 42q-42 41 -42 99v0zM542 315q-1 21 -16 34q-14 15 -37 15q-19 0 -33 -15q-17 -15 -17 -38q0 -19 18 -33q15 -14 37 -14q21 0 35 15q13 13 13 36v0z" />
    <glyph glyph-name="uni0C4C" unicode="&#xc4c;" horiz-adv-x="693" 
d="M338 338q0 60 45 95q41 33 105 33q33 0 57 -10q21 -9 31 -23q-11 52 -45 86q-36 35 -80 35h-252q11 -6 16 -26q8 -16 8 -37q0 -47 -31 -79q-33 -31 -78 -31h-266v85h239q15 0 26 11q11 13 11 29q0 11 -6 21q-5 11 -17 21h-310v98h669q98 0 158 -82q50 -69 50 -148
q0 -88 -39 -148q-47 -71 -136 -71q-76 0 -118 49q-37 40 -37 92v0zM547 349q-1 25 -18 36q-14 10 -35 10q-22 0 -36 -14q-14 -13 -14 -34q0 -23 19 -37q15 -13 36 -13q24 0 36 19q12 13 12 33v0z" />
    <glyph glyph-name="uni0C4D" unicode="&#xc4d;" horiz-adv-x="1" 
d="M266 683h-324q-15 0 -29 -9q-13 -11 -13 -26t14 -26q13 -8 28 -8h202v-90h-188q-12 0 -24 -10q-9 -7 -9 -18q0 -15 9 -23q10 -7 21 -7h177v-85h-213q-45 0 -74 29q-33 30 -33 71q0 19 17 43q16 27 34 35q-26 12 -45 32q-25 30 -25 64q0 49 35 86q33 36 85 36h355v-94v0z
" />
    <glyph glyph-name="uni0C55" unicode="&#xc55;" horiz-adv-x="255" 
d="M21 628q-19 26 -21 69q0 48 38 86q37 37 88 37q42 0 75 -16q43 -21 54 -60l-65 -56q-2 15 -17 26q-14 13 -30 13q-26 0 -38 -14q-11 -11 -11 -32q0 -9 2 -22q3 -11 8 -16l-83 -15v0z" />
    <glyph glyph-name="uni0C56" unicode="&#xc56;" 
d="M539 -308h-402q-57 0 -95 33q-42 37 -42 92q0 44 39 77q39 32 86 32q45 0 75 -30q31 -27 31 -70q0 -14 -2 -23q-2 -14 -8 -23h318v-88v0zM147 -183q0 12 -10 19q-7 7 -19 7t-22 -7q-11 -7 -11 -19t15 -22q11 -8 25 -8q11 0 16 11q6 6 6 19v0zM109 -301z" />
    <glyph glyph-name="uni0C58" unicode="&#xc58;" horiz-adv-x="731" 
d="M524 447q64 -5 117 -58q65 -62 65 -167q0 -91 -55.5 -159.5t-143.5 -68.5q-93 0 -110 50q-40 -51 -120 -51q-65 0 -112.5 50t-47.5 116q0 47 22 68h-121v95h279v-75q-66 -15 -66 -73q0 -30 16 -56q19 -22 47 -22q55 0 55 75l-4 30h120l-4 -41q0 -72 55 -72q44 0 70 50
q19 41 19 87q0 97 -81 124q-45 12 -153 12h-16q-61 0 -103 37q-23 19 -34.5 49t-11.5 67h104q-3 -4 -3 -14q0 -26 23 -40q11 -5 36 -10h18q35 4 62 40l58 73q40 38 95 38q24 0 48 -11v-95q-10 16 -48 16q-27 0 -55 -38zM641 748q0 -51 -39 -83.5t-91 -32.5h-417v77h347
q-15 20 -15 46q0 38 29 66t68 28q46 0 82 -31.5t36 -69.5zM565 748q0 30 -31 30t-31 -30q0 -35 20 -35q18 0 29 11q13 8 13 24z" />
    <glyph glyph-name="uni0C59" unicode="&#xc59;" horiz-adv-x="598" 
d="M573 666q0 -50 -39 -83t-90 -33h-417v78h346q-14 20 -14 46q0 38 28.5 65.5t67.5 27.5q47 0 82.5 -31.5t35.5 -69.5zM497 666q0 31 -31 31t-31 -31q0 -34 20 -34q18 0 29 11q13 7 13 23zM556 131q0 -55 -41 -95.5t-115 -40.5q-69 -7 -113 49q-43 -51 -104 -51
q-59 0 -106 42q-44 43 -44 102q0 68 50 96l89 32q50 16 50 56q0 43 -42 43q-52 0 -52 -68h-110q0 64 55 113t116 49t98 -41q4 -2 43 -72q24 -39 56 -39q21 0 37.5 12.5t16.5 31.5q0 40 -48 40q-19 0 -31 -4l-17 -8v98q96 0 124 -10q81 -26 81 -109q0 -62 -54 -97
q-44 -35 -102 -35q-48 0 -96 22q-10 -22 -87 -50q-62 -23 -62 -60q0 -20 15 -33t36 -15q61 0 66 71h96l-4 -23q0 -21 10.5 -36t34.5 -17q19 0 37 15q15 16 15 34q0 22 -5 27l-9 15h112q5 -23 4 -44z" />
    <glyph glyph-name="uni0C60" unicode="&#xc60;" horiz-adv-x="1471" 
d="M1334 209q0 25 -9 35.5t-41 10.5q-41 0 -41 -48q0 -53 41 -53q20 0 34 17t16 38zM514 56q-59 -60 -149 -60q-26 0 -47 13q-4 1 -34 33q-51 -48 -123 -48q-68 0 -104 42q-37 36 -37 95q0 102 114 139l48 14q22 11 22 36q0 39 -43 39q-59 0 -59 -59h-84q0 147 149 147
q57 0 92 -34t35 -91q0 -58 -45 -90l-84 -37q-45 -21 -45 -58q0 -19 15.5 -33.5t42.5 -14.5q47 0 57 42q1 7 1 23q0 6 -2 17h99v-23q0 -27 26 -43q19 -12 40 -15q38 0 65 44t27 93q0 43 -26 81q-32 46 -78 46q-16 0 -36 -9v99l41 3q79 0 132.5 -64.5t53.5 -166.5v-15l19 -57
q23 -53 72 -53q40 0 68 46q26 41 26 90q0 46 -23 83q-30 49 -80 49l-36 -1v89l42 2q79 0 132 -66.5t53 -166.5v-11q16 -52 21 -61q23 -53 71 -53q40 0 67.5 44t27.5 92q0 43 -24 83q-30 49 -79 49h-37v90l376 1q89 0 138 -75q35 -54 35 -110q0 -79 -47.5 -135t-118.5 -56
q-47 0 -86 38.5t-39 87.5q0 59 39 96q36 35 90 35q23 0 44 -8q-13 26 -35 32l-61 4h-145q38 -63 38 -143q0 -91 -60.5 -157t-140.5 -66q-84 0 -133 54l-5 6q-58 -60 -136 -60q-88 0 -131 54z" />
    <glyph glyph-name="uni0C61" unicode="&#xc61;" horiz-adv-x="1051" 
d="M911 132q0 39 -40 39q-44 0 -44 -41q0 -42 41 -42q43 0 43 44zM673 290l1 -43q0 -106 -55 -178q-61 -76 -168 -76q-116 0 -157 70q-27 44 -27 132q0 100 117 134q65 16 65 69q0 57 -53 57q-25 0 -51 -18q-11 -11 -17.5 -21.5t-7.5 -23.5v-33h-93l-2 51q0 12 -16.5 27
t-38.5 17q-22 0 -42 -17q-17 -24 -17 -50q0 -51 44 -51q23 0 34 5v-98q-101 0 -129 31q-42 44 -42 111q0 65 52 113.5t106 48.5q91 0 115 -56q1 20 29 37q35 20 80 20q57 0 100 -36q49 -41 49 -106q0 -123 -108 -147q-36 -10 -57.5 -29t-21.5 -41q0 -41 9 -61q18 -43 78 -43
q66 0 97 53q23 37 23 74v31v47l-3 88h156q162 0 189 -13q115 -44 115 -190q0 -70 -49.5 -127t-122.5 -57q-48 0 -88 37q-39 36 -39 87q0 63 38.5 100t107.5 37l48 -4q-25 28 -58.5 35t-126.5 7h-63z" />
    <glyph glyph-name="uni0C62" unicode="&#xc62;" horiz-adv-x="3" 
d="M-47 -194q0 -69 -30 -112q-33 -49 -100 -49q-68 0 -91 42q-16 26 -16 76q0 59 68 80q38 10 38 40q0 33 -32 33q-14 0 -30 -10q-5 -7 -9 -13.5t-4 -12.5v-21h-56v30q0 7 -10 16t-22 11q-14 0 -25 -10q-11 -13 -11 -29q0 -31 26 -31q14 0 20 2v-55q-58 0 -75 16
q-25 27 -25 66t31 66.5t62 27.5q54 0 67 -32q2 12 18 24q21 9 47 9q33 0 58 -19q28 -25 28 -63q0 -72 -63 -87q-21 -6 -33.5 -17t-12.5 -23q0 -25 5 -36q11 -26 46 -26q39 0 57 32q13 21 13 43v32h61z" />
    <glyph glyph-name="uni0C63" unicode="&#xc63;" horiz-adv-x="162" 
d="M87 -270q0 22 -22 22q-26 0 -26 -25q0 -23 22 -23q26 0 26 26zM-51 -179l1 -26q0 -60 -32 -102q-36 -43 -97 -43q-67 0 -92 40q-14 26 -14 76q0 59 67 79q36 9 36 39q0 33 -31 33q-13 0 -28 -11q-6 -6 -10 -12t-5 -12v-21h-54v29q0 8 -10.5 16.5t-21.5 9.5q-14 0 -25 -10
q-11 -12 -11 -27q0 -32 27 -32q13 0 19 2v-55q-58 0 -74 18q-25 26 -25 63q0 39 29.5 66.5t61.5 27.5q55 0 68 -31q0 11 16 23q20 9 47 9q33 0 58 -19q28 -25 28 -62q0 -72 -62 -86q-21 -5 -33.5 -16.5t-12.5 -23.5q0 -25 5 -36q11 -24 44 -24q38 0 58 31q14 20 14 43v17v27
l-1 51h88q94 0 110 -6q67 -26 67 -112q0 -40 -28.5 -73t-70.5 -33q-28 0 -52 21q-22 21 -22 51q0 37 22 58t63 21l27 -1q-13 16 -33 19.5t-74 3.5h-37z" />
    <glyph glyph-name="uni0C66" unicode="&#xc66;" horiz-adv-x="514" 
d="M474 226q0 -101 -68 -173q-68 -73 -169 -73q-103 0 -170 72q-67 71 -67 174q0 98 69 167.5t168 69.5t168 -69.5t69 -167.5zM380 226q0 58 -42.5 100.5t-100.5 42.5t-100 -42.5t-42 -100.5t42 -96q41 -37 100 -37t101 37.5t42 95.5z" />
    <glyph glyph-name="uni0C67" unicode="&#xc67;" horiz-adv-x="531" 
d="M492 212q0 -136 -92 -227l-74 61q71 72 71 166q0 62 -45 109.5t-106 47.5t-106 -47.5t-45 -109.5q0 -94 72 -166l-74 -61q-93 91 -93 227q0 105 71 178t175 73t175 -73t71 -178z" />
    <glyph glyph-name="uni0C68" unicode="&#xc68;" horiz-adv-x="611" 
d="M561 226q0 -100 -66 -170.5t-166 -70.5h-329v103h329q65 0 105 37q43 38 43 101t-37 94q-7 -36 -38 -64t-73 -28q-46 0 -80 34t-34 81q0 48 34 81.5t80 33.5q97 0 164.5 -68t67.5 -164zM376 361q-16 13 -47 13q-12 0 -20.5 -9.5t-8.5 -21.5t8.5 -21t20.5 -9q41 0 47 48z
" />
    <glyph glyph-name="uni0C69" unicode="&#xc69;" horiz-adv-x="425" 
d="M376 136q0 -76 -60 -116q-51 -35 -127 -35q-77 0 -129 36q-60 41 -60 121h85q0 -54 104 -54q102 0 102 48q0 47 -44 47h-110v85h110q21 0 32.5 13.5t11.5 34.5q0 31 -36 45q-27 13 -66 13q-40 0 -68 -13q-36 -16 -36 -51h-85q0 77 63 117q52 31 126 31t124 -31
q63 -38 63 -111q0 -67 -33 -90q33 -19 33 -90z" />
    <glyph glyph-name="uni0C6A" unicode="&#xc6a;" horiz-adv-x="572" 
d="M522 353q0 -69 -49 -128q-47 -55 -108 -71q10 -16 10 -45q0 -53 -30 -88q-32 -36 -83 -36q-56 0 -87 35q-28 33 -28 89q0 32 8 45q-59 16 -106 71q-49 59 -49 128q0 43 31 74t81 31l13 -76q-19 0 -28 -8.5t-9 -20.5q0 -61 65 -98q56 -33 110 -33t108 33q63 37 63 98
q0 12 -8.5 20.5t-27.5 8.5l13 76q49 0 80 -31t31 -74zM291 109q0 12 -8.5 20.5t-20.5 8.5q-13 0 -22 -8.5t-9 -20.5q0 -13 9 -21.5t22 -8.5q12 0 20.5 8.5t8.5 21.5z" />
    <glyph glyph-name="uni0C6B" unicode="&#xc6b;" horiz-adv-x="546" 
d="M400 315q3 19 3 42q0 21 -5 33q-7 13 -16 13q-13 0 -18 -11q-9 -11 -9 -27q0 -23 9 -45q9 -21 26 -33q7 10 10 28zM333 56q28 -4 49 18q23 26 23 58q0 12 -3 23q3 -6 -10 10q-51 -79 -148 -127q-95 -48 -205 -48q-17 0 -27 8q-12 8 -12 21q0 14 9 24q7 9 21 9q60 5 91 49
q31 43 31 127q0 73 -31 121q-30 47 -83 41q-6 0 -11 1v70q10 5 22 5q88 0 150 -70q61 -69 61 -168q0 -37 -5 -64q-6 -28 -16 -43q81 46 114 105q-40 27 -62 65q-23 38 -23 74q0 43 34 75q35 33 80 33q49 0 81 -35q34 -33 34 -81q0 -24 -12 -56q-11 -30 -35 -64
q19 -22 30 -47q10 -28 10 -54q0 -60 -45 -105q-45 -43 -104 -43h-8v68z" />
    <glyph glyph-name="uni0C6C" unicode="&#xc6c;" horiz-adv-x="546" 
d="M497 -15h-361q-57 0 -98 45q-38 43 -38 100q0 65 41 95q-41 38 -41 97q0 57 39.5 96.5t96.5 39.5h90v-84h-90q-22 0 -36.5 -15t-14.5 -37q0 -23 14.5 -38.5t36.5 -15.5h143v-85h-143q-21 0 -36 -15.5t-15 -37.5q0 -19 16 -30q15 -12 35 -12h361v-103z" />
    <glyph glyph-name="uni0C6D" unicode="&#xc6d;" horiz-adv-x="465" 
d="M421 146q0 -89 -71 -131q-55 -32 -140 -32q-88 0 -141 29q-69 41 -69 125t72 115q45 18 138 18q55 0 79 6q42 10 42 40q0 55 -121 55q-45 0 -77 -12q-43 -14 -43 -52h-90q0 84 73 124q58 29 137 29q82 0 138 -28q73 -38 73 -116q0 -85 -72 -116q-46 -19 -139 -19
q-55 0 -78 -5q-42 -11 -42 -39q0 -47 117 -47q124 0 124 56h90z" />
    <glyph glyph-name="uni0C6E" unicode="&#xc6e;" horiz-adv-x="588" 
d="M543 371h-124q15 -12 33 -58q17 -43 17 -87q0 -101 -67 -172q-66 -71 -168 -71t-169 71q-65 69 -65 172q0 97 75 172l62 -65q-47 -48 -47 -107t42 -97.5t102 -38.5q61 0 103.5 38.5t42.5 97.5q0 60 -42.5 102.5t-111.5 42.5v89h317v-89z" />
    <glyph glyph-name="uni0C6F" unicode="&#xc6f;" horiz-adv-x="541" 
d="M492 374h-356q-21 0 -36 -15.5t-15 -36.5t15 -37t36 -16h143v-85h-143q-22 0 -36.5 -15.5t-14.5 -38.5q0 -20 15 -31t36 -11h90v-103h-90q-57 0 -98 45q-38 43 -38 100q0 59 41 97q-41 30 -41 95q0 57 39.5 96.5t96.5 39.5h356v-84z" />
    <glyph glyph-name="uni0C78" unicode="&#xc78;" horiz-adv-x="467" 
d="M143 23q13 4 29.5 11t39.5 16.5t48 22t46.5 25.5t34 26t12.5 24q0 9 -6.5 16t-20.5 12t-34 10t-41 10q-5 -1 -10.5 -1h-11.5q-46 0 -83 16.5t-64 45t-42 65.5t-15 80q0 41 15.5 76.5t43 63t64.5 43.5t81 16q43 0 80.5 -16t64.5 -43.5t42.5 -63t15.5 -76.5
q0 -50 -19.5 -92t-50.5 -67q10 -4 26 -13.5t29 -22t21 -26.5t8 -33q0 -22 -13.5 -43t-36.5 -39.5t-49.5 -34.5t-53.5 -28.5t-52 -21.5t-48 -19zM341 402q0 25 -9.5 47t-25.5 37.5t-35.5 24t-41.5 8.5q-21 0 -41.5 -8.5t-36 -24t-24.5 -37.5t-9 -47q0 -23 8.5 -43.5t24 -34.5
t35.5 -21.5t43 -7.5q22 0 42 6.5t35.5 21t25 35t9.5 44.5z" />
    <glyph glyph-name="uni0C79" unicode="&#xc79;" horiz-adv-x="270" 
d="M98 592h93v-597h-93v597z" />
    <glyph glyph-name="uni0C7A" unicode="&#xc7a;" horiz-adv-x="424" 
d="M371 -5h-93v237q-3 -1 -28.5 -6t-54.5 -5t-56 10.5t-48 29.5t-34 46t-13 64v221h93v-213q0 -22 6 -37.5t16 -23t21.5 -11.5t23.5 -4q21 0 41.5 6t32.5 12v271h93v-597z" />
    <glyph glyph-name="uni0C7B" unicode="&#xc7b;" horiz-adv-x="658" 
d="M605 -5h-91v237l-30 -6t-54 -5q-15 0 -30 3t-30.5 8t-28.5 13t-17 10q-18 -11 -51.5 -22.5t-77.5 -11.5q-29 0 -56 10.5t-48 29.5t-34 46t-13 64v221h93v-213q0 -22 6 -37.5t16 -23t21.5 -11.5t23.5 -4q11 0 24 3.5t23.5 9.5t18.5 17t8 30v229h93v-227q0 -18 7 -30
t16.5 -18.5t20.5 -10t24 -3.5q22 0 42.5 6t32.5 12v271h91v-597z" />
    <glyph glyph-name="uni0C7C" unicode="&#xc7c;" horiz-adv-x="629" 
d="M35 248v83h577v-83h-577z" />
    <glyph glyph-name="uni0C7D" unicode="&#xc7d;" horiz-adv-x="724" 
d="M715 -5h-409q-25 0 -51 0.5t-50.5 5t-47.5 12.5t-40 21.5t-27 33.5t-10 47q0 32 15 54t43 37.5t66.5 26.5t84.5 24q32 8 52 15t32 12.5t17 13.5t5 19q0 19 -15.5 25t-47.5 6h-241v81h241q75 0 115 -30t40 -81q0 -32 -13 -54.5t-35 -39.5t-51 -26t-60 -15q-25 -5 -53 -12
t-51 -15t-37 -16t-14 -19q0 -6 5.5 -10t15 -7t24 -5t30 -2.5t30 -1t27.5 -0.5h410v-100z" />
    <glyph glyph-name="uni0C7E" unicode="&#xc7e;" horiz-adv-x="787" 
d="M778 -5h-460q-23 0 -48.5 0.5t-49.5 3.5t-45.5 9.5t-37.5 18.5t-25.5 30t-9.5 42q0 28 10 46.5t27 31t40 18t48 9.5q22 2 42.5 3.5t34.5 2.5t21 4t7 9q0 5 -6.5 8t-17.5 5t-25 3.5t-25 1.5t-28.5 0.5t-38 3t-40 8t-35.5 15.5t-26 24t-10 32q0 26 8 44t23 31t36 19t47 10
q23 3 45 3.5t38 2.5t23.5 5t7.5 10q0 6 -4 9t-13.5 5.5t-23 3.5t-30.5 1h-152v81h152q35 0 65.5 -4.5t53.5 -15t34 -27.5t11 -43q0 -32 -12 -52t-33 -31.5t-44 -16t-48 -6.5q-20 -3 -38 -4t-31 -2.5t-17.5 -3t-4.5 -5.5t3 -5.5t12.5 -4t27 -4.5t43.5 -2q36 0 66.5 -3.5
t53 -14t34 -28t11.5 -42.5t-8 -42.5t-21.5 -29t-32 -19t-37 -11.5t-38 -5t-38.5 -4q-14 -1 -24.5 -1.5t-17.5 -2.5t-9.5 -3t-2.5 -4t3.5 -5t13.5 -4t23 -4t27.5 -2.5l29 -1t25.5 -0.5h461v-100z" />
    <glyph glyph-name="uni0C7F" unicode="&#xc7f;" horiz-adv-x="836" 
d="M247 417q0 9 -3 18.5t-9.5 17t-14.5 14t-18 6.5t-18.5 -6.5t-13.5 -13t-8.5 -17t-3.5 -17.5q0 -27 12.5 -41t34.5 -14q18 0 30 13.5t12 39.5zM88 384q-3 -8 -3 -15q-2 -16 -2 -37q0 -56 24 -106.5t64 -76.5t95.5 -39.5t122.5 -13.5q29 0 39.5 1.5t30.5 3.5
q68 19 113.5 48.5t80.5 67.5q28 30 64 77l7 11l82 -40l-8 -18q-52 -94 -122 -148q-75 -57 -143.5 -80t-143.5 -23q-83 0 -153 23q-39 12 -69 28.5t-69 47.5t-68.5 94.5t-29.5 142.5q0 43 13 82t36 66.5t60 47.5q19 9 39.5 12.5t43.5 3.5q35 0 61 -11t44 -28q15 -16 24 -44
q7 -25 7 -55q0 -27 -12.5 -50.5t-31 -37t-39 -21.5t-40.5 -8q-26 0 -48.5 9t-37.5 24.5t-25 38.5q-5 13 -6 23z" />
    <glyph glyph-name="afii61664" unicode="&#x200c;" 
d="M0 -320v1071h54v-1071h-54z" />
    <glyph glyph-name="afii301" unicode="&#x200d;" 
d="M0 -320v1071h206v-45h-152v-1026h-54z" />
    <glyph glyph-name="endash" unicode="&#x2013;" horiz-adv-x="655" 
d="M20 268h584v-72h-584v72z" />
    <glyph glyph-name="emdash" unicode="&#x2014;" horiz-adv-x="1427" 
d="M3 268h1340v-72h-1340v72z" />
    <glyph glyph-name="quoteleft" unicode="&#x2018;" horiz-adv-x="204" 
d="M190 444q0 -29 -22 -53q-21 -18 -50 -18q-38 0 -64.5 31.5t-26.5 65.5q0 49 38 90t74 33q-19 -29 -22 -53q0 -23 32 -28q41 -41 41 -68z" />
    <glyph glyph-name="quoteright" unicode="&#x2019;" horiz-adv-x="203" 
d="M190 511q0 -47 -39 -88t-75 -36q23 31 23 53q0 25 -31 29q-41 41 -41 68q0 32 21 51q20 21 51 21q37 0 65 -33q26 -31 26 -65z" />
    <glyph glyph-name="quotedblleft" unicode="&#x201c;" horiz-adv-x="492" 
d="M208 680q-47 -40 -73 -82q-19 -37 -16 -64l4 -7h9l5 1l19 3q20 0 34 -16.5t14 -37.5q0 -19 -17 -34t-38 -15q-31 0 -49.5 26t-18.5 60q0 55 37 105q27 40 79 78zM412 680q-47 -40 -73 -82q-20 -37 -16 -64l4 -7h8l5 1l20 3q20 0 34 -16.5t14 -37.5q0 -19 -17.5 -34
t-38.5 -15q-30 0 -48.5 26t-18.5 60q0 55 37 105q27 40 79 78z" />
    <glyph glyph-name="quotedblright" unicode="&#x201d;" horiz-adv-x="492" 
d="M186 542q0 -57 -34 -106q-26 -38 -81 -77l-12 17q48 40 73 82q21 37 17 64l-6 5h-6l-6 -1l-19 -2q-21 0 -35 15.5t-14 37.5q0 29 26 42q14 9 29 9q32 0 50 -26t18 -60zM407 542q0 -57 -36 -106q-26 -38 -80 -77l-12 17q48 40 74 82q19 37 16 64l-7 5h-6l-5 -1l-19 -2
q-20 0 -34 15.5t-14 37.5q0 29 24 42q16 9 31 9q31 0 49.5 -26t18.5 -60z" />
    <glyph glyph-name="bullet" unicode="&#x2022;" horiz-adv-x="572" 
d="M261 271l43 49l21 27q16 21 25 29q17 14 38 14q15 0 26.5 -5.5t26.5 -16.5q2 -9 3.5 -14t1.5 -12q0 -10 -6 -23t-14 -20.5t-24.5 -12.5t-33.5 -6q-47 -9 -60 -11q-34 -7 -61 -23q41 -21 88 -29l43 -5q28 -3 47.5 -21t19.5 -44q0 -8 -1.5 -15t-2.5 -11q-11 -10 -23 -15.5
t-26 -5.5q-24 0 -41 12q-12 10 -26 32q-28 36 -39 48q-21 24 -44 39v-11q0 -16 8 -42q6 -20 15 -41l16 -32q3 -10 3 -16q6 -11 6 -26q0 -25 -14.5 -41.5t-39.5 -22.5q-24 6 -39 23q-15 16 -15 40q0 18 11 45l10 27q10 26 16 47t6 42v8q-21 -14 -44 -41q-13 -14 -40 -49
q-11 -19 -24 -29q-17 -12 -35 -12q-19 0 -29 5.5t-27 15.5q-1 10 -1.5 16.5t-0.5 13.5q0 29 22 44q19 12 51 17l38 5q22 4 44.5 10.5t39.5 18.5q-21 12 -47 19.5t-55 10.5q-46 8 -63 16q-29 15 -29 51l1 26q13 9 19 11q16 11 36 11q22 0 42 -18q12 -10 30.5 -37.5
t32.5 -43.5q19 -23 39 -30v13q0 16 -8 42t-18 50t-12 28q-8 21 -8 33q0 24 15.5 40t41.5 23q21 -7 37 -22q16 -16 16 -35q0 -13 -3 -23t-10 -26q-15 -36 -21 -59q-11 -36 -11 -64q9 2 17 9z" />
    <glyph glyph-name="ellipsis" unicode="&#x2026;" horiz-adv-x="1028" 
d="M20 25h186v-61h-186v61zM414 25h187v-61h-187v61zM792 25h187v-61h-187v61z" />
    <glyph glyph-name="uni20B9" unicode="&#x20b9;" horiz-adv-x="552" 
d="M505 716l-43 -77h-118q15 -18 20.5 -37.5t13.5 -41.5h127l-43 -75h-81q-4 -22 -12 -46t-21 -44q-15 -25 -37.5 -43.5t-47.5 -32t-52.5 -21.5t-54.5 -8l230 -328h-111l-230 317v68l54 -3q28 0 56.5 5.5t54.5 18t42.5 34t23.5 48.5t10 35h-266l46 75h206q-6 20 -13.5 29
t-20 22t-31.5 20.5t-54 7.5h-133l46 77h439z" />
    <glyph glyph-name="uni2103" unicode="&#x2103;" horiz-adv-x="948" 
d="M814 147h56q-38 -72 -116 -115q-69 -38 -147 -38q-123 0 -213.5 85.5t-90.5 211.5q0 127 88.5 213.5t215.5 86.5q100 0 180 -59q63 -46 82 -90h-57q-42 61 -114 89q-47 17 -92 17q-104 0 -178 -77t-74 -180q0 -105 77 -180.5t176 -75.5q60 0 114 29.5t93 82.5zM180 695
q45 0 76 -31t31 -76q0 -41 -31 -72t-76 -31q-43 0 -74.5 31t-31.5 72q0 45 31 76t75 31zM180 521q27 0 47 20t20 47q0 30 -20 50t-47 20t-46 -20t-19 -50q0 -27 19 -47t46 -20z" />
    <glyph glyph-name="uni2109" unicode="&#x2109;" horiz-adv-x="720" 
d="M180 695q45 0 76 -31t31 -76q0 -41 -31 -72t-76 -31q-43 0 -74.5 31t-31.5 72q0 45 31 76t75 31zM180 521q27 0 47 20t20 47q0 30 -20 50t-47 20t-46 -20t-19 -50q0 -27 19 -47t46 -20zM354 4v577h290v-42h-239v-224h229v-42h-229v-269h-51z" />
    <glyph glyph-name="onethird" unicode="&#x2153;" horiz-adv-x="774" 
d="M149 -26l424 680h67l-423 -680h-68zM155 269v274q-25 0 -37 -2.5t-50 -2.5h-14v37h10q48 0 70 15.5t26 54.5h51v-376h-56zM496 120h55q1 -44 21.5 -63.5t58.5 -19.5q40 0 61 18t21 52t-21.5 50t-69.5 16h-10.5t-15.5 -2v41h23q42 0 62.5 15.5t20.5 45.5q0 24 -18 40
t-50 16q-35 0 -54 -18.5t-20 -58.5h-52q4 59 36.5 88t89.5 29t89 -26t32 -70q0 -29 -15 -50t-25 -27q15 -2 34 -27.5t19 -61.5q0 -53 -36 -82.5t-99 -29.5q-65 0 -101 31t-36 86v8z" />
    <glyph glyph-name="arrowleft" unicode="&#x2190;" horiz-adv-x="805" 
d="M215 310q26 -35 41 -66q20 -47 20 -98q-50 69 -111.5 115.5t-135.5 74.5q74 25 135.5 72t111.5 115q0 -48 -20 -99q-17 -39 -38 -63h548v-51h-551z" />
    <glyph glyph-name="arrowup" unicode="&#x2191;" horiz-adv-x="446" 
d="M192 517q-33 -24 -64 -38q-47 -21 -96 -21q64 47 111 108.5t75 139.5q29 -78 75.5 -139.5t112.5 -108.5q-50 0 -98 21q-39 16 -63 37v-549h-53v550z" />
    <glyph glyph-name="arrowright" unicode="&#x2192;" horiz-adv-x="806" 
d="M582 361q-24 34 -39 65q-21 48 -21 97q50 -68 112 -115t135 -72q-73 -28 -135 -74.5t-112 -115.5q0 50 21 100q17 38 37 64h-548v51h550z" />
    <glyph glyph-name="arrowdown" unicode="&#x2193;" horiz-adv-x="447" 
d="M195 702h53v-547q24 20 63 36q48 22 98 22q-66 -48 -112.5 -110t-75.5 -140q-28 78 -75 140t-111 110q51 0 97 -22q30 -15 63 -38v549z" />
    <glyph glyph-name="minus" unicode="&#x2212;" horiz-adv-x="655" 
d="M20 268h584v-72h-584v72z" />
    <glyph glyph-name="uni25CC" unicode="&#x25cc;" horiz-adv-x="630" 
d="M279 424q0 15 11 25q10 11 25 11t25 -11q11 -10 11 -25t-11 -25q-10 -11 -25 -11t-25 11q-11 10 -11 25v0zM279 -44q0 15 11 25q10 11 25 11t25 -11q11 -10 11 -25t-11 -25q-10 -11 -25 -11t-25 11q-11 10 -11 25v0zM45 190q0 15 11 25q10 11 25 11t25 -11q11 -10 11 -25
t-11 -25q-10 -11 -25 -11t-25 11q-11 10 -11 25v0zM513 190q0 15 11 25q10 11 25 11t25 -11q11 -10 11 -25t-11 -25q-10 -11 -25 -11t-25 11q-11 10 -11 25v0zM77 73q0 15 11 25q10 11 25 11t25 -11q11 -10 11 -25t-11 -25q-10 -11 -25 -11t-25 11q-11 10 -11 25v0zM482 307
q0 15 11 25q10 11 25 11t25 -11q11 -10 11 -25t-11 -25q-10 -11 -25 -11t-25 11q-11 10 -11 25v0zM396 393q0 15 11 25q10 11 25 11t25 -11q11 -10 11 -25t-11 -25q-10 -11 -25 -11t-25 11q-11 10 -11 25v0zM162 -12q0 15 11 25q10 11 25 11t25 -11q11 -10 11 -25t-11 -26
q-10 -11 -25 -11t-25 11q-11 11 -11 26v0zM77 307q0 15 11 25q10 11 25 11t25 -11q11 -10 11 -25t-11 -25q-10 -11 -25 -11t-25 11q-11 10 -11 25v0zM482 73q0 15 11 25q10 11 25 11t25 -11q11 -10 11 -25t-11 -25q-10 -11 -25 -11t-25 11q-11 10 -11 25v0zM162 393
q0 15 11 25q10 11 25 11t25 -11q11 -10 11 -25t-11 -25q-10 -11 -25 -11t-25 11q-11 10 -11 25v0zM396 -12q0 15 11 25q10 11 25 11t25 -11q11 -10 11 -25t-11 -26q-10 -11 -25 -11t-25 11q-11 11 -11 26v0z" />
    <glyph glyph-name="glyph14" horiz-adv-x="680" 
d="M21 278h606v-74h-606v74z" />
    <glyph glyph-name="uni0C15_uni0C3E.abvs" horiz-adv-x="821" 
d="M698 227q0 15 -13 30.5t-34 17.5q-19 0 -33 -15q-12 -13 -14 -33q0 -17 13.5 -32t33.5 -15q17 0 33 14q14 17 14 33zM440 385q15 -27 15 -61h-100q-10 25 -43 39q-14 8 -26.5 9.5t-34.5 1.5q-94 0 -94 -63q0 -41 83 -41l46 11q39 10 75 10q60 0 94 -38q26 -27 26 -70
q0 -72 -70.5 -130.5t-159.5 -58.5q-111 0 -174 62q-48 45 -48 102h105q0 -27 37 -50.5t86 -23.5q58 0 90 23.5t32 47.5q0 46 -53 46l-55 -9l-74 -7q-54 0 -99 33q-50 35 -50 92q0 35 35 75h-65v92h565q59 0 96 -17q56 -24 88 -84q29 -54 29 -110q0 -74 -40.5 -127.5
t-108.5 -53.5q-58 0 -97.5 39.5t-39.5 97.5t48 95t105 37q15 0 21 -4q-24 35 -80 35h-164z" />
    <glyph glyph-name="uni0C16_uni0C3E.abvs" horiz-adv-x="1017" 
d="M189 345q0 39 -35 39q-36 0 -36 -39q0 -37 36 -37q35 0 35 37zM877 213q0 39 -44 39q-41 0 -41 -41q0 -43 39 -43q46 0 46 45zM244 111q-27 22 -66 22q-54 0 -54 -23q0 -26 47 -26q53 0 73 27zM624 370q40 -59 40 -143q0 -96 -62 -162q-65 -66 -158 -66q-47 0 -68.5 6
t-62.5 46q-24 -25 -75 -45q-21 -7 -41 -11t-38 -4q-60 0 -98 26q-43 27 -43 80q0 49 48 83.5t105 34.5q88 0 141 -40l13 61q0 38 -11.5 69t-29.5 32q-9 -42 -40 -73q-9 -9 -32 -21q-34 -14 -53 -14q-63 0 -99.5 31.5t-36.5 84.5q0 56 75 102q40 26 109 26q96 0 161 -70
q48 -53 48 -156q0 -25 -9 -66q-11 -33 -28 -50q3 -19 22.5 -30t45.5 -13q46 0 84 30q48 41 48 108q0 85 -68 133q-8 6 -28 12h-50v87h255q160 0 189 -11q116 -46 116 -190q0 -72 -51 -128.5t-122 -56.5q-51 0 -91 35q-36 41 -36 88q0 62 36.5 100t107.5 38l47 -4
q-21 28 -56 35t-127 7zM360 -116h-101v110h101v-110z" />
    <glyph glyph-name="uni0C17_uni0C3E.abvs" horiz-adv-x="835" 
d="M711 221q0 15 -13 29.5t-34 17.5q-18 0 -33 -15q-13 -16 -13 -32q0 -21 13.5 -34.5t32.5 -13.5q18 0 34 13q13 19 13 35zM428 378q6 -7 9.5 -13t19.5 -29q40 -70 40 -134q0 -84 -48 -149q-36 -47 -65 -57l-3 3l-50 77v7q67 51 67 123q0 57 -30 97q-35 51 -101 51
q-65 0 -103.5 -48.5t-38.5 -120.5q0 -30 3.5 -46t12.5 -29q7 -9 47 -45l3 -3q-6 -18 -59 -71h-5q-109 42 -109 209q0 96 70 169l9 9h-79v92h579q59 0 96 -16q54 -26 87 -84q30 -54 30 -110q0 -75 -40.5 -128.5t-108.5 -53.5q-59 0 -98 39.5t-39 97.5q0 59 48 95.5t105 36.5
q15 0 21 -3q-25 34 -80 34h-190z" />
    <glyph glyph-name="uni0C18_uni0C3E.abvs" horiz-adv-x="1195" 
d="M1058 209q0 25 -9 35.5t-42 10.5q-40 0 -40 -48q0 -53 40 -53q19 0 33 17t18 38zM231 141q0 23 -18 39q-14 19 -41 19q-54 0 -54 -62q0 -54 54 -54q25 0 42 16t17 42zM514 51q-57 -60 -135 -60q-62 0 -103 45q-37 -45 -119 -45q-67 0 -104 47q-35 40 -35 99q0 58 39 99
q42 51 128 51q60 0 104 -48t44 -108q13 -40 54 -40q38 0 62.5 38t24.5 84q0 135 -130 135v102q56 0 97 -16.5t75 -55.5q57 -70 57 -160v-6l22 -68q23 -53 73 -53q40 0 67 44t27 92q0 47 -25 83q-28 49 -79 49h-38v90l376 1q90 0 139 -75q35 -54 35 -110q0 -79 -46 -135
t-119 -56q-48 0 -87.5 38.5t-39.5 87.5q0 59 41 96q37 35 91 35q25 0 42 -8q-11 25 -35 32l-61 4h-143q37 -65 37 -143q0 -90 -59.5 -156.5t-143.5 -66.5q-85 0 -129 54zM420 523q-10 5 -28 5q-36 0 -66 -32l-59 -69q-50 -48 -131 -48q-51 0 -83 32q-34 28 -34 76h99
q0 -32 39 -32q35 0 66 43l53 77q39 43 103 43q24 0 41 -11v-84zM325 -116h-101v110h101v-110z" />
    <glyph glyph-name="uni0C19_uni0C3E.abvs" horiz-adv-x="908" 
d="M766 307q0 38 -42 38t-42 -40q0 -42 39 -42q45 0 45 44zM436 465v-46h67v-91h-204q0 -44 -29.5 -73.5t-88.5 -46t-59 -67.5q0 -57 54 -57q22 0 49 18q6 5 14 17t10 27v33h95l1 -51q0 -12 16.5 -26t38.5 -17q23 0 41 17q20 23 20 50q0 50 -47 50q-22 0 -33 -3v95
q100 0 128 -29q42 -44 42 -111q0 -65 -54 -116q-48 -45 -101 -45q-94 0 -116 55q-3 -20 -31 -39q-34 -18 -79 -18q-57 0 -100 35q-50 39 -50 105q0 124 108 149q78 16 78 54q0 15 -12 34q-9 13 -24 16q-18 0 -32 -17t-14 -31l3 -14h-109q0 47 25 88q38 64 124 64
q77 0 113 -57h64v48h-41v88h275q158 0 188 -14q117 -43 117 -190q0 -68 -50 -125t-124 -57q-52 0 -90 35q-36 40 -36 88q0 59 36.5 97.5t106.5 38.5q32 0 48 -3q-24 27 -60 34.5t-124 7.5h-154z" />
    <glyph glyph-name="uni0C1A_uni0C3E.abvs" horiz-adv-x="1052" 
d="M927 207q0 19 -15 32q-11 14 -30 15q-18 0 -33.5 -14.5t-15.5 -32.5t14.5 -33t34.5 -15q17 0 31 13.5t14 34.5zM371 365h-159v105h601q58 0 97 -17q53 -26 88 -92q13 -27 21 -56t8 -58q0 -72 -40.5 -128t-108.5 -56q-58 0 -98 40t-40 99q0 58 50 95q46 39 105 39l21 -3
q-25 32 -83 32h-169q42 -57 42 -140q0 -93 -55.5 -162t-143.5 -69q-93 0 -110 50q-40 -51 -120 -51q-65 0 -112.5 50.5t-47.5 116.5q0 49 22 69h-121v98h279v-78q-66 -15 -66 -71q0 -32 16 -58q19 -23 47 -23q55 0 55 77l-4 31h120l-4 -43q0 -73 55 -73q44 0 70 50
q19 42 19 88q0 100 -81 127q-45 11 -153 11z" />
    <glyph glyph-name="uni0C1B_uni0C3E.abvs" horiz-adv-x="1052" 
d="M444 -117h-100v111h100v-111zM927 207q0 19 -15 32q-11 14 -30 15q-18 0 -33.5 -14.5t-15.5 -32.5t14.5 -33t34.5 -15q17 0 31 13.5t14 34.5zM371 365h-159v105h601q58 0 97 -17q53 -26 88 -92q13 -27 21 -56t8 -58q0 -72 -40.5 -128t-108.5 -56q-58 0 -98 40t-40 99
q0 58 50 95q46 39 105 39l21 -3q-25 32 -83 32h-169q42 -57 42 -140q0 -93 -55.5 -162t-143.5 -69q-93 0 -110 50q-40 -51 -120 -51q-65 0 -112.5 50.5t-47.5 116.5q0 49 22 69h-121v98h279v-78q-66 -15 -66 -71q0 -32 16 -58q19 -23 47 -23q55 0 55 77l-4 31h120l-4 -43
q0 -73 55 -73q44 0 70 50q19 42 19 88q0 100 -81 127q-45 11 -153 11z" />
    <glyph glyph-name="uni0C1C_uni0C3E.abvs" horiz-adv-x="936" 
d="M795 221q0 41 -42 41t-42 -44t40 -44q44 0 44 47zM555 382q5 -22 5 -32q0 -59 -56 -93q-48 -29 -108 -29q-44 0 -103 24q-10 -25 -83.5 -49t-73.5 -60q0 -17 18 -36q16 -13 39 -16q57 0 63 76h103l-4 -23q0 -24 13 -39.5t35 -18.5q25 0 41.5 15t18.5 38q0 19 -7 28
l-10 14h117q6 -26 3 -44q0 -27 -12.5 -53t-37.5 -47q-43 -41 -104 -41q-52 0 -82 15l-43 35q-23 -26 -50.5 -39t-60.5 -13t-60.5 9t-49.5 34q-48 43 -48 102q0 71 52 100l96 34q49 14 49 56q0 45 -44 45q-54 0 -54 -69h-99q0 69 45.5 115t111.5 46q68 0 102 -42l51 -75
q26 -41 60 -41q22 0 45 14t23 28q0 24 -33 32h-76v88h259q162 0 189 -11q116 -47 116 -194q0 -71 -48.5 -130.5t-123.5 -59.5q-49 0 -89 39q-39 40 -39 88q0 63 37 102t108 39l48 -5q-22 27 -56.5 35.5t-128.5 8.5h-64z" />
    <glyph glyph-name="uni0C1D_uni0C3E.abvs" horiz-adv-x="1432" 
d="M1292 206q0 37 -43 37q-40 0 -40 -41q0 -43 38 -43q45 0 45 47zM402 222q0 64 -41 99q-41 37 -101 37q-56 0 -95 -38q-40 -36 -40 -93q0 -60 36 -101q38 -36 93 -36q60 0 104 37.5t44 94.5zM1026 361q39 -59 39 -145q0 -93 -59.5 -158t-141.5 -65q-102 0 -146 74
q-61 -74 -149 -74q-85 0 -133 54l-11 13q-78 -66 -174 -66q-108 0 -170.5 68.5t-62.5 170.5q0 89 75 154q-50 40 -50 113h107q-5 -24 18 -37.5t50 -13.5l12 1q22 4 51 31l52 66q39 33 97 33q30 0 49 -16v-94q-23 17 -49 17q-42 0 -86 -45q53 -18 90 -56q68 -64 68 -164
l-5 -47l17 -37q25 -47 74 -47q39 0 66.5 44t27.5 92q0 43 -24 83q-29 49 -80 49h-17l-19 -1v89h20l22 2q74 0 131.5 -66.5t57.5 -169.5q0 -27 -4 -39q21 -83 111 -83q37 0 68 43.5t31 92.5q0 43 -25 83q-27 44 -70 51h-44v89h264q161 0 188 -11q115 -47 115 -192
q0 -69 -50 -126.5t-121 -57.5q-51 0 -92 37q-37 41 -37 86q0 62 37 100t109 38l46 -3q-20 27 -54.5 33.5t-127.5 6.5h-91zM772 -144h-103v138h103v-138z" />
    <glyph glyph-name="uni0C1E_uni0C3E.abvs" horiz-adv-x="1190" 
d="M1064 227q0 19 -13.5 33t-33.5 15q-18 0 -31.5 -14.5t-15.5 -33.5q0 -18 14 -32.5t33 -14.5t33 14.5t14 32.5zM378 107q-47 39 -97 39q-24 0 -37 -3l-31 -9q-15 -3 -20 -14l-2 -9q0 -14 21 -25t59 -11q15 -1 20 -1q44 0 87 33zM546 385q14 -22 20 -48.5t6 -57.5h39v69
h111v-67h123v-93h-111v-74h-120v74l-42 -8l-30 -50l67 -114l-85 -62l-67 99q-38 -32 -85 -46t-102 -14q-95 0 -146.5 29.5t-51.5 82.5q0 96 190 121l45 2q64 0 129 -37q25 32 25 77q0 39 -15 73q-18 37 -43 37q-27 0 -42.5 -23t-15.5 -50l2 -24h-117q0 90 -65 90
q-35 0 -35 -44q-3 -44 25 -61h-126q-11 34 -11 52q0 57 46.5 98.5t104.5 48.5q28 0 44 -1t27 -9l48 -29q27 26 45 34t38 8v9h578q61 0 98 -17q54 -27 86 -84q15 -26 23.5 -54t8.5 -56q0 -71 -42 -126t-109 -55q-58 0 -97.5 39.5t-39.5 97.5t50 95q45 37 104 37l21 -4
q-25 35 -82 35h-424z" />
    <glyph glyph-name="uni0C1F_uni0C3E.abvs" horiz-adv-x="977" 
d="M836 213q0 39 -42 39t-42 -41q0 -43 40 -43q44 0 44 45zM235 341q0 16 -12.5 28t-28.5 15q-13 0 -26 -13t-13 -30q0 -46 39 -46q15 0 27 13.5t14 32.5zM578 371q46 -66 46 -155q0 -91 -54 -157t-136 -66q-87 0 -122 67q-36 -67 -115 -67q-74 0 -126.5 70.5t-52.5 165.5
q0 86 31 146q36 69 96 78v143h82v-138q32 -5 60 -29q38 -34 38 -92t-43 -96.5t-105 -38.5q-59 0 -75 39q0 -70 33 -114q27 -37 68 -37q30 0 50 30.5t20 60.5h99l3 -17q3 -6 3 -16q0 -23 25 -43q11 -6 20.5 -10t18.5 -5q40 0 69 44q24 45 24 93q0 88 -67 132q-12 9 -27 12
h-52v87h258q162 0 189 -11q116 -46 116 -190q0 -72 -49 -128.5t-124 -56.5q-48 0 -87 35q-39 39 -39 88q0 60 37 99t106 39l49 -4q-24 28 -58 35t-126 7h-83z" />
    <glyph glyph-name="uni0C20_uni0C3E.abvs" horiz-adv-x="859" 
d="M734 205q0 18 -14 32q-11 13 -32 15q-17 0 -32 -15t-15 -32q0 -19 13.5 -33t33.5 -14q18 0 32 13t14 34zM421 222q0 64 -40 99q-40 37 -101 37q-56 0 -97 -38q-39 -36 -39 -93q0 -60 37 -101q38 -36 92 -36q60 0 104 37.5t44 94.5zM319 199q-11 -20 -38 -20q-14 0 -22 5
q-20 11 -20 41q0 12 6 22q11 21 39 21q10 0 25.5 -9.5t15.5 -36.5q0 -12 -6 -23zM86 361h-68v104h600q59 0 100 -18q51 -25 87 -89q14 -27 22 -55.5t8 -59.5q0 -70 -41 -125.5t-109 -55.5q-58 0 -98 40t-40 98q0 57 51 94q46 38 103 38l21 -3q-23 32 -81 32h-165
q45 -58 45 -139q0 -95 -77 -161.5t-173 -66.5q-109 0 -171.5 68.5t-62.5 170.5q0 74 49 128z" />
    <glyph glyph-name="uni0C21_uni0C3E.abvs" horiz-adv-x="905" 
d="M763 250q0 40 -42 40t-42 -42t40 -42q44 0 44 44zM476 408v-39h-212q-73 0 -115 -47q-36 -43 -36 -111q0 -52 21.5 -87t59.5 -35q19 0 40 25q16 28 16 55l-3 19h102l-3 -21q0 -70 57 -70q25 0 44.5 25t19.5 51t-17 42q-11 14 -30 18q-34 0 -48 -11v101q21 6 43 6
q35 0 63 -19q77 -46 77 -137q0 -87 -55 -140q-49 -40 -116 -40q-55 0 -96 51q-38 -53 -113 -53q-73 0 -115 69q-19 31 -30 69t-11 78q0 108 58 171l36 32h-95v86h558q160 0 187 -12q63 -25 94 -92q23 -48 23 -98q0 -69 -50 -126.5t-124 -57.5q-50 0 -91 36q-37 39 -37 87
q0 61 37 99.5t107 38.5l47 -6q-19 30 -54.5 36.5t-127.5 6.5h-111z" />
    <glyph glyph-name="uni0C22_uni0C3E.abvs" horiz-adv-x="905" 
d="M763 250q0 40 -42 40t-42 -42t40 -42q44 0 44 44zM476 408v-39h-212q-73 0 -115 -47q-36 -43 -36 -111q0 -52 21.5 -87t59.5 -35q19 0 40 25q16 28 16 55l-3 19h102l-3 -21q0 -70 57 -70q25 0 44.5 25t19.5 51t-17 42q-11 14 -30 18q-34 0 -48 -11v101q21 6 43 6
q35 0 63 -19q77 -46 77 -137q0 -87 -55 -140q-49 -40 -116 -40q-55 0 -96 51q-38 -53 -113 -53q-73 0 -115 69q-19 31 -30 69t-11 78q0 108 58 171l36 32h-95v86h558q160 0 187 -12q63 -25 94 -92q23 -48 23 -98q0 -69 -50 -126.5t-124 -57.5q-50 0 -91 36q-37 39 -37 87
q0 61 37 99.5t107 38.5l47 -6q-19 30 -54.5 36.5t-127.5 6.5h-111zM341 -117h-102v111h102v-111z" />
    <glyph glyph-name="uni0C23_uni0C3E.abvs" horiz-adv-x="916" 
d="M777 213q0 39 -42 39t-42 -41q0 -43 39 -43q45 0 45 45zM441 118q0 19 -13.5 35.5t-34.5 17.5q-15 0 -32 -16q-14 -18 -14 -34q0 -48 50 -48q44 0 44 45zM528 371q35 -68 35 -149q0 -80 -33 -148q-46 -81 -132 -81q-56 0 -96 31.5t-40 87.5q0 58 34 94t92 36q67 0 82 -24
q0 30 -4 53t-19 46q-21 43 -63 43q-45 0 -45 -52h-96q0 26 -24 49q-21 17 -41 17q-56 0 -56 -40q0 -17 14 -32t33 -15q12 0 22 5v-81l-11 1q-25 0 -45 -20q-20 -22 -20 -48q0 -27 20.5 -41t46.5 -14q15 0 25 5v-93q-27 -7 -53 -7q-56 0 -97 34q-38 35 -38 89q0 94 51 121
q-52 28 -52 84q0 63 49 97q47 34 110 34q59 0 104 -43q11 12 33 23v25h274q162 0 189 -11q114 -46 114 -190q0 -72 -49.5 -128.5t-121.5 -56.5q-51 0 -89 37t-38 86q0 64 36.5 101t107.5 37l46 -4q-20 28 -54.5 35t-126.5 7h-74z" />
    <glyph glyph-name="uni0C24_uni0C3E.abvs" horiz-adv-x="952" 
d="M826 205q0 17 -13 31q-12 13 -34 14q-17 0 -31 -14q-14 -13 -14 -31q0 -21 13.5 -34.5t31.5 -13.5q20 0 33.5 13.5t13.5 34.5zM188 234q0 36 -39 36q-15 0 -31 -10q-10 -13 -11 -26q0 -13 11.5 -22.5t30.5 -10.5q39 0 39 33zM372 360h-260v104h598q62 0 99 -17
q53 -25 87 -90q14 -28 22.5 -56t8.5 -59q0 -72 -40 -125q-41 -57 -110 -57q-58 0 -97.5 40.5t-39.5 98.5t48 95t105 37l22 -2q-25 31 -81 31h-187l13 -28q50 -49 50 -114q0 -101 -102 -165q-94 -59 -210 -59q-115 0 -196 59q-84 64 -84 157q0 50 31 85q38 48 112 48
q48 0 78.5 -27t30.5 -73q0 -42 -29 -72t-64 -30q-26 0 -49 16q4 -16 27 -34q17 -12 33 -21q56 -28 120 -28q67 0 106 20q49 21 95 77q-25 -13 -47 -20.5t-38 -7.5q-43 0 -74 29t-31 67q0 45 33 78q14 15 34.5 20.5t46.5 5.5q-23 14 -61 17zM487 257q0 13 -12 28t-29 15
q-11 0 -23.5 -11t-14.5 -29q0 -37 34 -37q45 0 45 34z" />
    <glyph glyph-name="uni0C25_uni0C3E.abvs" horiz-adv-x="908" 
d="M767 223q0 40 -43 40q-42 0 -42 -42q0 -43 39 -43q46 0 46 45zM461 222q0 28 -10 53.5t-28 46.5q-48 51 -130 51q-60 0 -117.5 -52.5t-57.5 -131.5q0 -34 16 -63t48 -29q54 0 54 102h106l-8 -40q8 -65 52 -65q34 0 54 43q10 21 15.5 41.5t5.5 43.5zM487 381
q68 -64 68 -175q0 -88 -53 -150.5t-137 -62.5q-40 0 -82 51q-45 -53 -103 -53q-69 0 -115.5 60t-46.5 144q0 115 80 186h-66v87h546q162 0 189 -13q63 -24 94 -91q22 -47 22 -99q0 -68 -50 -125t-124 -57q-51 0 -91 34q-36 41 -36 89q0 60 36.5 98.5t106.5 38.5l48 -5
q-23 27 -64 37q-19 3 -43 4.5t-77 1.5h-102zM324 242q-11 -19 -38 -19q-14 0 -24 5q-19 11 -19 40q0 12 8.5 27t36.5 15q13 0 22 -5q19 -11 19 -40q0 -13 -5 -23zM326 -116h-101v110h101v-110z" />
    <glyph glyph-name="uni0C26_uni0C3E.abvs" horiz-adv-x="908" 
d="M767 223q0 40 -43 40q-42 0 -42 -42q0 -43 39 -43q46 0 46 45zM461 222q0 28 -10 53.5t-28 46.5q-48 51 -130 51q-60 0 -117.5 -52.5t-57.5 -131.5q0 -34 16 -63t48 -29q54 0 54 102h106l-8 -40q8 -65 52 -65q34 0 54 43q10 21 15.5 41.5t5.5 43.5zM487 381
q68 -64 68 -175q0 -88 -53 -150.5t-137 -62.5q-40 0 -82 51q-45 -53 -103 -53q-69 0 -115.5 60t-46.5 144q0 115 80 186h-66v87h546q162 0 189 -13q63 -24 94 -91q22 -47 22 -99q0 -68 -50 -125t-124 -57q-51 0 -91 34q-36 41 -36 89q0 60 36.5 98.5t106.5 38.5l48 -5
q-23 27 -64 37q-19 3 -43 4.5t-77 1.5h-102z" />
    <glyph glyph-name="uni0C27_uni0C3E.abvs" horiz-adv-x="908" 
d="M767 223q0 40 -43 40q-42 0 -42 -42q0 -43 39 -43q46 0 46 45zM461 222q0 28 -10 53.5t-28 46.5q-48 51 -130 51q-60 0 -117.5 -52.5t-57.5 -131.5q0 -34 16 -63t48 -29q54 0 54 102h106l-8 -40q8 -65 52 -65q34 0 54 43q10 21 15.5 41.5t5.5 43.5zM487 381
q68 -64 68 -175q0 -88 -53 -150.5t-137 -62.5q-40 0 -82 51q-45 -53 -103 -53q-69 0 -115.5 60t-46.5 144q0 115 80 186h-66v87h546q162 0 189 -13q63 -24 94 -91q22 -47 22 -99q0 -68 -50 -125t-124 -57q-51 0 -91 34q-36 41 -36 89q0 60 36.5 98.5t106.5 38.5l48 -5
q-23 27 -64 37q-19 3 -43 4.5t-77 1.5h-102zM326 -117h-101v111h101v-111z" />
    <glyph glyph-name="uni0C28_uni0C3E.abvs" horiz-adv-x="920" 
d="M794 206q0 15 -14 32q-13 14 -30 14q-21 0 -35 -13.5t-14 -32.5q0 -20 14 -35q17 -13 35 -13q14 0 30 13q14 17 14 35zM524 363q54 -60 54 -138q0 -81 -41 -146q-54 -89 -159 -89q-84 0 -119 54q-9 15 -34 102q-17 54 -55 54q-45 0 -45 -63q0 -47 26 -84l43 -59h-122
q-54 69 -54 132q0 69 37 116q43 54 133 54q68 0 105 -53l40 -97q21 -55 55 -55q36 0 66 38t30 84q0 102 -85 135q-7 2 -23 7t-37 8h-259v102h599q60 0 98 -16q54 -26 86 -86t32 -120q0 -72 -41 -126.5t-107 -54.5q-59 0 -100 40.5t-41 98.5q0 54 49.5 92.5t106.5 38.5l20 -1
q-24 32 -81 32h-177z" />
    <glyph glyph-name="uni0C2A_uni0C3E.abvs" horiz-adv-x="948" 
d="M822 210q0 16 -13.5 31.5t-31.5 17.5q-18 0 -33 -15.5t-15 -33.5q0 -19 14.5 -32.5t33.5 -13.5q17 0 31 15t14 31zM231 141q0 23 -17 40.5t-42 17.5q-54 0 -54 -62q0 -54 54 -54q25 0 42 16t17 42zM598 368q2 -14 2 -27.5v-29.5q0 -164 -58 -247q-53 -69 -135 -69
q-99 0 -131 41q-40 -45 -120 -45q-68 0 -106 47q-32 40 -32 99q0 60 38 99q45 51 127 51q56 0 101 -41q37 -36 37 -75q19 -74 81 -74q48 0 80 74q25 62 25 134q0 28 -7 63h-430v102h386l-7 9q-57 81 -124 81q-42 0 -60 -9l-8 93q23 5 56 5q128 0 212 -104q27 -39 44 -75h139
q60 0 97 -17q51 -24 86 -90q33 -56 33 -114q0 -74 -41.5 -128t-108.5 -54q-60 0 -99 40.5t-39 98.5q0 54 47.5 92.5t105.5 38.5q15 0 21 -3q-23 34 -81 34h-131z" />
    <glyph glyph-name="uni0C2B_uni0C3E.abvs" horiz-adv-x="948" 
d="M822 210q0 16 -13.5 31.5t-31.5 17.5q-18 0 -33 -15.5t-15 -33.5q0 -19 14.5 -32.5t33.5 -13.5q17 0 31 15t14 31zM231 141q0 23 -17 40.5t-42 17.5q-54 0 -54 -62q0 -54 54 -54q25 0 42 16t17 42zM598 368q2 -14 2 -27.5v-29.5q0 -164 -58 -247q-53 -69 -135 -69
q-99 0 -131 41q-40 -45 -120 -45q-68 0 -106 47q-32 40 -32 99q0 60 38 99q45 51 127 51q56 0 101 -41q37 -36 37 -75q19 -74 81 -74q48 0 80 74q25 62 25 134q0 28 -7 63h-430v102h386l-7 9q-57 81 -124 81q-42 0 -60 -9l-8 93q23 5 56 5q128 0 212 -104q27 -39 44 -75h139
q60 0 97 -17q51 -24 86 -90q33 -56 33 -114q0 -74 -41.5 -128t-108.5 -54q-60 0 -99 40.5t-39 98.5q0 54 47.5 92.5t105.5 38.5q15 0 21 -3q-23 34 -81 34h-131zM326 -117h-101v111h101v-111z" />
    <glyph glyph-name="uni0C2C_uni0C3E.abvs" horiz-adv-x="935" 
d="M794 213q0 39 -42 39t-42 -41q0 -43 40 -43q44 0 44 45zM534 371q44 -64 44 -155q0 -95 -60.5 -157.5t-152.5 -62.5q-26 0 -47 13q-4 1 -34 33q-51 -48 -123 -48q-68 0 -104 42q-37 36 -37 95q0 102 114 139l48 14q22 11 22 36q0 39 -43 39q-59 0 -59 -59h-84
q0 147 149 147q57 0 92 -34t35 -91q0 -58 -45 -90l-84 -37q-45 -21 -45 -58q0 -19 15.5 -33.5t42.5 -14.5q47 0 57 42q1 7 1 23q0 6 -2 17h99v-23q0 -27 26 -43q19 -12 40 -15q38 0 65 44t27 93q0 88 -68 132l-25 12h-52v87h259q162 0 189 -11q116 -46 116 -190
q0 -71 -48.5 -128t-124.5 -57q-49 0 -90 35q-37 41 -37 88q0 62 36.5 100t108.5 38l48 -4q-23 28 -57.5 35t-127.5 7h-84z" />
    <glyph glyph-name="uni0C2D_uni0C3E.abvs" horiz-adv-x="935" 
d="M794 213q0 39 -42 39t-42 -41q0 -43 40 -43q44 0 44 45zM534 371q44 -64 44 -155q0 -95 -60.5 -157.5t-152.5 -62.5q-26 0 -47 13q-4 1 -34 33q-51 -48 -123 -48q-68 0 -104 42q-37 36 -37 95q0 102 114 139l48 14q22 11 22 36q0 39 -43 39q-59 0 -59 -59h-84
q0 147 149 147q57 0 92 -34t35 -91q0 -58 -45 -90l-84 -37q-45 -21 -45 -58q0 -19 15.5 -33.5t42.5 -14.5q47 0 57 42q1 7 1 23q0 6 -2 17h99v-23q0 -27 26 -43q19 -12 40 -15q38 0 65 44t27 93q0 88 -68 132l-25 12h-52v87h259q162 0 189 -11q116 -46 116 -190
q0 -71 -48.5 -128t-124.5 -57q-49 0 -90 35q-37 41 -37 88q0 62 36.5 100t108.5 38l48 -4q-23 28 -57.5 35t-127.5 7h-84zM326 -117h-101v111h101v-111z" />
    <glyph glyph-name="uni0C2E_uni0C3E.abvs" horiz-adv-x="1163" 
d="M1025 209q0 25 -9 35.5t-39 10.5q-41 0 -41 -48q0 -53 41 -53q18 0 31.5 17t16.5 38zM230 141q0 66 -52 66q-63 0 -63 -55q0 -64 54 -64q22 0 41.5 15t19.5 38zM491 39l-3 -2q-53 -47 -134 -47q-63 0 -95 46q-30 -43 -100 -43q-51 0 -89 37q-51 40 -51 116
q0 63 46.5 104.5t110.5 41.5q63 0 108.5 -40.5t45.5 -123.5q17 -34 38 -34q40 0 64 37t24 79q0 63 -43 105q-42 42 -105 42q-24 0 -70 -8t-72 -8q-64 0 -107 41q-24 21 -32.5 48.5t-8.5 66.5h100q-3 -21 11 -40.5t42 -19.5q39 0 79 42l69 82q47 44 107 44q28 0 39 -5v-108
q-30 18 -49 19q-55 0 -87 -64q223 0 223 -264v-12l10 -27q25 -53 74 -53q37 0 65 44t28 92q0 43 -23 83q-32 49 -79 49h-38v90l375 1q90 0 140 -75q34 -54 34 -110q0 -79 -47 -135t-119 -56q-46 0 -86 38.5t-40 87.5q0 59 41 96q37 35 91 35q25 0 42 -8q-13 26 -35 32l-60 4
h-146q38 -63 38 -143q0 -91 -60 -157t-142 -66q-78 0 -124 46z" />
    <glyph glyph-name="uni0C2F_uni0C3E.abvs" horiz-adv-x="1457" 
d="M1320 209q0 25 -9 35.5t-41 10.5q-40 0 -40 -48q0 -53 40 -53q19 0 35 17q12 17 15 38zM408 222q0 64 -43.5 101.5t-104.5 37.5q-54 0 -96 -38.5t-42 -95.5q0 -63 35 -104q41 -37 97 -37q64 0 107 39q47 37 47 97zM774 53q-59 -60 -137 -60q-119 0 -180 107
q-78 -106 -206 -106q-108 0 -170.5 68.5t-62.5 170.5q0 89 76.5 154.5t172.5 65.5q95 0 162 -63q36 -33 54.5 -71.5t18.5 -82.5q32 -77 55 -104q33 -41 84 -41q49 0 80 46q29 37 29 90q0 47 -25 83q-27 48 -80 48l-88 2h-8q-57 0 -102 36q-24 20 -34.5 47.5t-10.5 69.5h103
q-2 -5 -2 -16q0 -24 23 -37t46 -13q37 0 70 40l58 73q37 40 94 40q23 0 49 -12v-95q-11 17 -49 17q-28 0 -55 -40l-26 -33q40 -19 70 -56q54 -65 54 -165l-1 -33q6 -18 11.5 -25t9.5 -14q26 -53 74 -53q38 0 67 46q25 38 25 90q0 47 -23 83q-30 49 -78 49h-37v90l373 1
q92 0 141 -75q33 -54 33 -110q0 -79 -45 -135t-119 -56q-47 0 -87 39t-40 87q0 57 40 96q39 35 93 35q22 0 41 -8q-11 26 -35 32l-60 4h-146q40 -65 40 -143q0 -93 -60 -158t-143 -65q-85 0 -132 54z" />
    <glyph glyph-name="uni0C30_uni0C3E.abvs" horiz-adv-x="859" 
d="M734 205q0 18 -14 32q-11 13 -32 15q-17 0 -32 -15t-15 -32q0 -19 13.5 -33t33.5 -14q18 0 32 13t14 34zM421 222q0 64 -40 99q-40 37 -101 37q-56 0 -97 -38q-39 -36 -39 -93q0 -60 37 -101q38 -36 92 -36q60 0 104 37.5t44 94.5zM86 361h-68v104h600q59 0 100 -18
q51 -25 87 -89q14 -27 22 -55.5t8 -59.5q0 -70 -41 -125.5t-109 -55.5q-58 0 -98 40t-40 98q0 57 51 94q46 38 103 38l21 -3q-23 32 -81 32h-165q45 -58 45 -139q0 -95 -77 -161.5t-173 -66.5q-109 0 -171.5 68.5t-62.5 170.5q0 74 49 128z" />
    <glyph glyph-name="uni0C31_uni0C3E.abvs" horiz-adv-x="959" 
d="M819 213q0 39 -42 39t-42 -41q0 -43 39 -43q45 0 45 45zM213 334q0 40 -33 40q-36 0 -36 -40q0 -38 36 -38q33 0 33 38zM573 371q36 -65 36 -158q0 -88 -49 -151q-53 -68 -136 -68q-78 0 -126 54q-17 -54 -123 -54q-68 0 -112.5 56.5t-44.5 135.5q0 101 37 177
q44 92 130 92q39 0 71 -27.5t32 -66.5q0 -60 -32 -98h62q-11 29 -11 55q0 57 37 94l12 11v35h275q159 0 188 -11q116 -46 116 -190q0 -72 -49.5 -128.5t-123.5 -56.5q-49 0 -90 35q-36 39 -36 88q0 60 35 99q39 39 108 39l48 -4q-23 28 -65 35q-11 4 -41.5 5.5t-76.5 1.5
h-71zM515 234q0 46 -21 82q-23 44 -64 44q-37 0 -37 -39q0 -41 46 -56v-94h-257v47q-6 -5 -15.5 -6t-12.5 -1q-13 0 -25 9l-5 -36q0 -40 19 -74.5t59 -34.5q55 0 55 72h110l-2 -20q0 -42 50 -42q51 0 77 47q23 42 23 102z" />
    <glyph glyph-name="uni0C32_uni0C3E.abvs" horiz-adv-x="930" 
d="M790 213q0 39 -40 39q-44 0 -44 -41q0 -43 41 -43q43 0 43 45zM225 334q0 20 -13.5 35t-28.5 15q-40 0 -40 -50q0 -47 40 -47q42 0 42 47zM532 371q50 -66 50 -155q0 -95 -87.5 -159t-203.5 -64q-120 0 -196.5 67.5t-76.5 172.5q0 87 44.5 153.5t119.5 66.5q52 0 90 -33
t38 -79q0 -58 -37 -99t-92 -41q-26 0 -40 8l-17 14q5 -64 61 -100q45 -30 109 -30q79 0 131 34q57 41 57 107q0 73 -62 115q-11 6 -21.5 11t-25.5 11h-27v87h256q161 0 188 -11q115 -46 115 -190q0 -72 -49.5 -128.5t-121.5 -56.5q-49 0 -89 35q-39 39 -39 88q0 64 38 101
t108 37l44 -4q-19 28 -53.5 35t-127.5 7h-83z" />
    <glyph glyph-name="uni0C33_uni0C3E.abvs" horiz-adv-x="843" 
d="M704 213q0 39 -43 39t-43 -41q0 -43 40 -43q46 0 46 45zM372 146q0 46 -100 46q-26 0 -36.5 -1.5t-28.5 -10.5q-35 -15 -35 -46q0 -61 95 -61q40 0 67 18q38 20 38 55zM494 371l3 -26q0 -54 -77 -107q34 -25 34 -86q0 -48 -31 -89q-25 -35 -65.5 -53.5t-98.5 -18.5
q-77 0 -126.5 36t-49.5 107q0 61 52 95q-47 9 -78 41q-39 35 -39 90q0 103 109 103q44 0 70 -24t26 -63q0 -31 -7 -46t-40 -39q41 -25 104 -25q40 0 90 22t50 53q0 19 -13 30h-130v87h238q159 0 189 -11q115 -46 115 -190q0 -72 -49 -128.5t-124 -56.5q-48 0 -89 35
q-37 39 -37 88q0 60 36 99q39 39 108 39l47 -4q-23 28 -65 35q-10 4 -41 5.5t-76 1.5h-35zM161 361q0 15 -10.5 25t-25.5 10q-32 -5 -32 -39q0 -30 36 -30q37 4 32 34z" />
    <glyph glyph-name="uni0C35_uni0C3E.abvs" horiz-adv-x="912" 
d="M788 205q0 16 -13 30.5t-33 16.5q-18 0 -32.5 -14.5t-14.5 -32.5q0 -20 13.5 -33.5t33.5 -13.5q19 0 32.5 13.5t13.5 33.5zM231 141q0 23 -17 40.5t-42 17.5q-54 0 -54 -62q0 -54 54 -54q25 0 42 16t17 42zM519 361q53 -60 53 -136q0 -94 -53 -163q-58 -71 -148 -71
q-57 0 -95 45q-40 -45 -120 -45q-68 0 -106 47q-32 40 -32 99q0 60 38 99q45 51 127 51q61 0 105.5 -48t44.5 -108q11 -34 49 -34h14q28 0 55 36t27 80q0 97 -86 135q-21 7 -31 9t-36 4h-253v104h600q57 0 97 -18q52 -24 88 -89q31 -56 31 -115q0 -73 -41 -127t-108 -54
q-60 0 -99.5 40.5t-39.5 97.5q0 53 48.5 92.5t106.5 39.5q13 0 21 -3q-24 32 -81 32h-176z" />
    <glyph glyph-name="uni0C36_uni0C3E.abvs" horiz-adv-x="874" 
d="M735 222q0 38 -41 38q-43 0 -43 -42q0 -44 41 -44q43 0 43 48zM423 160q0 32 -26 56.5t-55 24.5q-35 0 -58 -23.5t-23 -57.5t26 -57.5t57 -23.5q79 0 79 81zM514 378l4 -26q0 -20 -15 -44l-29 -33q5 -10 14.5 -24t15.5 -22q19 -29 19 -69q0 -75 -54 -122t-135 -47
q-88 0 -138 51q-41 44 -41 106q0 47 36 99q-78 0 -78 -92q0 -35 16 -55h-101q-10 15 -10 51q0 86 74 131t200 45l39 2h36q15 -1 22 -3t19 -8q17 5 18 26q0 30 -28 34h-295v88h443q158 0 189 -12q61 -23 95 -91q20 -47 20 -99q0 -72 -49 -129t-124 -57q-48 0 -87.5 38
t-39.5 89q0 58 37 97t108 39q30 0 47 -4q-24 26 -65 36q-11 2 -42 3.5t-77 1.5h-44z" />
    <glyph glyph-name="uni0C37_uni0C3E.abvs" horiz-adv-x="948" 
d="M821 210q0 18 -13 32q-13 15 -32 17q-17 0 -33 -16t-16 -33q0 -18 14.5 -32t34.5 -14q17 0 31 13.5t14 32.5zM231 141q0 23 -18 39q-14 19 -41 19q-54 0 -54 -62q0 -54 54 -54q25 0 42 16t17 42zM603 368l3 -53q0 -32 -3.5 -63.5t-5.5 -51.5l-10 -125q0 -145 76 -145
l-90 -77q-78 21 -78 131l5 28l4 26q-6 -19 -41 -33t-61 -14q-88 0 -126 45q-37 -45 -119 -45q-67 0 -104 47q-35 40 -35 99q0 58 39 99q42 51 128 51q60 0 104 -48t44 -108q13 -40 56 -40q57 0 89 79q22 63 22 137q0 26 -2 38q-4 15 -4 23h-424v102h381l-7 11
q-52 79 -120 79q-58 0 -64 -5l-4 95q15 6 56 6q127 0 216 -107q16 -22 24.5 -36.5t21.5 -42.5h132q62 0 99 -17q52 -26 86 -90q14 -27 23.5 -55.5t9.5 -58.5q0 -70 -41.5 -126t-109.5 -56q-59 0 -98 40t-39 99q0 57 49 94q46 37 104 37l21 -3q-23 34 -83 34h-124z" />
    <glyph glyph-name="uni0C38_uni0C3E.abvs" horiz-adv-x="909" 
d="M782 210q0 18 -14 32q-10 15 -32 17q-16 0 -31 -16t-15 -33q0 -18 14 -32t32 -14q19 0 32.5 13.5t13.5 32.5zM562 368q1 -16 4 -28.5t3 -34.5q0 -117 -45 -208q-54 -107 -153 -107q-148 0 -148 158l-1 38q-10 25 -40 25q-28 0 -46 -25q-14 -22 -14 -55q0 -35 21 -72
l48 -66h-124q-49 65 -49 133q0 90 52 142q45 47 118 47q57 0 98.5 -44.5t41.5 -103.5q0 -61 38 -61q54 0 81 74q23 59 23 130q0 26 -2.5 38.5t-2.5 19.5h-388v102h339l-2 3q-49 58 -123 58q-82 0 -85 -10v106l80 6q121 0 201 -98q7 -9 21.5 -29.5t22.5 -35.5h136
q62 0 97 -17q55 -26 89 -90q15 -27 23 -55.5t8 -58.5q0 -70 -40.5 -126t-109.5 -56q-60 0 -98.5 40t-38.5 99q0 57 49 94q47 37 105 37l21 -3q-24 34 -82 34h-128z" />
    <glyph glyph-name="uni0C39_uni0C3E.abvs" horiz-adv-x="932" 
d="M787 207q0 36 -41 36q-45 0 -45 -38q0 -45 41 -45q45 0 45 47zM231 141q0 23 -17 40.5t-42 17.5q-55 0 -55 -62q0 -54 55 -54q25 0 42 16t17 42zM536 363q38 -71 38 -169q0 -71 -54 -134q-58 -69 -149 -69q-57 0 -95 45q-40 -45 -120 -45q-68 0 -106 47q-32 40 -32 99
q0 60 38 99q45 51 127 51q61 0 105.5 -48t44.5 -108q11 -34 49 -34h14q28 0 55 36t27 80q0 39 -26 89t-63 61h-49v89h283l-7 32q0 53 45 95q40 37 85 37q162 0 162 -146h-102l3 21q0 43 -53 43q-47 0 -47 -52q0 -22 10 -32q44 0 68 -11q114 -44 114 -191q0 -69 -49 -126.5
t-123 -57.5q-51 0 -88.5 37t-37.5 87q0 62 37.5 100.5t107.5 38.5l45 -5q-11 12 -27 22t-39 14.5t-116 4.5h-75zM421 523q-9 5 -28 5q-36 0 -65 -32l-58 -69q-52 -48 -132 -48q-52 0 -84 32q-34 28 -34 76h100q0 -32 39 -32q34 0 65 43l53 77q40 43 104 43q24 0 40 -11v-84z
" />
    <glyph glyph-name="uni0C15_uni0C3E_uni0C37_uni0C4D" horiz-adv-x="829" 
d="M705 227q0 15 -13 30.5t-35 17.5q-17 0 -32 -15q-11 -13 -14 -33q0 -17 14 -32t32 -15q17 0 35 14q13 17 13 33zM447 385q15 -27 15 -61h-101q-9 25 -43 39q-14 8 -26 9.5t-33 1.5q-94 0 -94 -63q0 -41 82 -41l45 11q39 10 76 10q60 0 94 -38q26 -27 26 -70
q0 -72 -71 -130.5t-158 -58.5q-111 0 -174 62q-50 45 -50 102h105q0 -27 37.5 -50.5t86.5 -23.5q57 0 89.5 23.5t32.5 47.5q0 46 -53 46l-56 -9l-73 -7q-54 0 -100 33q-49 35 -49 92q0 35 35 75h-65v92h564q61 0 96 -17q56 -24 89 -84q30 -54 30 -110q0 -74 -41 -127.5
t-108 -53.5q-58 0 -97.5 39.5t-39.5 97.5t48 95t103 37q15 0 23 -4q-25 35 -81 35h-164zM544 -255l-61 -40q-27 32 -27 70v46q-60 -28 -86 -28q-41 0 -94 45q-29 -49 -115 -49q-59 0 -101 47.5t-42 100.5q0 21 7 42l86 -2l-2 -15l-1 -18q0 -27 18.5 -47t49.5 -20q67 0 67 65
l-4 15l-1 13h91l-1 -13l-3 -15q0 -60 53 -60q25 0 45 18q16 22 16 44q0 31 -26 44l39 44q78 -34 78 -126l-2 -44l-4 -43q0 -60 20 -74z" />
    <glyph glyph-name="uni0C15_uni0C3F.abvs" horiz-adv-x="494" 
d="M236 609q-7 24 -53 18q-5 -4 -7 -24q0 -29 43 -29q17 0 17 35zM354 439q88 -29 88 -115h-98q-11 25 -43 39q-14 8 -27 9.5t-34 1.5q-95 0 -95 -63q0 -41 85 -41l43 11q40 10 78 10q59 0 91 -38q28 -27 28 -70q0 -72 -71 -130.5t-159 -58.5q-111 0 -173 62q-49 45 -49 102
h105q0 -27 36.5 -50.5t86.5 -23.5q58 0 90 23.5t32 47.5q0 46 -54 46l-55 -9l-73 -7q-54 0 -100 33q-51 35 -51 92q0 44 52 90l30 22q-26 16 -47 36l62 40q35 -39 103 -39q30 0 63 27.5t33 62.5q0 37 -32 56q0 -40 -38 -71q-17 -11 -32.5 -16t-32.5 -5q-106 0 -106 92
q0 35 33 65q38 34 104 34q78 0 129 -45t51 -117q0 -51 -47 -97z" />
    <glyph glyph-name="uni0C16_uni0C3F.abvs" horiz-adv-x="688" 
d="M663 227q0 -94 -63.5 -160t-155.5 -71q-42 2 -62 8.5t-36 18.5t-33 29q-24 -22 -77 -45q-45 -14 -75 -14q-60 0 -101.5 27t-41.5 79t51 84q45 33 103 33q88 0 140 -38l13 60q0 32 -11 63.5t-30 39.5q-12 -49 -40 -76q-5 -3 -32 -19q-27 -13 -51 -17q-65 0 -101 34
q-37 28 -37 82q0 56 75 105q42 24 109 24q96 0 160 -69q49 -55 49 -156q0 -26 -10 -64t-25 -52q0 -17 26 -32q18 -11 40 -11q42 0 77 36q39 41 39 99q0 53 -22 85q-27 40 -75 40q-22 0 -32 -2v99q34 -4 65.5 20t31.5 59q0 16 -7 28q-47 -72 -110 -72q-121 0 -121 111
q0 53 53 88q43 23 90 23q180 0 180 -162q0 -65 -53 -118q100 -61 100 -197zM451 593q0 35 -31 35q-33 0 -33 -35q0 -28 33 -28q31 0 31 28zM188 345q0 34 -33 34q-31 0 -31 -34q0 -30 31 -30q33 0 33 30zM244 112q-25 25 -66 25q-54 0 -54 -26t46 -26q54 0 74 27zM361 -117
h-101v111h101v-111z" />
    <glyph glyph-name="uni0C17_uni0C3F.abvs" horiz-adv-x="603" 
d="M578 233q0 -166 -134 -239l-69 84q93 36 93 155q0 70 -51 113.5t-123 43.5q-70 0 -119 -49q-48 -55 -48 -131q0 -96 80 -126l-63 -94q-126 75 -126 212q0 140 104 224l-39 32l78 64q22 -24 45 -31t74 -7q40 0 77 27q35 29 35 66q0 46 -41 46q-4 -14 -15 -28.5t-32 -26.5
q-43 -29 -89 -29q-50 0 -82 30.5t-32 74.5q0 43 40 77q50 35 146 35q95 0 150 -60q47 -52 47 -109q0 -49 -21 -86l-34 -37q149 -86 149 -231zM273 642q0 24 -37 24q-38 0 -38 -27q0 -23 41 -23q34 0 34 26z" />
    <glyph glyph-name="uni0C18_uni0C3F.abvs" horiz-adv-x="874" 
d="M164 517q0 37 -34 37q-29 0 -29 -30q0 -40 31 -40q32 0 32 33zM321 466q0 -69 -70 -130l-63 40q63 69 63 100q0 24 -17 30q0 -37 -37.5 -65.5t-81.5 -28.5q-40 0 -68.5 23.5t-28.5 67.5q0 39 37 79q44 45 120 45q68 0 109 -47q37 -47 37 -114zM231 141q0 23 -18 39
q-14 19 -41 19q-54 0 -54 -62q0 -54 54 -54q25 0 42 16t17 42zM573 212l22 -68q23 -53 73 -53q40 0 67 44t27 92q0 47 -25 83q-28 49 -79 49l-38 -1v89l43 2q79 0 133 -66.5t54 -166.5q0 -90 -59.5 -156.5t-143.5 -66.5q-85 0 -129 54l-4 5q-54 -61 -135 -61q-62 0 -103 45
q-37 -45 -119 -45q-67 0 -104 47q-35 40 -35 99q0 58 39 99q42 51 128 51q60 0 104 -48t44 -108q13 -40 54 -40q38 0 62.5 38t24.5 84q0 135 -130 135v102q56 0 97 -16.5t75 -55.5q57 -70 57 -160v-6zM325 -118h-101v112h101v-112z" />
    <glyph glyph-name="uni0C19_uni0C3F.abvs" horiz-adv-x="577" 
d="M370 656q-8 18 -39 18h-14q-5 -3 -7 -25q0 -28 44 -28q16 0 16 35zM436 449v-30h67v-91h-204q0 -44 -29.5 -73.5t-88.5 -46t-59 -67.5q0 -57 54 -57q22 0 49 18q6 5 14 17t10 27v33h95l1 -51q0 -12 16.5 -26t38.5 -17q23 0 41 17q20 23 20 50q0 50 -47 50q-22 0 -33 -3
v95q100 0 128 -29q42 -44 42 -111q0 -65 -54 -116q-48 -45 -101 -45q-94 0 -116 55q-3 -20 -31 -39q-34 -18 -79 -18q-57 0 -100 35q-50 39 -50 105q0 124 108 149q78 16 78 54q0 15 -12 34q-9 13 -24 16q-18 0 -32 -17t-14 -31l3 -14h-109q0 47 25 88q38 64 124 64
q77 0 113 -57h64v26q-73 10 -127 63l63 41q33 -40 102 -40q17 0 30.5 6t33.5 21q33 26 33 59q0 39 -33 57q0 -41 -38 -69q-12 -7 -26.5 -13.5t-37.5 -6.5q-106 0 -106 89q0 33 29 66q41 37 105 37q79 0 129.5 -46t50.5 -119q0 -50 -45 -95q-31 -33 -71 -44z" />
    <glyph glyph-name="uni0C1A_uni0C3F.abvs" horiz-adv-x="701" 
d="M677 268q0 -100 -40 -177q-54 -100 -163 -100q-35 0 -63 19.5t-28 37.5q-28 -55 -126 -55q-66 0 -113 46q-42 50 -42 120q0 12 27 88h-111v80h247v-70q-21 0 -40 -31q-3 -8 -10.5 -25t-7.5 -34q0 -36 19.5 -63.5t50.5 -27.5q53 0 53 76l-1 43h104v-43q0 -22 21 -41
q19 -15 43 -15q39 0 66 55q24 43 24 101q0 81 -57 139q4 -30 -38 -64q-41 -33 -93 -33q-48 0 -89 34q-38 33 -38 85q0 45 47 83q22 16 44.5 25.5t46.5 9.5q71 0 124.5 -25.5t89.5 -79.5q53 -78 53 -158zM435 412q5 35 -30 43t-43 -24q-5 -35 25 -44q6 -1 10.5 -1h5.5
q26 0 32 26z" />
    <glyph glyph-name="uni0C1B_uni0C3F.abvs" horiz-adv-x="701" 
d="M677 268q0 -100 -40 -177q-54 -100 -163 -100q-35 0 -63 19.5t-28 37.5q-28 -55 -126 -55q-66 0 -113 46q-42 50 -42 120q0 12 27 88h-111v80h247v-70q-21 0 -40 -31q-3 -8 -10.5 -25t-7.5 -34q0 -36 19.5 -63.5t50.5 -27.5q53 0 53 76l-1 43h104v-43q0 -22 21 -41
q19 -15 43 -15q39 0 66 55q24 43 24 101q0 81 -57 139q4 -30 -38 -64q-41 -33 -93 -33q-48 0 -89 34q-38 33 -38 85q0 45 47 83q22 16 44.5 25.5t46.5 9.5q71 0 124.5 -25.5t89.5 -79.5q53 -78 53 -158zM435 412q5 35 -30 43t-43 -24q-5 -35 25 -44q6 -1 10.5 -1h5.5
q26 0 32 26zM425 -117h-101v111h101v-111z" />
    <glyph glyph-name="uni0C1C_uni0C3F.abvs" horiz-adv-x="594" 
d="M536.5 61q-32.5 -36 -59.5 -45q-48 -20 -85 -20q-57 0 -103 53q-30 -55 -117 -55q-32 0 -71 18q-78 44 -78 125q0 34 19 73t44 55l81 30q42 13 42 46q0 35 -39 35q-55 0 -55 -39l3 -26h-98l-1 10l-1 8q0 66 59 98q46 28 108 28q45 0 72 -23q9 -13 31 -51q29 -63 87 -63
q44 0 72 16q35 21 35 55q0 27 -8 34q3 -22 -27.5 -44t-68.5 -22q-33 0 -61 24.5t-28 57.5q0 84 118 84q61 0 111 -42q43 -41 43 -99q0 -51 -30 -91q-44 -62 -150 -62q-19 0 -28 2t-32 10q-30 12 -41 28q-28 -35 -81 -51q-69 -19 -69 -81q0 -17 14 -32q15 -20 42 -20
q65 0 65 75v18h103q-3 -4 -7 -20q0 -31 19.5 -55t43.5 -24q23 0 42 16.5t19 41.5q0 22 -22 49h112q8 -89 -24.5 -125zM415 437q0 21 -27 21q-21 0 -21 -27q0 -21 29 -21l6 2t8 8t5 17z" />
    <glyph glyph-name="uni0C1D_uni0C3F.abvs" horiz-adv-x="1112" 
d="M433 252q0 53 -27.5 99.5t-72.5 54.5l-4 -17q0 -66 -53 -101.5t-124 -35.5q-22 -14 -22 -63q0 -46 42.5 -72.5t98.5 -26.5q71 0 116.5 47t45.5 115zM238 387q0 46 -40 46q-17 0 -29.5 -15.5t-13.5 -30.5q0 -44 43 -44q40 0 40 44zM793 -118h-100v112h100v-112zM521 171
l14 -33q26 -47 75 -47q40 0 67.5 44t27.5 92q0 47 -24 83q-29 49 -79 49h-18l-21 -1v89h23l19 2q76 0 132.5 -65.5t56.5 -170.5q0 -27 -2 -39q22 -83 109 -83q41 0 69 46q30 41 30 90q0 43 -22 83q-32 49 -82 49h-16l-19 -1v89h21l19 2q79 0 133 -66.5t54 -166.5
q0 -91 -60.5 -157t-140.5 -66q-102 0 -147 74q-62 -74 -150 -74q-85 0 -129 54l-14 15q-68 -64 -175 -64q-106 0 -176 49q-76 53 -76 148q0 68 42 108q-44 108 26 170q57 50 159 50q128 0 209 -74.5t81 -179.5q0 -53 -16 -98z" />
    <glyph glyph-name="uni0C1E_uni0C3F.abvs" horiz-adv-x="869" 
d="M414 619q-4 16 -38 16l-14 -1q-5 -1 -6 -21q0 -31 42 -31q16 0 16 37zM378 107q-47 39 -97 39q-24 0 -37 -3l-31 -9q-15 -3 -20 -14l-2 -9q0 -14 21 -25t59 -11q15 -1 20 -1q44 0 87 33zM514 423l11 -11q25 -27 36 -59t11 -74h39v69h111v-67h123v-93h-111v-74h-120v74
l-42 -8l-30 -50l67 -114l-85 -62l-67 99q-38 -32 -85 -46t-102 -14q-95 0 -146.5 29.5t-51.5 82.5q0 96 190 121l45 2q64 0 129 -37q25 32 25 77q0 39 -15 73q-18 37 -43 37q-27 0 -42.5 -23t-15.5 -50l2 -24h-117q0 90 -65 90q-35 0 -35 -44q-3 -44 25 -61h-126
q-11 34 -11 52q0 57 46.5 98.5t104.5 48.5q28 0 44 -1t27 -9l48 -29l13 12q-14 9 -19.5 13t-19.5 17l63 40q34 -39 103 -39q29 0 64 27q33 28 33 62t-33 56q0 -42 -38 -69q-30 -22 -66 -22q-104 0 -104 91q0 34 30 66q40 34 105 34q78 0 129 -45.5t51 -117.5q0 -50 -47 -96
q-16 -16 -38 -32z" />
    <glyph glyph-name="uni0C1F_uni0C3F.abvs" horiz-adv-x="656" 
d="M447 600q-6 18 -37 18l-14 -1q-7 -1 -9 -25q0 -28 43 -28q17 0 17 36zM235 341q0 16 -12.5 28t-28.5 15q-13 0 -26 -13t-13 -30q0 -46 39 -46q15 0 27 13.5t14 32.5zM546 406l25 -24q53 -66 53 -166q0 -91 -54 -157t-136 -66q-87 0 -122 67q-36 -67 -115 -67
q-74 0 -126.5 70.5t-52.5 165.5q0 86 31 146q36 69 96 78v143h82v-138q32 -5 60 -29q38 -34 38 -92t-43 -96.5t-105 -38.5q-59 0 -75 39q0 -70 33 -114q27 -37 68 -37q30 0 50 30.5t20 60.5h99l3 -17q3 -6 3 -16q0 -23 25 -43q11 -6 20.5 -10t18.5 -5q40 0 69 44
q24 45 24 93q0 88 -67 132q-19 14 -55 28q-68 13 -119 62l63 41q16 -21 41.5 -30.5t62.5 -9.5q16 0 29.5 6.5t33.5 20.5q33 29 33 61q0 37 -33 55q0 -38 -40 -69q-29 -18 -63 -18q-106 0 -106 87q0 35 31 68q38 35 104 35q81 0 131 -45.5t50 -117.5q0 -49 -45 -96
q-14 -18 -40 -31z" />
    <glyph glyph-name="uni0C20_uni0C3F.abvs" horiz-adv-x="558" 
d="M299 199q-11 -20 -39 -20q-13 0 -22 5q-20 11 -20 41q0 12 6 22q11 21 38 21q11 0 26.5 -9.5t15.5 -36.5q0 -12 -5 -23zM534 269q0 -91 -50 -162q-75 -109 -214 -109q-108 0 -177 49q-75 53 -75 148q0 68 41 108l1 4q-5 20 -13 33.5t-8 34.5q0 57 47 98q57 50 159 50
q125 0 207 -74.5t82 -179.5zM235 387q0 46 -39 46q-18 0 -29.5 -14t-14.5 -32q0 -44 44 -44q39 0 39 44zM429 252q0 53 -27 99.5t-72 54.5h-5l1 -17q0 -66 -55 -103q-53 -34 -121 -34q-22 -13 -22 -63q0 -45 43 -74q39 -25 96 -25q74 0 116 47q46 46 46 115z" />
    <glyph glyph-name="uni0C21_uni0C3F.abvs" horiz-adv-x="577" 
d="M288 617q-8 22 -41 22q-25 0 -25 -34q0 -28 43 -28q23 0 23 40zM433 450h41v-81h-212q-73 0 -114 -47q-36 -43 -36 -111q0 -52 21.5 -87t59.5 -35q19 0 40 25q16 28 16 55l-3 19h101l-2 -21q0 -70 57 -70q24 0 44 25t20 51t-17 42q-12 14 -30 18q-35 0 -48 -11v101
q21 6 43 6q35 0 63 -19q75 -46 75 -137q0 -87 -54 -140q-48 -40 -115 -40q-55 0 -96 51q-38 -53 -115 -53q-71 0 -113 69q-19 31 -30 69t-11 78q0 108 58 171q31 34 80 55l-28 25l65 42q34 -40 106 -40q31 0 65 28.5t34 62.5q0 39 -32 58q-5 -44 -41 -72q-32 -20 -66 -20
q-109 0 -109 92q0 36 30 66q16 18 40 28t52 10q52 0 88.5 -10t63.5 -36q50 -46 50 -120q0 -54 -41 -97z" />
    <glyph glyph-name="uni0C22_uni0C3F.abvs" horiz-adv-x="577" 
d="M288 617q-8 22 -41 22q-25 0 -25 -34q0 -28 43 -28q23 0 23 40zM433 450h41v-81h-212q-73 0 -114 -47q-36 -43 -36 -111q0 -52 21.5 -87t59.5 -35q19 0 40 25q16 28 16 55l-3 19h101l-2 -21q0 -70 57 -70q24 0 44 25t20 51t-17 42q-12 14 -30 18q-35 0 -48 -11v101
q21 6 43 6q35 0 63 -19q75 -46 75 -137q0 -87 -54 -140q-48 -40 -115 -40q-55 0 -96 51q-38 -53 -115 -53q-71 0 -113 69q-19 31 -30 69t-11 78q0 108 58 171q31 34 80 55l-28 25l65 42q34 -40 106 -40q31 0 65 28.5t34 62.5q0 39 -32 58q-5 -44 -41 -72q-32 -20 -66 -20
q-109 0 -109 92q0 36 30 66q16 18 40 28t52 10q52 0 88.5 -10t63.5 -36q50 -46 50 -120q0 -54 -41 -97zM340 -117h-102v111h102v-111z" />
    <glyph glyph-name="uni0C23_uni0C3F.abvs" horiz-adv-x="598" 
d="M388 609q-6 18 -36 18h-17q-5 -4 -6 -24q0 -29 43 -29q16 0 16 35zM441 118q0 19 -13.5 35.5t-34.5 17.5q-15 0 -32 -16q-14 -18 -14 -34q0 -48 50 -48q44 0 44 45zM491 416q18 -16 37 -43q35 -68 35 -151q0 -80 -33 -148q-46 -81 -132 -81q-56 0 -96 31.5t-40 87.5
q0 58 34 94t92 36q67 0 82 -24q0 30 -4 53t-19 46q-21 43 -63 43q-45 0 -45 -52h-96q0 26 -24 49q-21 17 -41 17q-56 0 -56 -40q0 -17 14 -32t33 -15q12 0 22 5v-81l-11 1q-25 0 -45 -20q-20 -22 -20 -48q0 -27 20.5 -41t46.5 -14q15 0 25 5v-93q-27 -7 -53 -7q-56 0 -97 34
q-38 35 -38 89q0 94 51 121q-52 28 -52 84q0 63 49 97q47 34 110 34q59 0 104 -43l10 7q-29 16 -55 41l63 40q34 -39 103 -39q31 0 63.5 27.5t32.5 62.5q0 37 -32 56q0 -40 -38 -71q-18 -11 -32.5 -16t-33.5 -5q-105 0 -105 92q0 35 32 65q39 34 104 34q80 0 130 -45
t50 -117q0 -51 -45 -97z" />
    <glyph glyph-name="uni0C24_uni0C3F.abvs" horiz-adv-x="603" 
d="M578 241q0 -70 -41 -127q-33 -51 -95 -83q-72 -40 -153 -40q-82 0 -141 28q-130 56 -130 178q0 60 31 99q42 61 118 61q106 0 106 -108q0 -37 -27 -69q-29 -37 -74 -37q-29 0 -61 21q28 -88 181 -88q80 0 132.5 33t59.5 91q-60 -33 -96 -33q-96 0 -96 114q0 51 37 76
t85 25q0 20 -28 54q-21 23 -44 24l-2 -28q-5 -16 -11 -21q-37 -36 -111 -36q-43 0 -70 21q-36 20 -36 64q0 51 49 82q41 26 84 26q99 0 133 -19q47 -23 85 -73q41 -52 41 -113q14 -4 25.5 -14.5t21.5 -26.5q27 -36 27 -81zM265 466q0 24 -34 24q-25 0 -25 -22q0 -21 38 -21
q21 0 21 19zM436 274q0 28 -27 28q-26 0 -26 -23q0 -38 29 -38q24 0 24 33zM192 252q0 32 -35 32q-21 0 -21 -29q0 -33 36 -33q20 0 20 30z" />
    <glyph glyph-name="uni0C25_uni0C3F.abvs" horiz-adv-x="587" 
d="M562 237q0 -95 -44 -159q-26 -34 -67 -60.5t-75 -26.5q-58 0 -101 45h-8q-58 -42 -98 -42q-68 0 -109.5 51t-41.5 115q0 72 75 142v5q-32 43 -32 77q0 43 37 84q58 58 177 58q70 0 121 -18t92 -63q74 -80 74 -208zM245 400q0 15 -13.5 26.5t-28.5 11.5q-38 0 -38 -38
q0 -15 10.5 -27.5t27.5 -12.5q42 0 42 40zM476 241q0 83 -42 137q-38 45 -101 45q0 -68 -56 -122q-39 -37 -106 -37q-46 -28 -46 -85q0 -77 55 -77q60 0 60 71q-1 1 -2 12h92q0 -30 4 -42q12 -43 58 -43q37 0 63 51q10 22 15.5 43t5.5 47zM321 -116h-99v110h99v-110z
M319 215q-9 -20 -38 -20q-14 0 -22 6q-21 11 -21 38q0 13 7 24q11 20 39 20q14 0 21 -7q20 -10 20 -39q0 -12 -6 -22z" />
    <glyph glyph-name="uni0C26_uni0C3F.abvs" horiz-adv-x="587" 
d="M562 237q0 -95 -44 -159q-26 -34 -67 -60.5t-75 -26.5q-58 0 -101 45h-8q-58 -42 -98 -42q-68 0 -109.5 51t-41.5 115q0 72 75 142v5q-32 43 -32 77q0 43 37 84q58 58 177 58q70 0 121 -18t92 -63q74 -80 74 -208zM245 400q0 15 -13.5 26.5t-28.5 11.5q-38 0 -38 -38
q0 -15 10.5 -27.5t27.5 -12.5q42 0 42 40zM476 241q0 83 -42 137q-38 45 -101 45q0 -68 -56 -122q-39 -37 -106 -37q-46 -28 -46 -85q0 -77 55 -77q60 0 60 71q-1 1 -2 12h92q0 -30 4 -42q12 -43 58 -43q37 0 63 51q10 22 15.5 43t5.5 47z" />
    <glyph glyph-name="uni0C27_uni0C3F.abvs" horiz-adv-x="587" 
d="M562 237q0 -95 -44 -159q-26 -34 -67 -60.5t-75 -26.5q-58 0 -101 45h-8q-58 -42 -98 -42q-68 0 -109.5 51t-41.5 115q0 72 75 142v5q-32 43 -32 77q0 43 37 84q58 58 177 58q70 0 121 -18t92 -63q74 -80 74 -208zM245 400q0 15 -13.5 26.5t-28.5 11.5q-38 0 -38 -38
q0 -15 10.5 -27.5t27.5 -12.5q42 0 42 40zM476 241q0 83 -42 137q-38 45 -101 45q0 -68 -56 -122q-39 -37 -106 -37q-46 -28 -46 -85q0 -77 55 -77q60 0 60 71q-1 1 -2 12h92q0 -30 4 -42q12 -43 58 -43q37 0 63 51q10 22 15.5 43t5.5 47zM321 -118h-99v112h99v-112z" />
    <glyph glyph-name="uni0C28_uni0C3F.abvs" horiz-adv-x="603" 
d="M578 264q0 -90 -43 -165q-58 -108 -175 -108q-61 0 -97 34t-40 82q0 60 -8 77q-12 36 -45 36q-52 0 -52 -72q0 -79 91 -154h-122q-26 12 -47.5 59t-21.5 95q0 77 47.5 122.5t112.5 45.5q121 0 150 -119l18 -70q11 -28 41 -28q41 0 68 60q22 50 22 104q0 64 -49 122
q-28 32 -60.5 51t-68.5 19l3 -29q-9 -39 -56 -66q-42 -19 -94 -19q-103 0 -103 96q0 86 161 111l54 3q152 0 238 -93q76 -84 76 -194zM202 431q0 25 -35 25q-33 0 -33 -25q0 -29 33 -29q11 0 21 8t14 21z" />
    <glyph glyph-name="uni0C2A_uni0C3F.abvs" horiz-adv-x="598" 
d="M573 218q0 -92 -55 -159.5t-139 -67.5q-62 0 -103 45q-37 -45 -119 -45q-67 0 -104 47q-35 40 -35 99q0 58 39 99q42 51 128 51q60 0 104 -48t44 -108q13 -40 54 -40q38 0 62.5 38t24.5 84q0 135 -130 135v102q56 0 97 -16.5t75 -55.5q57 -70 57 -160zM231 141
q0 23 -18 39q-14 19 -41 19q-54 0 -54 -62q0 -54 54 -54q25 0 42 16t17 42zM321 466q0 -69 -70 -130l-63 40q63 69 63 100q0 24 -17 30q0 -37 -37.5 -65.5t-81.5 -28.5q-40 0 -68.5 23.5t-28.5 67.5q0 39 37 79q44 45 120 45q68 0 109 -47q37 -47 37 -114zM177 517
q0 37 -33 37q-30 0 -30 -30q0 -40 31 -40q32 0 32 33z" />
    <glyph glyph-name="uni0C2B_uni0C3F.abvs" horiz-adv-x="598" 
d="M573 218q0 -92 -55 -159.5t-139 -67.5q-62 0 -103 45q-37 -45 -119 -45q-67 0 -104 47q-35 40 -35 99q0 58 39 99q42 51 128 51q60 0 104 -48t44 -108q13 -40 54 -40q38 0 62.5 38t24.5 84q0 135 -130 135v102q56 0 97 -16.5t75 -55.5q57 -70 57 -160zM231 141
q0 23 -18 39q-14 19 -41 19q-54 0 -54 -62q0 -54 54 -54q25 0 42 16t17 42zM325 -117h-101v111h101v-111zM321 466q0 -69 -70 -130l-63 40q63 69 63 100q0 24 -17 30q0 -37 -37.5 -65.5t-81.5 -28.5q-40 0 -68.5 23.5t-28.5 67.5q0 39 37 79q44 45 120 45q68 0 109 -47
q37 -47 37 -114zM177 517q0 37 -33 37q-30 0 -30 -30q0 -40 31 -40q32 0 32 33z" />
    <glyph glyph-name="uni0C2C_uni0C3F.abvs" horiz-adv-x="661" 
d="M636 249q0 -105 -53 -179q-59 -79 -149 -79q-51 0 -91.5 20.5t-45.5 45.5q-32 -64 -132 -64q-66 0 -106.5 47.5t-40.5 113.5q0 35 19 66.5t44 45.5l71 24q51 18 51 53q0 16 -14 28.5t-32 12.5q-39 0 -39 -76h-99q1 15 2.5 29.5t6.5 27.5q39 100 160 100q43 0 74 -32
q30 -33 30 -72q0 -81 -74 -125l-61 -24q-35 -18 -35 -64q0 -52 63 -52q82 0 82 87h84q-9 -86 79 -86q53 0 88 56q24 41 24 90q0 46 -14 65q-12 -19 -45 -39q-39 -21 -70 -21t-53 15q-53 32 -53 102q0 35 27 71q38 40 105 40q93 0 137 -57q28 -33 44 -78t16 -92zM463 350
q0 14 -13.5 27t-29.5 15q-23 0 -23 -23q0 -15 11 -27q12 -10 28 -13q27 0 27 21z" />
    <glyph glyph-name="uni0C2D_uni0C3F.abvs" horiz-adv-x="661" 
d="M636 249q0 -105 -53 -179q-59 -79 -149 -79q-51 0 -91.5 20.5t-45.5 45.5q-32 -64 -132 -64q-66 0 -106.5 47.5t-40.5 113.5q0 35 19 66.5t44 45.5l71 24q51 18 51 53q0 16 -14 28.5t-32 12.5q-39 0 -39 -76h-99q1 15 2.5 29.5t6.5 27.5q39 100 160 100q43 0 74 -32
q30 -33 30 -72q0 -81 -74 -125l-61 -24q-35 -18 -35 -64q0 -52 63 -52q82 0 82 87h84q-9 -86 79 -86q53 0 88 56q24 41 24 90q0 46 -14 65q-12 -19 -45 -39q-39 -21 -70 -21t-53 15q-53 32 -53 102q0 35 27 71q38 40 105 40q93 0 137 -57q28 -33 44 -78t16 -92zM463 350
q0 14 -13.5 27t-29.5 15q-23 0 -23 -23q0 -15 11 -27q12 -10 28 -13q27 0 27 21zM347 -117h-101v111h101v-111z" />
    <glyph glyph-name="uni0C2E_uni0C3F.abvs" horiz-adv-x="854" 
d="M233 141q0 23 -17.5 40.5t-40.5 17.5q-55 0 -55 -62q0 -54 55 -54q21 0 39.5 16t18.5 42zM210 439q0 21 -30 21q-42 0 -42 -27q0 -30 33 -30q15 0 26 10t13 26zM556 199l18 -55q25 -53 73 -53q40 0 67.5 44t27.5 92q0 43 -23 83q-31 49 -80 49l-37 -1v89l42 2
q77 0 131.5 -66.5t54.5 -166.5q0 -91 -60.5 -157t-140.5 -66q-85 0 -132 54l-4 4q-51 -57 -133 -57q-18 0 -46 12q-25 14 -30 29q-39 -44 -127 -44q-67 0 -104 47q-35 40 -35 99q0 58 39 99q45 51 128 51q60 0 104 -46.5t44 -109.5q0 -24 43 -24q39 0 66 53q25 46 25 104
q0 74 -52.5 130t-110.5 56q0 -28 -7.5 -49.5t-26.5 -40.5q-39 -33 -99 -33q-46 0 -81 21q-36 30 -36 69q0 123 165 123q140 0 201 -40q138 -97 138 -262q0 -26 -2 -39z" />
    <glyph glyph-name="uni0C2F_uni0C3F.abvs" horiz-adv-x="1089" 
d="M402 222q0 64 -41 99q-41 37 -101 37q-56 0 -95 -38q-40 -36 -40 -93q0 -60 36 -101q38 -36 93 -36q60 0 104 37.5t44 94.5zM495 174l16 -36q28 -47 76 -47q40 0 67 44t27 92q0 47 -24 83q-28 49 -79 49h-18l-19 -1v89h20l22 2q74 0 131.5 -65.5t57.5 -170.5l-3 -39
q20 -83 111 -83q37 0 69 46q29 41 29 90q0 43 -25 83q-29 49 -79 49h-18l-20 -1v89h21l21 2q79 0 132.5 -65.5t53.5 -167.5q0 -91 -60.5 -157t-140.5 -66q-101 0 -145 74q-63 -74 -152 -74q-84 0 -130 54l-11 12q-78 -65 -174 -65q-108 0 -170.5 68.5t-62.5 170.5
q0 89 76.5 154.5t172.5 65.5q98 0 166.5 -65.5t68.5 -165.5q0 -27 -7 -48z" />
    <glyph glyph-name="uni0C30_uni0C3F.abvs" horiz-adv-x="558" 
d="M534 269q0 -91 -50 -162q-75 -109 -214 -109q-108 0 -177 49q-75 53 -75 148q0 68 41 108l1 4q-5 20 -13 33.5t-8 34.5q0 57 47 98q57 50 159 50q125 0 207 -74.5t82 -179.5zM235 387q0 46 -39 46q-18 0 -29.5 -14t-14.5 -32q0 -44 44 -44q39 0 39 44zM429 252
q0 53 -27 99.5t-72 54.5h-5l1 -17q0 -66 -55 -103q-53 -34 -121 -34q-22 -13 -22 -63q0 -45 43 -74q39 -25 96 -25q74 0 116 47q46 46 46 115z" />
    <glyph glyph-name="uni0C31_uni0C3F.abvs" horiz-adv-x="634" 
d="M419 609q-7 18 -38 18h-15q-6 -4 -7 -24q0 -29 43 -29q17 0 17 35zM213 334q0 40 -33 40q-36 0 -36 -40q0 -38 36 -38q33 0 33 38zM528 422q27 -21 43 -47q38 -65 38 -162q0 -88 -49 -151q-53 -68 -136 -68q-78 0 -126 54q-17 -54 -123 -54q-68 0 -112.5 56.5
t-44.5 135.5q0 101 37 177q44 92 130 92q39 0 71 -27.5t32 -66.5q0 -60 -32 -98h62q-11 29 -11 55q0 51 34 92q-21 6 -38 18t-38 30l63 40q34 -39 102 -39q17 0 31.5 6t32.5 22q35 27 35 62q0 36 -35 56q0 -40 -37 -71q-18 -11 -32.5 -16t-32.5 -5q-105 0 -105 92
q0 35 31 65q39 34 105 34q77 0 128 -45t51 -117q0 -50 -46 -97zM515 234q0 46 -21 82q-23 44 -64 44q-37 0 -37 -39q0 -41 46 -56v-94h-257v47q-6 -5 -15.5 -6t-12.5 -1q-13 0 -25 9l-5 -36q0 -40 19 -74.5t59 -34.5q55 0 55 72h110l-2 -20q0 -42 50 -42q51 0 77 47
q23 42 23 102z" />
    <glyph glyph-name="uni0C32_uni0C3F.abvs" horiz-adv-x="560" 
d="M535 291q0 -116 -59 -195q-76 -103 -230 -103q-92 0 -160 56.5t-68 136.5q0 151 139 151q46 0 78 -32t32 -85q0 -67 -87 -118q38 -17 80 -17q74 0 124 47q57 57 57 162q0 75 -53 137q-43 48 -96 56q6 -11 6 -22q0 -36 -31 -65q-33 -39 -92 -39q-61 0 -90 21t-29 70
q0 124 151 124q80 0 140.5 -20.5t103.5 -64.5q84 -85 84 -200zM210 470q0 27 -40 27q-29 0 -29 -39q0 -18 36 -18q33 0 33 30zM192 221q0 47 -47 47q-38 0 -38 -53q0 -41 45 -41q40 0 40 47z" />
    <glyph glyph-name="uni0C33_uni0C3F.abvs" horiz-adv-x="590" 
d="M566 419q0 -82 -109 -144q77 -38 77 -121q0 -75 -77 -119q-71 -42 -168 -42q-92 0 -147 41t-55 112q0 56 54 101q-123 48 -123 148q0 45 37 89q43 50 110 50q58 0 93 -33t35 -75q0 -65 -87 -99q6 -21 98 -21q110 0 110 31q-28 -4 -58 13q-46 35 -46 87q0 31 31 63
q35 42 89 42q52 0 88 -24q48 -36 48 -99zM463 442q0 32 -37 32q-29 0 -29 -35q0 -29 32 -29q34 0 34 32zM197 431q0 35 -45 35q-39 0 -39 -39q0 -36 53 -36q11 0 22 12q10 10 9 28zM433 153q0 32 -40 54q-34 15 -76 15q-46 0 -82.5 -18t-36.5 -56q0 -23 36 -44q9 -4 26 -11
t38 -7q44 0 83 15q52 16 52 52z" />
    <glyph glyph-name="uni0C35_uni0C3F.abvs" horiz-adv-x="583" 
d="M558 238q0 -78 -35 -144q-55 -100 -163 -100q-18 0 -46 12q-25 14 -30 29q-39 -44 -127 -44q-67 0 -104 47q-35 40 -35 99q0 58 39 99q45 51 128 51q60 0 104 -46.5t44 -109.5q0 -24 43 -24q39 0 66 53q25 46 25 104q0 74 -52.5 130t-110.5 56q0 -28 -7.5 -49.5
t-26.5 -40.5q-39 -33 -99 -33q-46 0 -81 21q-36 30 -36 69q0 123 165 123q140 0 201 -40q138 -97 138 -262zM210 439q0 21 -30 21q-42 0 -42 -27q0 -30 33 -30q15 0 26 10t13 26zM233 141q0 23 -17.5 40.5t-40.5 17.5q-55 0 -55 -62q0 -54 55 -54q21 0 39.5 16t18.5 42z" />
    <glyph glyph-name="uni0C36_uni0C3F.abvs" horiz-adv-x="631" 
d="M606 173q0 -72 -64 -126t-142 -54q-76 0 -129 46.5t-53 124.5q0 57 32 104q-52 0 -89 -41q-32 -35 -32 -74l1 -16h-112q0 54 26.5 98t75.5 75q84 53 208 53l79 -3q84 48 84 98q0 40 -21 43q0 -52 -41 -84q-31 -22 -80 -22q-47 0 -82.5 23.5t-35.5 71.5q0 58 51.5 92.5
t133.5 34.5q75 0 123 -51q44 -43 44 -108q0 -32 -23 -69l-45 -57q26 -4 58.5 -54t32.5 -105zM388 498q0 33 -34 33q-36 0 -36 -33q0 -32 36 -32q34 0 34 32zM498 169q0 36 -24 63t-61 27t-62.5 -26t-25.5 -64q0 -91 83 -91q36 0 63 28t27 63z" />
    <glyph glyph-name="uni0C37_uni0C3F.abvs" horiz-adv-x="635" 
d="M610 -99q-34 -19 -63 -31.5t-47 -12.5q-39 32 -39 115v27q4 16 5 22l-38 -19q-26 -11 -61 -11q-75 0 -100 51q-36 -48 -100 -48q-65 0 -107 47.5t-42 106.5q0 68 45.5 114t119.5 46q79 0 121 -70q14 -22 24.5 -50.5t10.5 -56.5q17 -37 49 -37q31 0 59 37q27 38 27 80
q0 48 -19 80q-25 43 -66 43h-33v105q11 5 42 5q73 0 118 -58q50 -68 50 -195v-48q-4 -26 -5 -38q-5 -46 -5.5 -54t-0.5 -32q0 -98 55 -118zM229 157q0 58 -49 58q-55 0 -55 -61q0 -57 55 -57q12 0 30.5 20t18.5 40zM325 466q0 -69 -71 -130l-63 40q63 69 63 100q0 24 -18 30
q0 -37 -37 -65.5t-81 -28.5q-41 0 -69.5 23.5t-28.5 67.5q0 39 37 79q45 45 120 45q68 0 110 -47q38 -47 38 -114zM180 517q0 37 -32 37q-31 0 -31 -30q0 -40 32 -40q31 0 31 33z" />
    <glyph glyph-name="uni0C38_uni0C3F.abvs" horiz-adv-x="603" 
d="M578 225q0 -79 -41 -142q-55 -93 -159 -93q-84 0 -119 54q-9 15 -34 102q-17 54 -55 54q-45 0 -45 -63q0 -47 26 -84l43 -59h-122q-54 69 -54 132q0 69 37 116q43 54 133 54q68 0 105 -53l40 -97q21 -55 55 -55q35 0 67 37q13 19 21 41t8 49q0 47 -31.5 85.5t-74.5 38.5
l-24 -5v107q107 0 165.5 -61t58.5 -158zM321 466q0 -69 -70 -130l-63 40q63 69 63 100q0 24 -17 30q0 -37 -37.5 -65.5t-81.5 -28.5q-40 0 -68.5 23.5t-28.5 67.5q0 39 37 79q44 45 120 45q68 0 109 -47q37 -47 37 -114zM177 517q0 37 -33 37q-30 0 -30 -30q0 -40 31 -40
q32 0 32 33z" />
    <glyph glyph-name="uni0C39_uni0C3F.abvs" horiz-adv-x="926" 
d="M324 466q0 -69 -72 -130l-63 40q63 69 63 100q0 24 -17 30q0 -37 -37 -65.5t-81 -28.5q-41 0 -69.5 23.5t-28.5 67.5q0 39 37 79q45 45 120 45q68 0 110 -47q38 -47 38 -114zM178 517q0 37 -33 37q-30 0 -30 -30q0 -40 33 -40q30 0 30 33zM787 207q0 36 -41 36
q-45 0 -45 -38q0 -45 41 -45q45 0 45 47zM231 141q0 23 -17 40.5t-42 17.5q-55 0 -55 -62q0 -54 55 -54q25 0 42 16t17 42zM534 363q21 -34 30.5 -74t9.5 -95q0 -71 -54 -134q-58 -69 -149 -69q-57 0 -95 45q-40 -45 -120 -45q-68 0 -106 47q-32 40 -32 99q0 60 38 99
q45 51 127 51q61 0 105.5 -48t44.5 -108q11 -34 49 -34h14q28 0 55 36t27 80q0 39 -24 89q-33 61 -78 61h-35v89h257q157 0 189 -13q114 -44 114 -191q0 -69 -49 -126.5t-123 -57.5q-51 0 -88.5 37t-37.5 87q0 62 37.5 100.5t107.5 38.5l45 -5q-21 26 -58 33.5t-124 7.5h-77
z" />
    <glyph glyph-name="uni0C15_uni0C3F_uni0C37_uni0C4D" horiz-adv-x="568" 
d="M244 609q-9 18 -38 18h-15q-6 -4 -9 -24q0 -29 43 -29q19 0 19 35zM373 439q90 -29 90 -115h-98q-11 25 -45 39q-13 8 -26 9.5t-33 1.5q-95 0 -95 -63q0 -41 84 -41l43 11q40 10 78 10q59 0 92 -38q28 -27 28 -70q0 -72 -72 -130.5t-158 -58.5q-111 0 -174 62
q-48 45 -48 102h104q0 -27 37 -50.5t86 -23.5q59 0 90.5 23.5t31.5 47.5q0 46 -54 46l-56 -9l-71 -7q-55 0 -100 33q-51 35 -51 92q0 44 52 90l30 22q-26 16 -48 36l62 40q36 -39 104 -39q30 0 63 27.5t33 62.5q0 37 -33 56q0 -40 -38 -71q-17 -11 -32 -16t-32 -5
q-106 0 -106 92q0 35 32 65q38 34 104 34q79 0 129 -45t50 -117q0 -51 -45 -97zM544 -255l-61 -40q-27 32 -27 70v46q-60 -28 -86 -28q-41 0 -94 45q-29 -49 -115 -49q-59 0 -101 47.5t-42 100.5q0 21 7 42l86 -2l-2 -15l-1 -18q0 -27 18.5 -47t49.5 -20q67 0 67 65l-4 15
l-1 13h91l-1 -13l-3 -15q0 -60 53 -60q25 0 45 18q16 22 16 44q0 31 -26 44l39 44q78 -34 78 -126l-2 -44l-4 -43q0 -60 20 -74z" />
    <glyph glyph-name="uni0C15_uni0C40.abvs" horiz-adv-x="494" 
d="M223 612q-8 16 -38 16l-15 -1q-5 -4 -8 -24q0 -29 44 -29q17 0 17 38zM354 439q88 -29 88 -115h-98q-11 25 -43 39q-14 8 -27 9.5t-34 1.5q-95 0 -95 -63q0 -41 85 -41l43 11q40 10 78 10q59 0 91 -38q28 -27 28 -70q0 -72 -71 -130.5t-159 -58.5q-111 0 -173 62
q-49 45 -49 102h105q0 -27 36.5 -50.5t86.5 -23.5q58 0 90 23.5t32 47.5q0 46 -54 46l-55 -9l-73 -7q-54 0 -100 33q-51 35 -51 92q0 44 52 90l30 22q-8 4 -22.5 16t-24.5 20l64 42q31 -40 101 -40q29 0 62 27t33 62q0 37 -31 57q0 -42 -39 -71q-29 -21 -64 -21
q-106 0 -106 92q0 52 61 84q-19 12 -23 44q0 48 35 78.5t89 30.5q46 0 77 -35q30 -33 26 -69h-75q-9 42 -35 42q-33 0 -33 -28q0 -29 15 -49q83 0 132 -46q48 -42 48 -116q0 -51 -47 -97z" />
    <glyph glyph-name="uni0C16_uni0C40.abvs" horiz-adv-x="689" 
d="M664 227q0 -96 -63.5 -162t-156.5 -66q-47 0 -68.5 6t-62.5 46q-24 -25 -75 -45q-21 -7 -41 -11t-38 -4q-60 0 -98 26q-43 27 -43 80q0 49 48 83.5t105 34.5q88 0 141 -40q21 93 5.5 127t-33.5 35q-9 -42 -40 -73q-9 -9 -32 -21q-34 -14 -53 -14q-63 0 -99.5 31.5
t-36.5 84.5q0 56 75 102q40 26 109 26q96 0 161 -70q48 -53 48 -156q0 -25 -9 -66q-11 -33 -28 -50q3 -19 24.5 -30.5t43.5 -11.5q42 0 78 34q40 44 40 102q0 45 -23 83q-27 41 -77 41l-31 -4v99q33 -4 65 21t32 59q0 11 -7 30q-46 -73 -110 -73q-49 0 -85 26.5t-36 84.5
t67 94q-18 53 -18 63q0 55 55 97q47 35 101 35q112 0 112 -136h-92q0 47 -37 47q-42 0 -42 -36q0 -35 26 -53l16 4q50 0 91 -46q44 -54 44 -122q0 -65 -51 -116q99 -63 99 -196zM450 593q0 35 -31 35q-33 0 -33 -35q0 -28 33 -28q31 0 31 28zM186 345q0 34 -32 34
q-31 0 -31 -34q0 -30 31 -30q32 0 32 30zM244 111q-27 22 -66 22q-54 0 -54 -23q0 -26 47 -26q53 0 73 27zM360 -116h-101v110h101v-110z" />
    <glyph glyph-name="uni0C17_uni0C40.abvs" horiz-adv-x="603" 
d="M578 233q0 -166 -134 -239l-69 84q93 36 93 155q0 70 -51 113.5t-123 43.5q-70 0 -119 -49q-48 -55 -48 -131q0 -96 80 -126l-63 -94q-126 75 -126 212q0 140 104 224l-39 32l78 64q22 -24 45 -31t74 -7q40 0 77 27q35 29 35 66q0 46 -41 46q-4 -14 -15 -28.5t-32 -26.5
q-43 -29 -89 -29q-50 0 -82 30.5t-32 74.5q0 33 33 65q27 28 57 28q-10 18 -17 39t-7 42q0 52 41.5 86.5t109.5 34.5q64 0 105 -35q40 -38 40 -89l-1 -18l-95 -1q0 53 -62 53q-41 0 -41 -47q0 -22 25 -47l16 1q37 0 87 -24q33 -16 68 -58q24 -42 24 -87q0 -49 -21 -86
l-34 -37q149 -86 149 -231zM273 643q0 21 -37 21q-34 0 -38 -24q0 -22 41 -22q34 0 34 25z" />
    <glyph glyph-name="uni0C18_uni0C40.abvs" horiz-adv-x="874" 
d="M177 517q0 37 -33 37q-30 0 -30 -30q0 -40 31 -40q32 0 32 33zM393 629h-112l3 24q0 60 -41 60q-47 0 -47 -46l6 -38q119 -41 119 -163q0 -69 -70 -130l-63 40q63 69 63 100q0 24 -17 30q0 -37 -37.5 -65.5t-81.5 -28.5q-40 0 -68.5 23.5t-28.5 67.5q0 57 70 102
q2 9 -3 29q-15 88 50 128q53 37 115 37q79 0 116 -56q27 -46 27 -114zM231 141q0 23 -18 39q-14 19 -41 19q-54 0 -54 -62q0 -54 54 -54q25 0 42 16t17 42zM573 212l22 -68q23 -53 73 -53q40 0 67 44t27 92q0 47 -25 83q-28 49 -79 49l-38 -1v89l43 2q79 0 133 -66.5
t54 -166.5q0 -90 -59.5 -156.5t-143.5 -66.5q-85 0 -129 54l-4 5q-54 -61 -135 -61q-62 0 -103 45q-37 -45 -119 -45q-67 0 -104 47q-35 40 -35 99q0 58 39 99q42 51 128 51q60 0 104 -48t44 -108q13 -40 54 -40q38 0 62.5 38t24.5 84q0 135 -130 135v102q56 0 97 -16.5
t75 -55.5q57 -70 57 -160v-6zM325 -116h-101v110h101v-110z" />
    <glyph glyph-name="uni0C19_uni0C40.abvs" horiz-adv-x="579" 
d="M370 656q-4 18 -39 18l-13 -2q-6 -3 -6 -24q0 -29 42 -29q16 0 16 37zM436 447v-28h67v-91h-204q0 -44 -29.5 -73.5t-88.5 -46t-59 -67.5q0 -57 54 -57q22 0 49 18q6 5 14 17t10 27v33h95l1 -51q0 -12 16.5 -26t38.5 -17q23 0 41 17q20 23 20 50q0 50 -47 50
q-22 0 -33 -3v95q100 0 128 -29q42 -44 42 -111q0 -65 -54 -116q-48 -45 -101 -45q-94 0 -116 55q-3 -20 -31 -39q-34 -18 -79 -18q-57 0 -100 35q-50 39 -50 105q0 124 108 149q78 16 78 54q0 15 -12 34q-9 13 -24 16q-18 0 -32 -17t-14 -31l3 -14h-109q0 47 25 88
q38 64 124 64q77 0 113 -57h64v25q-72 10 -127 64l64 41q33 -40 101 -40q31 0 62 25q35 31 35 61q0 39 -32 57q-5 -42 -39 -69q-32 -20 -64 -20q-105 0 -105 89q0 54 62 87q-18 12 -26 43q0 47 36 77t91 30q45 0 74 -32.5t26 -69.5h-74q-8 40 -35 40q-33 0 -33 -27
q0 -31 15 -47q82 0 130 -48q50 -44 50 -115q0 -51 -47 -96q-31 -33 -72 -45z" />
    <glyph glyph-name="uni0C1A_uni0C40.abvs" horiz-adv-x="701" 
d="M677 268q0 -100 -40 -177q-54 -100 -163 -100q-35 0 -63 19.5t-28 37.5q-28 -55 -126 -55q-66 0 -113 46q-42 50 -42 120q0 12 27 88h-111v80h247v-70q-21 0 -40 -31q-3 -8 -10.5 -25t-7.5 -34q0 -36 19.5 -63.5t50.5 -27.5q53 0 53 76l-1 43h104v-43q0 -22 21 -41
q19 -15 43 -15q39 0 66 55q24 43 24 101q0 81 -57 139q4 -30 -38 -64q-41 -33 -93 -33q-48 0 -89 34q-38 33 -38 85q0 51 46 84q15 11 36 16q-14 26 -14 53q0 13 1 20q13 63 61 96q45 26 92 26l41 -5q60 -12 89 -54q23 -35 23 -74l-1 -17l-10 -24l-95 17l3 29q0 33 -42 41
l-19 2q-44 0 -57 -49q-3 -16 10 -43q126 0 196 -113q45 -68 45 -150zM435 412q5 35 -30 43t-43 -24q-5 -35 25 -44q6 -1 10.5 -1h5.5q26 0 32 26z" />
    <glyph glyph-name="uni0C1B_uni0C40.abvs" horiz-adv-x="701" 
d="M677 268q0 -100 -40 -177q-54 -100 -163 -100q-35 0 -63 19.5t-28 37.5q-28 -55 -126 -55q-66 0 -113 46q-42 50 -42 120q0 12 27 88h-111v80h247v-70q-21 0 -40 -31q-3 -8 -10.5 -25t-7.5 -34q0 -36 19.5 -63.5t50.5 -27.5q53 0 53 76l-1 43h104v-43q0 -22 21 -41
q19 -15 43 -15q39 0 66 55q24 43 24 101q0 81 -57 139q4 -30 -38 -64q-41 -33 -93 -33q-48 0 -89 34q-38 33 -38 85q0 51 46 84q15 11 36 16q-14 26 -14 53q0 13 1 20q13 63 61 96q45 26 92 26l41 -5q60 -12 89 -54q23 -35 23 -74l-1 -17l-10 -24l-95 17l3 29q0 33 -42 41
l-19 2q-44 0 -57 -49q-3 -16 10 -43q126 0 196 -113q45 -68 45 -150zM435 412q5 35 -30 43t-43 -24q-5 -35 25 -44q6 -1 10.5 -1h5.5q26 0 32 26zM425 -117h-101v111h101v-111z" />
    <glyph glyph-name="uni0C1C_uni0C40.abvs" horiz-adv-x="603" 
d="M576 547h-84l2 16q0 17 -14 31.5t-31 14.5q-37 0 -37 -44q0 -20 30 -46q50 0 88 -42q31 -38 31 -95q0 -51 -30 -91q-44 -62 -150 -62q-24 0 -55.5 17t-41.5 33q-7 -38 -85 -61q-69 -19 -69 -81q0 -17 14 -32q15 -20 42 -20q65 0 65 75v18h103q-3 -4 -7 -20
q0 -31 19.5 -55t43.5 -24q23 0 42 16.5t19 41.5q0 22 -16 49h106q13 -84 -27 -126q-31 -34 -57 -44q-48 -20 -85 -20q-57 0 -103 53q-30 -55 -117 -55q-32 0 -71 18q-78 44 -78 125q0 34 19 73t44 55l81 30q42 13 42 46q0 35 -39 35q-55 0 -55 -39l3 -26h-98l-1 10l-1 8
q0 66 59 98q46 28 108 28q45 0 72 -23q9 -13 31 -51q29 -63 87 -63q44 0 72 16q35 21 35 55q0 27 -8 34q3 -22 -27.5 -44t-68.5 -22q-33 0 -61 24.5t-28 57.5q0 24 18 42q18 16 32 20q-21 27 -21 62q0 54 40.5 89.5t98.5 35.5q59 0 94 -49q27 -38 25 -92zM415 437
q0 21 -27 21q-21 0 -21 -27q0 -21 29 -21l6 2t8 8t5 17z" />
    <glyph glyph-name="uni0C1D_uni0C40.abvs" horiz-adv-x="1130" 
d="M449 252q0 53 -26.5 99.5t-71.5 54.5l-5 -17q0 -66 -53.5 -101.5t-122.5 -35.5q-22 -14 -22 -63q0 -46 42.5 -72.5t97.5 -26.5q71 0 116 47t45 115zM254 387q0 46 -39 46q-18 0 -29 -15.5t-14 -30.5q0 -44 43 -44q39 0 39 44zM810 -116h-101v110h101v-110zM537 171
l14 -33q27 -47 76 -47q39 0 66.5 44t27.5 92q0 47 -23 83q-30 49 -80 49h-18l-18 -1v89h20l21 2q75 0 132.5 -65.5t57.5 -170.5q0 -27 -4 -39q21 -83 110 -83q39 0 70 46q28 41 28 90q0 43 -23 83q-31 49 -82 49h-16l-19 -1v89h21l21 2q77 0 131.5 -66.5t54.5 -166.5
q0 -91 -60.5 -157t-141.5 -66q-100 0 -145 74q-63 -74 -152 -74q-83 0 -129 54l-12 15q-68 -64 -176 -64q-107 0 -176 49q-76 53 -76 148q0 68 43 108q-62 153 77 197l2 8q-25 34 -25 88q0 70 43 112q41 40 90 40q61 0 96 -39t35 -93q0 -20 -2 -28l-89 2l1 10l2 13
q0 16 -11 29.5t-33 16.5q-48 0 -48 -59q0 -42 32 -77l6 -1l8 1q132 0 211.5 -74.5t79.5 -179.5q0 -53 -18 -98z" />
    <glyph glyph-name="uni0C1E_uni0C40.abvs" horiz-adv-x="869" 
d="M419 619q-7 16 -38 16l-15 -1q-6 -5 -6 -22q0 -31 42 -31q17 0 17 38zM378 107q-47 39 -97 39q-24 0 -37 -3l-31 -9q-15 -3 -20 -14l-2 -9q0 -14 21 -25t59 -11q15 -1 20 -1q44 0 87 33zM516 422l9 -10q25 -27 36 -59t11 -74h39v69h111v-67h123v-93h-111v-74h-120v74
l-42 -8l-30 -50l67 -114l-85 -62l-67 99q-38 -32 -85 -46t-102 -14q-95 0 -146.5 29.5t-51.5 82.5q0 96 190 121l45 2q64 0 129 -37q25 32 25 77q0 39 -15 73q-18 37 -43 37q-27 0 -42.5 -23t-15.5 -50l2 -24h-117q0 90 -65 90q-35 0 -35 -44q-3 -44 25 -61h-126
q-11 34 -11 52q0 57 46.5 98.5t104.5 48.5q28 0 44 -1t27 -9l48 -29l14 13q-11 8 -20 13.5t-17 15.5l64 40q33 -39 101 -39q32 0 63 26q36 29 36 63t-34 56q-3 -43 -39 -69q-28 -22 -64 -22q-104 0 -104 91q0 55 59 84q-17 14 -23 43q0 50 34.5 79.5t90.5 29.5q44 0 76 -33
q30 -34 25 -69h-74q-9 42 -36 42q-31 0 -31 -29q0 -31 15 -48q81 0 131 -46q48 -45 48 -116q0 -51 -47 -97q-17 -18 -40 -32z" />
    <glyph glyph-name="uni0C1F_uni0C40.abvs" horiz-adv-x="657" 
d="M447 601q-5 17 -37 17l-13 -1q-5 -1 -9 -25q0 -28 42 -28q17 0 17 37zM235 341q0 16 -12.5 28t-28.5 15q-13 0 -26 -13t-13 -30q0 -46 39 -46q15 0 27 13.5t14 32.5zM547 406l24 -24q53 -66 53 -166q0 -91 -54 -157t-136 -66q-87 0 -122 67q-36 -67 -115 -67
q-74 0 -126.5 70.5t-52.5 165.5q0 86 31 146q36 69 96 78v143h82v-138q32 -5 60 -29q38 -34 38 -92t-43 -96.5t-105 -38.5q-59 0 -75 39q0 -70 33 -114q27 -37 68 -37q30 0 50 30.5t20 60.5h99l3 -17q3 -6 3 -16q0 -23 25 -43q11 -6 20.5 -10t18.5 -5q40 0 69 44
q24 45 24 93q0 88 -67 132l-54 28q-69 13 -120 63l65 41q34 -39 102 -39q30 0 62 24q34 31 34 63q0 37 -32 56q0 -40 -41 -69q-29 -20 -61 -20q-106 0 -106 89q0 54 61 86q-18 12 -24 43q0 51 35.5 79.5t89.5 28.5q46 0 75.5 -32.5t24.5 -70.5h-74q-8 41 -34 41
q-34 0 -34 -27q0 -31 17 -47q41 0 72 -10.5t58 -36.5q48 -44 48 -116q0 -49 -45 -96q-8 -10 -12 -14t-28 -17z" />
    <glyph glyph-name="uni0C20_uni0C40.abvs" horiz-adv-x="560" 
d="M301 199q-12 -20 -40 -20q-12 0 -22 5q-20 11 -20 41q0 12 6 22q11 21 39 21q11 0 26 -9.5t15 -36.5q0 -12 -4 -23zM535 269q0 -90 -51 -162q-75 -109 -214 -109q-108 0 -177 49q-75 53 -75 148q0 68 42 108q-5 20 -13 37.5t-8 34.5q0 43 23.5 72.5t75.5 52.5l2 8
q-26 34 -26 88q0 70 42 112q42 40 93 40q59 0 94 -39t35 -93q0 -20 -3 -28l-87 2l1 10l2 13q0 16 -12 29.5t-32 16.5q-49 0 -49 -59q0 -42 33 -77l5 -1l9 1q130 0 210 -74.5t80 -179.5zM235 387q0 46 -39 46q-18 0 -30 -15.5t-14 -30.5q0 -44 44 -44q39 0 39 44zM429 252
q0 53 -27 99.5t-72 54.5l-4 -17q0 -66 -53.5 -101.5t-122.5 -35.5q-22 -14 -22 -63q0 -46 42 -72.5t97 -26.5q73 0 117.5 47t44.5 115z" />
    <glyph glyph-name="uni0C21_uni0C40.abvs" horiz-adv-x="577" 
d="M289 618q-8 21 -40 21q-9 0 -12 -1t-8.5 -4.5t-5.5 -26.5q0 -15 16.5 -23.5t30.5 -8.5q19 0 19 43zM433 450h41v-81h-212q-73 0 -114 -47q-36 -43 -36 -111q0 -52 21.5 -87t59.5 -35q19 0 40 25q16 28 16 55l-3 19h101l-2 -21q0 -70 57 -70q24 0 44 25t20 51t-17 42
q-12 14 -30 18q-35 0 -48 -11v101q21 6 43 6q35 0 63 -19q75 -46 75 -137q0 -87 -54 -140q-48 -40 -115 -40q-55 0 -96 51q-38 -53 -115 -53q-71 0 -113 69q-19 31 -30 69t-11 78q0 108 58 171q33 37 80 55q-15 11 -28 25l65 42q34 -40 106 -40q27 0 67 30q33 28 33 61
q0 36 -33 58q-5 -45 -41 -72q-32 -20 -66 -20q-109 0 -109 92q0 58 62 87q-20 15 -24 45q0 50 36.5 81t92.5 31q45 0 80 -35q28 -35 24 -73h-76q-10 45 -37 45q-33 0 -33 -29v-24q1 -9 16 -24q82 0 133.5 -48.5t51.5 -119.5q0 -47 -43 -95z" />
    <glyph glyph-name="uni0C22_uni0C40.abvs" horiz-adv-x="577" 
d="M289 618q-8 21 -40 21q-9 0 -12 -1t-8.5 -4.5t-5.5 -26.5q0 -15 16.5 -23.5t30.5 -8.5q19 0 19 43zM433 450h41v-81h-212q-73 0 -114 -47q-36 -43 -36 -111q0 -52 21.5 -87t59.5 -35q19 0 40 25q16 28 16 55l-3 19h101l-2 -21q0 -70 57 -70q24 0 44 25t20 51t-17 42
q-12 14 -30 18q-35 0 -48 -11v101q21 6 43 6q35 0 63 -19q75 -46 75 -137q0 -87 -54 -140q-48 -40 -115 -40q-55 0 -96 51q-38 -53 -115 -53q-71 0 -113 69q-19 31 -30 69t-11 78q0 108 58 171q33 37 80 55q-15 11 -28 25l65 42q34 -40 106 -40q27 0 67 30q33 28 33 61
q0 36 -33 58q-5 -45 -41 -72q-32 -20 -66 -20q-109 0 -109 92q0 58 62 87q-20 15 -24 45q0 50 36.5 81t92.5 31q45 0 80 -35q28 -35 24 -73h-76q-10 45 -37 45q-33 0 -33 -29v-24q1 -9 16 -24q82 0 133.5 -48.5t51.5 -119.5q0 -47 -43 -95zM340 -117h-102v111h102v-111z" />
    <glyph glyph-name="uni0C23_uni0C40.abvs" horiz-adv-x="599" 
d="M389 609q-6 18 -35 18l-15 -1q-6 -3 -9 -25q0 -29 42 -29q17 0 17 37zM441 118q0 19 -13.5 35.5t-34.5 17.5q-15 0 -32 -16q-14 -18 -14 -34q0 -48 50 -48q44 0 44 45zM492 415q17 -17 36 -42q35 -68 35 -151q0 -80 -33 -148q-46 -81 -132 -81q-56 0 -96 31.5t-40 87.5
q0 58 34 94t92 36q67 0 82 -24q0 30 -4 53t-19 46q-21 43 -63 43q-45 0 -45 -52h-96q0 26 -24 49q-21 17 -41 17q-56 0 -56 -40q0 -17 14 -32t33 -15q12 0 22 5v-81l-11 1q-25 0 -45 -20q-20 -22 -20 -48q0 -27 20.5 -41t46.5 -14q15 0 25 5v-93q-27 -7 -53 -7q-56 0 -97 34
q-38 35 -38 89q0 94 51 121q-52 28 -52 84q0 63 49 97q47 34 110 34q59 0 104 -43l10 7q-18 9 -25 15.5t-30 25.5l65 40q33 -39 101 -39q31 0 63 25q33 30 33 65q0 37 -31 56q0 -41 -39 -71q-13 -8 -27 -14.5t-36 -6.5q-106 0 -106 92q0 53 60 83q-17 13 -25 44
q0 51 36.5 79.5t90.5 28.5q45 0 76 -33q28 -32 24 -69h-74q-8 42 -34 42q-34 0 -34 -29q0 -27 17 -48q81 0 129.5 -45t48.5 -118q0 -47 -45 -96q-20 -18 -37 -29z" />
    <glyph glyph-name="uni0C24_uni0C40.abvs" horiz-adv-x="604" 
d="M579 243q0 -65 -38 -122.5t-99 -87.5q-72 -39 -153 -39q-83 0 -140 27q-131 55 -131 179q0 62 30 100q42 59 118 59q109 0 109 -107q0 -34 -30 -70t-73 -36q-31 0 -61 21q28 -88 181 -88q81 0 134 35q29 16 43 37.5t14 50.5q-57 -33 -95 -33q-96 0 -96 115q0 50 37 75.5
t85 25.5q-2 13 -8.5 25t-19.5 27q-21 26 -44 27q0 -20 -2 -27q0 -15 -11 -24q-37 -35 -111 -35q-42 0 -70 20q-36 20 -36 66q0 68 63 85l-9 54q0 66 49 106q47 36 105 36q56 0 94 -29q51 -35 51 -113h-97q0 20 -13.5 39t-36.5 19q-59 0 -59 -55q0 -34 32 -34q49 0 85 -21
q48 -24 89 -72q39 -56 39 -114q26 -7 48 -38q14 -22 20.5 -41.5t6.5 -42.5zM270 469q0 24 -40 24q-27 0 -27 -23q0 -7 15 -14t27 -7q21 0 25 20zM439 276q0 31 -30 31t-30 -26q0 -40 33 -40q27 0 27 35zM194 255q0 35 -35 35q-25 0 -25 -31q0 -37 38 -37q22 0 22 33z" />
    <glyph glyph-name="uni0C25_uni0C40.abvs" horiz-adv-x="587" 
d="M562 237q0 -95 -44 -159q-26 -34 -67 -60.5t-75 -26.5q-58 0 -101 45h-8q-58 -42 -98 -42q-68 0 -109.5 51t-41.5 115q0 72 75 142v5q-32 43 -32 77q0 31 20.5 64.5t59.5 47.5l4 1q-32 37 -32 103q0 69 40.5 109t93.5 40q61 0 95 -39t34 -93q0 -17 -3 -26h-86l1 12l1 11
q0 16 -12 31.5t-31 15.5q-49 0 -49 -60q0 -46 42 -82q15 3 31 5t33 2q111 0 185 -83t74 -206zM245 400q0 15 -13.5 26.5t-28.5 11.5q-38 0 -38 -38q0 -15 10.5 -27.5t27.5 -12.5q42 0 42 40zM476 241q0 83 -42 137q-38 45 -101 45q0 -68 -56 -122q-39 -37 -106 -37
q-46 -28 -46 -85q0 -77 55 -77q60 0 60 71q-1 1 -2 12h92q0 -30 4 -42q12 -43 58 -43q37 0 63 51q10 22 15.5 43t5.5 47zM321 -117h-99v111h99v-111zM319 215q-9 -20 -38 -20q-14 0 -22 6q-21 11 -21 38q0 13 7 24q11 20 39 20q14 0 21 -7q20 -10 20 -39q0 -12 -6 -22z" />
    <glyph glyph-name="uni0C26_uni0C40.abvs" horiz-adv-x="587" 
d="M562 237q0 -95 -44 -159q-26 -34 -67 -60.5t-75 -26.5q-58 0 -101 45h-8q-58 -42 -98 -42q-68 0 -109.5 51t-41.5 115q0 72 75 142v5q-32 43 -32 77q0 31 20.5 64.5t59.5 47.5l4 1q-32 37 -32 103q0 69 40.5 109t93.5 40q61 0 95 -39t34 -93q0 -17 -3 -26h-86l1 12l1 11
q0 16 -12 31.5t-31 15.5q-49 0 -49 -60q0 -46 42 -82q15 3 31 5t33 2q111 0 185 -83t74 -206zM245 400q0 15 -13.5 26.5t-28.5 11.5q-38 0 -38 -38q0 -15 10.5 -27.5t27.5 -12.5q42 0 42 40zM476 241q0 83 -42 137q-38 45 -101 45q0 -68 -56 -122q-39 -37 -106 -37
q-46 -28 -46 -85q0 -77 55 -77q60 0 60 71q-1 1 -2 12h92q0 -30 4 -42q12 -43 58 -43q37 0 63 51q10 22 15.5 43t5.5 47z" />
    <glyph glyph-name="uni0C27_uni0C40.abvs" horiz-adv-x="587" 
d="M562 237q0 -95 -44 -159q-26 -34 -67 -60.5t-75 -26.5q-58 0 -101 45h-8q-58 -42 -98 -42q-68 0 -109.5 51t-41.5 115q0 72 75 142v5q-32 43 -32 77q0 31 20.5 64.5t59.5 47.5l4 1q-32 37 -32 103q0 69 40.5 109t93.5 40q61 0 95 -39t34 -93q0 -17 -3 -26h-86l1 12l1 11
q0 16 -12 31.5t-31 15.5q-49 0 -49 -60q0 -46 42 -82q15 3 31 5t33 2q111 0 185 -83t74 -206zM245 400q0 15 -13.5 26.5t-28.5 11.5q-38 0 -38 -38q0 -15 10.5 -27.5t27.5 -12.5q42 0 42 40zM476 241q0 83 -42 137q-38 45 -101 45q0 -68 -56 -122q-39 -37 -106 -37
q-46 -28 -46 -85q0 -77 55 -77q60 0 60 71q-1 1 -2 12h92q0 -30 4 -42q12 -43 58 -43q37 0 63 51q10 22 15.5 43t5.5 47zM321 -117h-99v111h99v-111z" />
    <glyph glyph-name="uni0C28_uni0C40.abvs" horiz-adv-x="603" 
d="M578 264q0 -86 -43 -163q-58 -105 -175 -105q-61 0 -97 31.5t-40 79.5q0 60 -8 77q-12 36 -45 36q-52 0 -52 -72q0 -79 91 -154h-122q-26 12 -47.5 59t-21.5 95q0 77 47.5 122.5t112.5 45.5q121 0 150 -119l18 -67q11 -26 41 -26q39 0 68 58q22 47 22 101q0 64 -49 122
q-28 32 -60.5 51t-68.5 19l3 -29q-9 -39 -56 -66q-42 -19 -94 -19q-103 0 -103 96q0 82 103 97q-13 31 -13 56q0 54 36.5 87.5t100.5 33.5q108 0 137 -124h-92q-9 42 -48 42q-17 0 -29.5 -12t-14.5 -29q0 -19 15 -46q10 5 21.5 5h20.5q134 0 213 -86.5t79 -196.5zM202 431
q0 25 -35 25q-33 0 -33 -25q0 -29 33 -29q11 0 21 8t14 21z" />
    <glyph glyph-name="uni0C2A_uni0C40.abvs" horiz-adv-x="598" 
d="M573 218q0 -92 -55 -159.5t-139 -67.5q-62 0 -103 45q-37 -45 -119 -45q-67 0 -104 47q-35 40 -35 99q0 58 39 99q42 51 128 51q60 0 104 -48t44 -108q13 -40 54 -40q38 0 62.5 38t24.5 84q0 135 -130 135v102q56 0 97 -16.5t75 -55.5q57 -70 57 -160zM231 141
q0 23 -18 39q-14 19 -41 19q-54 0 -54 -62q0 -54 54 -54q25 0 42 16t17 42zM393 629h-112l3 24q0 60 -41 60q-47 0 -47 -46l6 -38q119 -41 119 -163q0 -69 -70 -130l-63 40q63 69 63 100q0 24 -17 30q0 -37 -37.5 -65.5t-81.5 -28.5q-40 0 -68.5 23.5t-28.5 67.5
q0 57 70 102q2 9 -3 29l-8 32q0 52 58 96q53 37 115 37q79 0 116 -56q27 -46 27 -114zM177 517q0 37 -33 37q-30 0 -30 -30q0 -40 31 -40q32 0 32 33z" />
    <glyph glyph-name="uni0C2B_uni0C40.abvs" horiz-adv-x="598" 
d="M573 218q0 -92 -55 -159.5t-139 -67.5q-62 0 -103 45q-37 -45 -119 -45q-67 0 -104 47q-35 40 -35 99q0 58 39 99q42 51 128 51q60 0 104 -48t44 -108q13 -40 54 -40q38 0 62.5 38t24.5 84q0 135 -130 135v102q56 0 97 -16.5t75 -55.5q57 -70 57 -160zM231 141
q0 23 -18 39q-14 19 -41 19q-54 0 -54 -62q0 -54 54 -54q25 0 42 16t17 42zM325 -117h-101v111h101v-111zM393 629h-112l3 24q0 60 -41 60q-47 0 -47 -46l6 -38q119 -41 119 -163q0 -69 -70 -130l-63 40q63 69 63 100q0 24 -17 30q0 -37 -37.5 -65.5t-81.5 -28.5
q-40 0 -68.5 23.5t-28.5 67.5q0 57 70 102q2 9 -3 29l-8 32q0 52 58 96q53 37 115 37q79 0 116 -56q27 -46 27 -114zM177 517q0 37 -33 37q-30 0 -30 -30q0 -40 31 -40q32 0 32 33z" />
    <glyph glyph-name="uni0C2C_uni0C40.abvs" horiz-adv-x="661" 
d="M463 350q0 14 -13.5 27t-29.5 15q-23 0 -23 -23q0 -15 11 -27q12 -10 28 -13q27 0 27 21zM344 443l-19 39q-10 26 -10 52q0 66 45 104t106 38q53 0 92 -46q35 -42 35 -88q0 -16 -4 -28h-95l3 25q0 12 -12 27t-30 15q-42 0 -42 -53q0 -28 26 -51v-1q93 0 137 -57
q28 -33 44 -78t16 -92q0 -105 -53 -179q-59 -79 -149 -79q-51 0 -91.5 20.5t-45.5 45.5q-32 -64 -132 -64q-66 0 -106.5 47.5t-40.5 113.5q0 35 19 66.5t44 45.5l71 24q51 18 51 53q0 16 -14 28.5t-32 12.5q-39 0 -39 -76h-99q1 15 2.5 29.5t6.5 27.5q39 100 160 100
q43 0 74 -32q30 -33 30 -72q0 -81 -74 -125l-61 -24q-35 -18 -35 -64q0 -52 63 -52q82 0 82 87h84q-9 -86 79 -86q53 0 88 56q24 41 24 90q0 46 -14 65q-12 -19 -45 -39q-39 -21 -70 -21t-53 15q-53 32 -53 102q0 35 27 71z" />
    <glyph glyph-name="uni0C2D_uni0C40.abvs" horiz-adv-x="661" 
d="M463 350q0 14 -13.5 27t-29.5 15q-23 0 -23 -23q0 -15 11 -27q12 -10 28 -13q27 0 27 21zM344 443l-19 39q-10 26 -10 52q0 66 45 104t106 38q53 0 92 -46q35 -42 35 -88q0 -16 -4 -28h-95l3 25q0 12 -12 27t-30 15q-42 0 -42 -53q0 -28 26 -51v-1q93 0 137 -57
q28 -33 44 -78t16 -92q0 -105 -53 -179q-59 -79 -149 -79q-51 0 -91.5 20.5t-45.5 45.5q-32 -64 -132 -64q-66 0 -106.5 47.5t-40.5 113.5q0 35 19 66.5t44 45.5l71 24q51 18 51 53q0 16 -14 28.5t-32 12.5q-39 0 -39 -76h-99q1 15 2.5 29.5t6.5 27.5q39 100 160 100
q43 0 74 -32q30 -33 30 -72q0 -81 -74 -125l-61 -24q-35 -18 -35 -64q0 -52 63 -52q82 0 82 87h84q-9 -86 79 -86q53 0 88 56q24 41 24 90q0 46 -14 65q-12 -19 -45 -39q-39 -21 -70 -21t-53 15q-53 32 -53 102q0 35 27 71zM347 -117h-101v111h101v-111z" />
    <glyph glyph-name="uni0C2E_uni0C40.abvs" horiz-adv-x="854" 
d="M233 141q0 23 -17.5 40.5t-40.5 17.5q-55 0 -55 -62q0 -54 55 -54q21 0 39.5 16t18.5 42zM210 439q0 21 -30 21q-42 0 -42 -27q0 -30 33 -30q15 0 26 10t13 26zM552 188q6 -17 8.5 -26t8.5 -18q30 -53 78 -53q40 0 67.5 44t27.5 92q0 43 -23 83q-31 49 -80 49l-37 -1v89
l42 2q77 0 131.5 -66.5t54.5 -166.5q0 -91 -60.5 -157t-140.5 -66q-85 0 -132 54l-4 4q-51 -57 -133 -57q-18 0 -46 12q-25 14 -30 29q-39 -44 -127 -44q-67 0 -104 47q-35 40 -35 99q0 58 39 99q45 51 128 51q60 0 104 -46.5t44 -109.5q0 -24 43 -24q39 0 66 53
q25 46 25 104q0 74 -52.5 130t-110.5 56q0 -28 -7.5 -49.5t-26.5 -40.5q-39 -33 -99 -33q-46 0 -81 21q-36 30 -36 69q0 80 73 114q-14 22 -14 59q0 50 43 88t103 38q82 0 125 -61q35 -43 35 -84h-106q0 57 -57 57q-47 0 -47 -49q0 -18 10 -39l37 2q99 0 164 -42
q138 -97 138 -262z" />
    <glyph glyph-name="uni0C2F_uni0C40.abvs" horiz-adv-x="1423" 
d="M1285 209q0 25 -8.5 35.5t-40.5 10.5q-41 0 -41 -48q0 -53 41 -53q17 0 34 17q13 17 15 38zM402 222q0 64 -41 99q-41 37 -101 37q-56 0 -95 -38q-40 -36 -40 -93q0 -60 36 -101q38 -36 93 -36q60 0 104 37.5t44 94.5zM426 62l-2 -3q-77 -65 -173 -65q-108 0 -170.5 68.5
t-62.5 170.5q0 89 76.5 154.5t172.5 65.5q98 0 166.5 -65.5t68.5 -165.5l-5 -44l18 -40q26 -47 74 -47q40 0 67 46q26 38 26 90q0 47 -24 83q-28 49 -79 49h-18l-17 -1v89h19l21 2q74 0 131.5 -65.5t57.5 -170.5l-1 -39q18 -83 110 -83q37 0 69 46q28 41 28 90
q0 38 -21 77.5t-63 52.5h-58v93h388q90 0 138 -75q36 -54 36 -110q0 -79 -46.5 -135t-119.5 -56q-48 0 -87.5 39t-39.5 87q0 57 40 96q38 35 92 35q24 0 42 -8q-10 22 -36 31l-60 3h-154q37 -62 37 -141q0 -93 -59.5 -158t-143.5 -65q-101 0 -145 74q-61 -74 -148 -74
q-88 0 -134 54z" />
    <glyph glyph-name="uni0C30_uni0C40.abvs" horiz-adv-x="560" 
d="M535 269q0 -90 -51 -162q-75 -109 -214 -109q-108 0 -177 49q-75 53 -75 148q0 68 42 108q-5 20 -13 37.5t-8 34.5q0 43 23.5 72.5t75.5 52.5l2 8q-26 34 -26 88q0 70 42 112q42 40 93 40q59 0 94 -39t35 -93q0 -20 -3 -28l-87 2l1 10l2 13q0 16 -12 29.5t-32 16.5
q-49 0 -49 -59q0 -42 33 -77l5 -1l9 1q130 0 210 -74.5t80 -179.5zM235 387q0 46 -39 46q-18 0 -30 -15.5t-14 -30.5q0 -44 44 -44q39 0 39 44zM429 252q0 53 -27 99.5t-72 54.5l-4 -17q0 -66 -53.5 -101.5t-122.5 -35.5q-22 -14 -22 -63q0 -46 42 -72.5t97 -26.5
q73 0 117.5 47t44.5 115z" />
    <glyph glyph-name="uni0C31_uni0C40.abvs" horiz-adv-x="634" 
d="M419 612q-7 16 -38 16l-15 -1q-6 -4 -7 -24q0 -29 43 -29q17 0 17 38zM213 334q0 40 -33 40q-36 0 -36 -40q0 -38 36 -38q33 0 33 38zM528 422q27 -21 43 -47q38 -65 38 -162q0 -88 -49 -151q-53 -68 -136 -68q-78 0 -126 54q-17 -54 -123 -54q-68 0 -112.5 56.5
t-44.5 135.5q0 101 37 177q44 92 130 92q39 0 71 -27.5t32 -66.5q0 -60 -32 -98h62q-11 29 -11 55q0 51 34 92q-44 17 -76 48l64 42q31 -40 101 -40q31 0 62 25q36 32 36 64q0 37 -34 57q0 -41 -38 -71q-30 -21 -64 -21q-105 0 -105 92q0 53 60 84q-19 12 -23 44
q0 48 36 78.5t89 30.5q44 0 76 -35q27 -31 24 -69h-73q-9 42 -36 42q-32 0 -32 -28t15 -49q80 0 132 -46q47 -42 47 -116q0 -50 -46 -97zM515 234q0 46 -21 82q-23 44 -64 44q-37 0 -37 -39q0 -41 46 -56v-94h-257v47q-6 -5 -15.5 -6t-12.5 -1q-13 0 -25 9l-5 -36
q0 -40 19 -74.5t59 -34.5q55 0 55 72h110l-2 -20q0 -42 50 -42q51 0 77 47q23 42 23 102z" />
    <glyph glyph-name="uni0C32_uni0C40.abvs" horiz-adv-x="560" 
d="M535 291q0 -116 -59 -195q-76 -103 -230 -103q-92 0 -160 56.5t-68 136.5q0 151 139 151q46 0 78 -32t32 -85q0 -67 -87 -118q38 -17 80 -17q74 0 124 47q57 57 57 162q0 75 -53 137q-43 48 -96 56q6 -11 6 -22q0 -36 -31 -65q-33 -39 -92 -39q-52 0 -89 25
q-41 27 -41 74q0 64 79 99q-22 34 -22 78q0 49 50 84q45 30 98 30q64 0 105 -38q20 -20 31 -44t11 -55h-43l-51 2q0 59 -58 59q-20 0 -38 -16q-14 -16 -14 -36q0 -30 43 -51q68 0 122.5 -20t97.5 -65q79 -82 79 -196zM207 470q0 23 -36 23q-26 0 -26 -35q0 -16 32 -16
q30 0 30 28zM198 221q0 47 -46 47q-39 0 -39 -53q0 -41 46 -41q39 0 39 47z" />
    <glyph glyph-name="uni0C33_uni0C40.abvs" horiz-adv-x="606" 
d="M582 579h-91q0 16 -14 38q-15 16 -36 16q-38 0 -38 -42q0 -30 26 -42q27 0 44.5 -6t41.5 -24q51 -37 51 -100q0 -82 -109 -144q77 -38 77 -121q0 -75 -77 -119q-71 -42 -168 -42q-92 0 -147 41t-55 112q0 56 54 101q-123 48 -123 148q0 45 37 89q43 50 110 50
q58 0 93 -33t35 -75q0 -65 -87 -99q6 -21 98 -21q110 0 110 31q-28 -4 -58 13q-46 35 -46 87q0 40 37 70q-30 30 -30 93q0 39 33.5 76.5t95.5 37.5q136 0 136 -135zM463 442q0 32 -37 32q-29 0 -29 -35q0 -29 32 -29q34 0 34 32zM197 431q0 35 -45 35q-39 0 -39 -39
q0 -36 53 -36q11 0 22 12q10 10 9 28zM433 153q0 32 -40 54q-34 15 -76 15q-46 0 -82.5 -18t-36.5 -56q0 -23 36 -44q9 -4 26 -11t38 -7q44 0 83 15q52 16 52 52z" />
    <glyph glyph-name="uni0C35_uni0C40.abvs" horiz-adv-x="583" 
d="M558 238q0 -78 -35 -144q-55 -100 -163 -100q-18 0 -46 12q-25 14 -30 29q-39 -44 -127 -44q-67 0 -104 47q-35 40 -35 99q0 58 39 99q45 51 128 51q60 0 104 -46.5t44 -109.5q0 -24 43 -24q39 0 66 53q25 46 25 104q0 74 -52.5 130t-110.5 56q0 -28 -7.5 -49.5
t-26.5 -40.5q-39 -33 -99 -33q-46 0 -81 21q-36 30 -36 69q0 80 73 114q-14 22 -14 59q0 50 43 88t103 38q82 0 125 -61q35 -43 35 -84h-106q0 57 -57 57q-47 0 -47 -49q0 -18 10 -39l37 2q99 0 164 -42q138 -97 138 -262zM210 439q0 21 -30 21q-42 0 -42 -27q0 -30 33 -30
q15 0 26 10t13 26zM233 141q0 23 -17.5 40.5t-40.5 17.5q-55 0 -55 -62q0 -54 55 -54q21 0 39.5 16t18.5 42z" />
    <glyph glyph-name="uni0C36_uni0C40.abvs" horiz-adv-x="631" 
d="M606 171q0 -72 -64.5 -126t-141.5 -54q-76 0 -129 46t-53 125q0 58 32 104q-52 0 -89 -40q-32 -35 -32 -75l1 -18h-112q0 56 26 99.5t76 74.5q83 54 208 54l79 -2q82 46 82 99q0 40 -19 42q0 -56 -41 -84q-31 -24 -82 -24q-43 0 -81 23q-35 28 -35 72q0 74 63 99l-3 31
l-4 29q0 54 48 92.5t109 38.5t95.5 -35t34.5 -103h-93q1 22 -14 41q-20 15 -43 15q-56 0 -56 -46q0 -19 8 -33h53q64 0 107 -48q47 -46 47 -113q0 -32 -25 -68l-43 -55q27 -5 59 -55t32 -106zM396 498q0 33 -37 33q-35 0 -35 -33q0 -32 35 -32q37 0 37 32zM498 168
q0 34 -24 61.5t-61 27.5q-34 0 -62 -28q-26 -27 -26 -61q0 -92 83 -92q34 0 62 28t28 64z" />
    <glyph glyph-name="uni0C37_uni0C40.abvs" horiz-adv-x="635" 
d="M610 -99q-34 -19 -63 -31.5t-47 -12.5q-39 32 -39 115v27q4 16 5 22l-38 -19q-26 -11 -61 -11q-75 0 -100 51q-36 -48 -100 -48q-65 0 -107 47.5t-42 106.5q0 68 45.5 114t119.5 46q79 0 121 -70q14 -22 24.5 -50.5t10.5 -56.5q17 -37 49 -37q31 0 59 37q27 38 27 80
q0 48 -19 80q-25 43 -66 43h-33v105q11 5 42 5q73 0 118 -58q50 -68 50 -195v-48q-4 -26 -5 -38q-5 -46 -5.5 -54t-0.5 -32q0 -98 55 -118zM229 157q0 58 -49 58q-55 0 -55 -61q0 -57 55 -57q12 0 30.5 20t18.5 40zM397 629h-113l3 24q0 60 -42 60q-47 0 -47 -46l6 -38
q121 -41 121 -163q0 -69 -71 -130l-63 40q63 69 63 100q0 24 -18 30q0 -37 -37 -65.5t-81 -28.5q-41 0 -69.5 23.5t-28.5 67.5q0 57 71 102q2 9 -4 29l-6 32q0 52 57 96q53 37 114 37q79 0 116 -56q29 -46 29 -114zM180 517q0 37 -32 37q-31 0 -31 -30q0 -40 32 -40
q31 0 31 33z" />
    <glyph glyph-name="uni0C38_uni0C40.abvs" horiz-adv-x="603" 
d="M578 225q0 -79 -41 -142q-55 -93 -159 -93q-84 0 -119 54q-9 15 -34 102q-17 54 -55 54q-45 0 -45 -63q0 -47 26 -84l43 -59h-122q-54 69 -54 132q0 69 37 116q43 54 133 54q68 0 105 -53l40 -97q21 -55 55 -55q35 0 67 37q13 19 21 41t8 49q0 47 -31.5 85.5t-74.5 38.5
l-24 -5v107q107 0 165.5 -61t58.5 -158zM393 629h-112l3 24q0 60 -41 60q-47 0 -47 -46l6 -38q119 -41 119 -163q0 -69 -70 -130l-63 40q63 69 63 100q0 24 -17 30q0 -37 -37.5 -65.5t-81.5 -28.5q-40 0 -68.5 23.5t-28.5 67.5q0 57 70 102q2 9 -3 29l-8 32q0 52 58 96
q53 37 115 37q79 0 116 -56q27 -46 27 -114zM177 517q0 37 -33 37q-30 0 -30 -30q0 -40 31 -40q32 0 32 33z" />
    <glyph glyph-name="uni0C39_uni0C40.abvs" horiz-adv-x="926" 
d="M396 629h-113l3 24q0 60 -42 60q-47 0 -47 -46l6 -38q121 -41 121 -163q0 -69 -72 -130l-63 40q63 69 63 100q0 24 -17 30q0 -37 -37 -65.5t-81 -28.5q-41 0 -69.5 23.5t-28.5 67.5q0 57 71 102q1 9 -4 29l-6 32q0 52 56 96q53 37 115 37q79 0 116 -56q29 -46 29 -114z
M178 517q0 37 -33 37q-30 0 -30 -30q0 -40 33 -40q30 0 30 33zM787 207q0 36 -41 36q-45 0 -45 -38q0 -45 41 -45q45 0 45 47zM231 141q0 23 -17 40.5t-42 17.5q-55 0 -55 -62q0 -54 55 -54q25 0 42 16t17 42zM534 363q21 -34 30.5 -74t9.5 -95q0 -71 -54 -134
q-58 -69 -149 -69q-57 0 -95 45q-40 -45 -120 -45q-68 0 -106 47q-32 40 -32 99q0 60 38 99q45 51 127 51q61 0 105.5 -48t44.5 -108q11 -34 49 -34h14q28 0 55 36t27 80q0 39 -24 89q-33 61 -78 61h-35v89h257q157 0 189 -13q114 -44 114 -191q0 -69 -49 -126.5t-123 -57.5
q-51 0 -88.5 37t-37.5 87q0 62 37.5 100.5t107.5 38.5l45 -5q-21 26 -58 33.5t-124 7.5h-77z" />
    <glyph glyph-name="uni0C15_uni0C40_uni0C37_uni0C4D" horiz-adv-x="536" 
d="M244 612q-9 16 -38 16l-15 -1q-6 -4 -9 -24q0 -29 43 -29q19 0 19 38zM373 439q90 -29 90 -115h-98q-11 25 -45 39q-13 8 -26 9.5t-33 1.5q-95 0 -95 -63q0 -41 84 -41l43 11q40 10 78 10q59 0 92 -38q28 -27 28 -70q0 -72 -72 -130.5t-158 -58.5q-111 0 -174 62
q-48 45 -48 102h104q0 -27 37 -50.5t86 -23.5q59 0 90.5 23.5t31.5 47.5q0 46 -54 46l-56 -9l-71 -7q-55 0 -100 33q-51 35 -51 92q0 44 52 90l30 22q-9 4 -24 16t-24 20l64 42q31 -40 102 -40q28 0 61.5 27t33.5 62q0 37 -32 57q0 -42 -39 -71q-29 -21 -63 -21
q-106 0 -106 92q0 52 60 84q-19 12 -22 44q0 48 35 78.5t89 30.5q45 0 76 -35q30 -33 26 -69h-74q-10 42 -36 42q-32 0 -32 -28q0 -29 14 -49q83 0 132 -46q47 -42 47 -116q0 -51 -45 -97zM544 -255l-61 -40q-27 32 -27 70v46q-60 -28 -86 -28q-41 0 -94 45
q-29 -49 -115 -49q-59 0 -101 47.5t-42 100.5q0 21 7 42l86 -2l-2 -15l-1 -18q0 -27 18.5 -47t49.5 -20q67 0 67 65l-4 15l-1 13h91l-1 -13l-3 -15q0 -60 53 -60q25 0 45 18q16 22 16 44q0 31 -26 44l39 44q78 -34 78 -126l-2 -44l-4 -43q0 -60 20 -74z" />
    <glyph glyph-name="uni0C15_uni0C46.abvs" horiz-adv-x="494" 
d="M402 415q40 -33 40 -91h-98q-11 25 -43 39q-14 8 -27 9.5t-34 1.5q-95 0 -95 -63q0 -41 85 -41l43 11q40 10 78 10q59 0 91 -38q28 -27 28 -70q0 -72 -71 -130.5t-159 -58.5q-111 0 -173 62q-49 45 -49 102h105q0 -27 36.5 -50.5t86.5 -23.5q58 0 90 23.5t32 47.5
q0 46 -54 46l-55 -9l-73 -7q-54 0 -100 33q-51 35 -51 92q0 44 52 90q9 8 28 19.5t30 17.5v22h160q57 0 57 38q0 40 -43 40h-300v82h328q109 0 109 -105q0 -46 -44 -91z" />
    <glyph glyph-name="uni0C16_uni0C46.abvs" horiz-adv-x="689" 
d="M189 345q0 39 -35 39q-36 0 -36 -39q0 -37 36 -37q35 0 35 37zM244 111q-27 22 -66 22q-54 0 -54 -23q0 -26 47 -26q53 0 73 27zM493 450q56 0 56 37q0 39 -45 39h-334v82h359q113 0 113 -102q0 -50 -43 -89q-6 -4 -11 -7q12 -10 23 -24q53 -63 53 -159t-63.5 -162
t-156.5 -66q-47 0 -68.5 6t-62.5 46q-24 -25 -75 -45q-21 -7 -41 -11t-38 -4q-60 0 -98 26q-43 27 -43 80q0 49 48 83.5t105 34.5q88 0 141 -40l13 61q0 38 -11.5 69t-29.5 32q-9 -42 -40 -73q-9 -9 -32 -21q-34 -14 -53 -14q-63 0 -99.5 31.5t-36.5 84.5q0 56 75 102
q40 26 109 26q96 0 161 -70q48 -53 48 -156q0 -25 -9 -66q-11 -33 -28 -50q3 -19 22.5 -30t45.5 -13q46 0 84 30q48 41 48 108q0 85 -68 133q-18 12 -67 20h-11v71h60zM360 -117h-101v111h101v-111z" />
    <glyph glyph-name="uni0C17_uni0C46.abvs" horiz-adv-x="528" 
d="M402 410q34 -26 61 -69q40 -72 40 -135q0 -86 -49 -153q-38 -47 -66 -57l-4 3l-49 79v6q67 53 67 125q0 56 -30 97q-34 52 -101 52t-105.5 -49t-38.5 -123q0 -29 3.5 -45t12.5 -30q6 -9 46 -46l3 -3q-6 -18 -58 -71h-6q-110 42 -110 211q0 98 72 171q32 32 76 51v34h141
q59 0 59 38q0 39 -45 39h-303v84h333q110 0 110 -106q0 -47 -47 -94z" />
    <glyph glyph-name="uni0C18_uni0C46.abvs" horiz-adv-x="893" 
d="M247 141q0 23 -16 39q-14 19 -42 19q-54 0 -54 -62q0 -54 54 -54q24 0 41 16t17 42zM589 212l22 -68q25 -53 74 -53q39 0 66 44t27 92q0 47 -23 83q-30 49 -81 49l-35 -1v89l40 2q80 0 134.5 -66.5t54.5 -166.5q0 -90 -60 -156.5t-144 -66.5q-85 0 -130 54l-4 5
q-54 -61 -133 -61q-64 0 -104 45q-37 -45 -117 -45q-68 0 -107 47q-35 40 -35 99q0 58 40 99q43 51 128 51q59 0 104 -48t45 -108q11 -40 54 -40q36 0 61 38t25 84q0 135 -131 135v102q56 0 97 -16.5t75 -55.5q57 -70 57 -160v-6zM334 492q0 -133 -142 -133h-104v85h104
q41 0 41 30q0 21 -41 21h-95h-79v93h213q103 0 103 -96zM342 -116h-102v110h102v-110z" />
    <glyph glyph-name="uni0C19_uni0C46.abvs" horiz-adv-x="576" 
d="M436 470v-51h67v-91h-204q0 -44 -29.5 -73.5t-88.5 -46t-59 -67.5q0 -57 54 -57q22 0 49 18q6 5 14 17t10 27v33h95l1 -51q0 -12 16.5 -26t38.5 -17q23 0 41 17q20 23 20 50q0 50 -47 50q-22 0 -33 -3v95q100 0 128 -29q42 -44 42 -111q0 -65 -54 -116q-48 -45 -101 -45
q-94 0 -116 55q-3 -20 -31 -39q-34 -18 -79 -18q-57 0 -100 35q-50 39 -50 105q0 124 108 149q78 16 78 54q0 15 -12 34q-9 13 -24 16q-18 0 -32 -17t-14 -31l3 -14h-109q0 47 25 88q38 64 124 64q77 0 113 -57h64v48h-20v69h78q32 0 32 34q0 33 -34 33h-303v89h316
q47 0 81 -32q34 -31 34 -86q0 -32 -34 -64q-21 -27 -58 -38z" />
    <glyph glyph-name="uni0C1A_uni0C46.abvs" horiz-adv-x="731" 
d="M616 410l25 -21q65 -62 65 -167q0 -91 -55.5 -159.5t-143.5 -68.5q-93 0 -110 50q-40 -51 -120 -51q-65 0 -112.5 50t-47.5 116q0 47 22 68h-121v95h279v-75q-66 -15 -66 -73q0 -30 16 -56q19 -22 47 -22q55 0 55 75l-4 30h120l-4 -41q0 -72 55 -72q44 0 70 50
q19 41 19 87q0 97 -81 124q-17 5 -55.5 8.5t-84.5 3.5h-25v86h150h12q24 3 34 9.5t10 20.5q0 40 -44 40h-335v81h374q43 0 69 -23q29 -28 29 -79q0 -49 -42 -86z" />
    <glyph glyph-name="uni0C1B_uni0C46.abvs" horiz-adv-x="731" 
d="M616 410l25 -21q65 -62 65 -167q0 -91 -55.5 -159.5t-143.5 -68.5q-93 0 -110 50q-40 -51 -120 -51q-65 0 -112.5 50t-47.5 116q0 47 22 68h-121v95h279v-75q-66 -15 -66 -73q0 -30 16 -56q19 -22 47 -22q55 0 55 75l-4 30h120l-4 -41q0 -72 55 -72q44 0 70 50
q19 41 19 87q0 97 -81 124q-17 5 -55.5 8.5t-84.5 3.5h-25v86h150h12q24 3 34 9.5t10 20.5q0 40 -44 40h-335v81h374q43 0 69 -23q29 -28 29 -79q0 -49 -42 -86zM444 -117h-100v111h100v-111z" />
    <glyph glyph-name="uni0C1C_uni0C46.abvs" horiz-adv-x="594" 
d="M361 379h-10v71h41h20q55 0 55 37q0 39 -43 39h-337v82h359q114 0 114 -102q0 -50 -41 -88q41 -26 41 -74q0 -58 -56 -92q-48 -27 -108 -27q-44 0 -103 22q-10 -24 -83.5 -48.5t-73.5 -57.5q0 -18 18 -36q16 -12 39 -15q57 0 63 72h103l-4 -20q0 -25 13 -39.5t35 -17.5
q25 0 41.5 14.5t18.5 37.5q0 18 -7 25l-10 16h117q6 -25 3 -45q0 -27 -12.5 -51.5t-37.5 -45.5q-43 -40 -104 -40q-52 0 -82 15l-43 33q-23 -24 -50.5 -37t-60.5 -13t-60.5 9t-49.5 33q-48 43 -48 101q0 69 52 97l96 32q49 15 49 56q0 43 -44 43q-54 0 -54 -68h-99
q0 68 45.5 113.5t111.5 45.5q68 0 102 -40l51 -73q26 -41 60 -41q22 0 45 13.5t23 28.5q0 21 -40 31z" />
    <glyph glyph-name="uni0C1D_uni0C46.abvs" horiz-adv-x="1106" 
d="M424 222q0 64 -41 99q-39 37 -100 37q-56 0 -97 -38q-38 -36 -38 -93q0 -60 35 -101q40 -36 93 -36q59 0 103.5 37.5t44.5 94.5zM788 -118h-101v112h101v-112zM518 168l12 -30q26 -47 74 -47q40 0 67.5 44t27.5 92q0 43 -25 83q-29 49 -79 49h-18l-19 -1v89h21l21 2
q74 0 131.5 -66.5t57.5 -169.5q0 -27 -2 -39q21 -83 109 -83q39 0 70 46q28 37 28 90q0 46 -24 83q-29 49 -80 49h-17l-19 -1v89h21l21 2q79 0 132 -66.5t53 -166.5q0 -93 -59 -158t-140 -65q-104 0 -148 74q-61 -74 -148 -74q-84 0 -132 54l-10 11q-76 -64 -171 -64
q-107 0 -170 68.5t-63 170.5q0 89 75 154q12 11 23.5 18.5t26.5 13.5v40h139q56 0 56 38q0 40 -43 40h-299v82h328q108 0 108 -105q0 -48 -44 -91q11 -8 22.5 -16.5t23.5 -20.5q68 -64 68 -164q0 -34 -6 -54z" />
    <glyph glyph-name="uni0C1E_uni0C46.abvs" horiz-adv-x="869" 
d="M378 107q-47 39 -97 39q-24 0 -37 -3l-31 -9q-15 -3 -20 -14l-2 -9q0 -14 21 -25t59 -11q15 -1 20 -1q44 0 87 33zM424 468h22q32 0 32 33t-34 33h-303v89h319q43 0 79 -32q33 -31 33 -85q0 -32 -33 -64q-10 -15 -23 -23l9 -7q25 -27 36 -59t11 -74h39v69h111v-67h123
v-93h-111v-74h-120v74l-42 -8l-30 -50l67 -114l-85 -62l-67 99q-38 -32 -85 -46t-102 -14q-95 0 -146.5 29.5t-51.5 82.5q0 96 190 121l45 2q64 0 129 -37q25 32 25 77q0 39 -15 73q-18 37 -43 37q-27 0 -42.5 -23t-15.5 -50l2 -24h-117q0 90 -65 90q-35 0 -35 -44
q-3 -44 25 -61h-126q-11 34 -11 52q0 57 46.5 98.5t104.5 48.5q28 0 44 -1t27 -9l48 -29q27 26 42 32q26 11 67 11z" />
    <glyph glyph-name="uni0C1F_uni0C46.abvs" horiz-adv-x="650" 
d="M224 281q0 13 -11 26t-25 13q-13 0 -25 -12t-12 -27q0 -40 37 -40q14 0 24 12q6 9 9 14.5t3 13.5zM547 408l25 -26q53 -66 53 -166q0 -91 -53.5 -157t-136.5 -66q-86 0 -122 67q-36 -67 -115 -67q-83 0 -131.5 56.5t-48.5 141.5q0 72 33.5 129.5t91.5 65.5v110h75v-107
q86 -21 86 -108q0 -54 -39.5 -89t-86.5 -35q-55 0 -65 34l-2 -22q0 -35 28 -62q32 -22 65 -22q31 0 56 29q23 30 23 67h90q9 -91 71 -91q39 0 70 44q22 45 22 93q0 88 -66 132q-20 14 -67 20h-10v71h44h18q54 0 54 37q0 39 -42 39h-337v82h361q112 0 112 -102q0 -50 -43 -89
z" />
    <glyph glyph-name="uni0C20_uni0C46.abvs" horiz-adv-x="549" 
d="M424 222q0 64 -41 99q-39 37 -100 37q-56 0 -97 -38q-38 -36 -38 -93q0 -60 35 -101q40 -36 93 -36q59 0 103.5 37.5t44.5 94.5zM165 419v40h139q56 0 56 38q0 40 -43 40h-299v82h328q108 0 108 -105q0 -48 -44 -91q11 -8 22.5 -16.5t23.5 -20.5q68 -64 68 -164
q0 -95 -77 -161.5t-174 -66.5q-107 0 -170 68.5t-63 170.5q0 89 75 154q12 11 23.5 18.5t26.5 13.5zM321 199q-9 -20 -37 -20q-13 0 -23 5q-18 11 -18 41q0 12 4 22q12 21 40 21q11 0 26 -9.5t15 -36.5q0 -12 -7 -23z" />
    <glyph glyph-name="uni0C21_uni0C46.abvs" horiz-adv-x="577" 
d="M474 444v-75h-212q-73 0 -114 -47q-36 -43 -36 -111q0 -52 21.5 -87t59.5 -35q19 0 40 25q16 28 16 55l-3 19h101l-2 -21q0 -70 57 -70q24 0 44 25t20 51t-17 42q-12 14 -30 18q-35 0 -48 -11v101q21 6 43 6q35 0 63 -19q75 -46 75 -137q0 -87 -54 -140q-48 -40 -115 -40
q-55 0 -96 51q-38 -53 -115 -53q-71 0 -113 69q-19 31 -30 69t-11 78q0 108 58 171q53 59 142 69l39 3h84q57 0 57 31q0 40 -44 40h-336v82h374q38 0 68.5 -26.5t30.5 -76.5q0 -18 -4.5 -29.5t-12.5 -26.5z" />
    <glyph glyph-name="uni0C22_uni0C46.abvs" horiz-adv-x="577" 
d="M474 444v-75h-212q-73 0 -114 -47q-36 -43 -36 -111q0 -52 21.5 -87t59.5 -35q19 0 40 25q16 28 16 55l-3 19h101l-2 -21q0 -70 57 -70q24 0 44 25t20 51t-17 42q-12 14 -30 18q-35 0 -48 -11v101q21 6 43 6q35 0 63 -19q75 -46 75 -137q0 -87 -54 -140q-48 -40 -115 -40
q-55 0 -96 51q-38 -53 -115 -53q-71 0 -113 69q-19 31 -30 69t-11 78q0 108 58 171q53 59 142 69l39 3h84q57 0 57 31q0 40 -44 40h-336v82h374q38 0 68.5 -26.5t30.5 -76.5q0 -18 -4.5 -29.5t-12.5 -26.5zM340 -117h-102v111h102v-111z" />
    <glyph glyph-name="uni0C23_uni0C46.abvs" horiz-adv-x="588" 
d="M441 118q0 19 -13.5 35.5t-34.5 17.5q-15 0 -32 -16q-14 -18 -14 -34q0 -48 50 -48q44 0 44 45zM326 439v13h61q57 0 57 35q0 40 -44 40h-334v82h358q113 0 113 -103q0 -50 -44 -89q16 -17 35 -44q35 -68 35 -151q0 -80 -33 -148q-46 -81 -132 -81q-56 0 -96 31.5
t-40 87.5q0 58 34 94t92 36q67 0 82 -24q0 30 -4 53t-19 46q-21 43 -63 43q-45 0 -45 -52h-96q0 26 -24 49q-21 17 -41 17q-56 0 -56 -40q0 -17 14 -32t33 -15q12 0 22 5v-81l-11 1q-25 0 -45 -20q-20 -22 -20 -48q0 -27 20.5 -41t46.5 -14q15 0 25 5v-93q-27 -7 -53 -7
q-56 0 -97 34q-38 35 -38 89q0 94 51 121q-52 28 -52 84q0 63 49 97q47 34 110 34q59 0 104 -43q20 19 45 29z" />
    <glyph glyph-name="uni0C24_uni0C46.abvs" horiz-adv-x="635" 
d="M188 234q0 36 -39 36q-15 0 -31 -10q-10 -13 -11 -26q0 -13 11.5 -22.5t30.5 -10.5q39 0 39 33zM487 257q0 13 -12 28t-29 15q-11 0 -23.5 -11t-14.5 -29q0 -37 34 -37q45 0 45 34zM376 375l-110 -2v80h133q57 0 57 31q0 39 -44 39h-336v83h373q40 0 69 -26t29 -77
q0 -48 -43 -91l3 -6q43 -35 53 -74q50 -49 50 -114q0 -101 -102 -165q-94 -59 -210 -59q-115 0 -196 59q-84 64 -84 157q0 50 31 85q38 48 112 48q48 0 78.5 -27t30.5 -73q0 -42 -29 -72t-64 -30q-26 0 -49 16q4 -16 27 -34q17 -12 33 -21q56 -28 120 -28q67 0 106 20
q49 21 95 77q-25 -13 -47 -20.5t-38 -7.5q-43 0 -74 29t-31 67q0 45 33 78q14 15 34.5 20.5t46.5 5.5q-8 4 -26.5 17t-30.5 15z" />
    <glyph glyph-name="uni0C25_uni0C46.abvs" horiz-adv-x="579" 
d="M461 222q0 28 -10 53.5t-28 46.5q-48 51 -130 51q-60 0 -117.5 -52.5t-57.5 -131.5q0 -34 16 -63t48 -29q54 0 54 102h102l-4 -40q8 -65 52 -65q34 0 54 43q10 21 15.5 41.5t5.5 43.5zM340 444h20q55 0 55 38q0 40 -43 40h-335v83h373q44 0 68 -25q30 -29 30 -79
q0 -47 -42 -89l-10 -9l28 -21q71 -61 71 -176q0 -88 -53 -150.5t-137 -62.5q-40 0 -82 51q-45 -53 -103 -53q-69 0 -115.5 60t-46.5 144q0 121 81 186.5t190 65.5zM324 242q-11 -19 -38 -19q-14 0 -24 5q-19 11 -19 40q0 12 8.5 27t36.5 15q13 0 22 -5q19 -11 19 -40
q0 -13 -5 -23zM326 -117h-101v111h101v-111z" />
    <glyph glyph-name="uni0C26_uni0C46.abvs" horiz-adv-x="579" 
d="M461 222q0 28 -10 53.5t-28 46.5q-48 51 -130 51q-60 0 -117.5 -52.5t-57.5 -131.5q0 -34 16 -63t48 -29q54 0 54 102h102l-4 -40q8 -65 52 -65q34 0 54 43q10 21 15.5 41.5t5.5 43.5zM340 444h20q55 0 55 38q0 40 -43 40h-335v83h373q44 0 68 -25q30 -29 30 -79
q0 -47 -42 -89l-10 -9l28 -21q71 -61 71 -176q0 -88 -53 -150.5t-137 -62.5q-40 0 -82 51q-45 -53 -103 -53q-69 0 -115.5 60t-46.5 144q0 121 81 186.5t190 65.5z" />
    <glyph glyph-name="uni0C27_uni0C46.abvs" horiz-adv-x="579" 
d="M461 222q0 28 -10 53.5t-28 46.5q-48 51 -130 51q-60 0 -117.5 -52.5t-57.5 -131.5q0 -34 16 -63t48 -29q54 0 54 102h102l-4 -40q8 -65 52 -65q34 0 54 43q10 21 15.5 41.5t5.5 43.5zM340 444h20q55 0 55 38q0 40 -43 40h-335v83h373q44 0 68 -25q30 -29 30 -79
q0 -47 -42 -89l-10 -9l28 -21q71 -61 71 -176q0 -88 -53 -150.5t-137 -62.5q-40 0 -82 51q-45 -53 -103 -53q-69 0 -115.5 60t-46.5 144q0 121 81 186.5t190 65.5zM324 242q-11 -19 -38 -19q-14 0 -24 5q-19 11 -19 40q0 12 8.5 27t36.5 15q13 0 22 -5q19 -11 19 -40
q0 -13 -5 -23zM326 -117h-101v111h101v-111z" />
    <glyph glyph-name="uni0C28_uni0C46.abvs" horiz-adv-x="603" 
d="M467 412q6 -4 16.5 -12t19.5 -15q75 -67 75 -160q0 -81 -41 -146q-54 -89 -159 -89q-84 0 -119 54q-9 15 -34 102q-17 54 -55 54q-45 0 -45 -63q0 -47 26 -84l43 -59h-122q-54 69 -54 132q0 69 37 116q43 54 133 54q68 0 105 -53l40 -97q21 -55 55 -55q36 0 66 38t30 84
q0 102 -85 135q-18 7 -28 9.5t-31 5.5l-27 5h-78v81h124q55 0 55 30q0 33 -44 33h-336v88h375q42 0 68 -24q30 -28 30 -79q0 -45 -40 -85z" />
    <glyph glyph-name="uni0C2A_uni0C46.abvs" horiz-adv-x="614" 
d="M589 218q0 -92 -55 -159.5t-137 -67.5q-64 0 -104 45q-37 -45 -117 -45q-68 0 -107 47q-35 40 -35 99q0 58 40 99q43 51 128 51q59 0 104 -48t45 -108q11 -40 54 -40q36 0 61 38t25 84q0 135 -131 135v102q56 0 97 -16.5t75 -55.5q57 -70 57 -160zM247 141q0 23 -16 39
q-14 19 -42 19q-54 0 -54 -62q0 -54 54 -54q24 0 41 16t17 42zM334 492q0 -133 -142 -133h-104v85h104q41 0 41 30q0 21 -41 21h-95q-70 0 -79 1v92h213q103 0 103 -96z" />
    <glyph glyph-name="uni0C2B_uni0C46.abvs" horiz-adv-x="614" 
d="M589 218q0 -92 -55 -159.5t-137 -67.5q-64 0 -104 45q-37 -45 -117 -45q-68 0 -107 47q-35 40 -35 99q0 58 40 99q43 51 128 51q59 0 104 -48t45 -108q11 -40 54 -40q36 0 61 38t25 84q0 135 -131 135v102q56 0 97 -16.5t75 -55.5q57 -70 57 -160zM247 141q0 23 -16 39
q-14 19 -42 19q-54 0 -54 -62q0 -54 54 -54q24 0 41 16t17 42zM342 -116h-102v110h102v-110zM334 492q0 -133 -142 -133h-104v85h104q41 0 41 30q0 21 -41 21h-95q-70 0 -79 1v92h213q103 0 103 -96z" />
    <glyph glyph-name="uni0C2C_uni0C46.abvs" horiz-adv-x="603" 
d="M500 408l25 -26q53 -65 53 -166q0 -95 -60.5 -157.5t-152.5 -62.5q-26 0 -47 13q-4 1 -34 33q-51 -48 -123 -48q-68 0 -104 42q-37 36 -37 95q0 102 114 139l48 14q22 11 22 36q0 39 -43 39q-59 0 -59 -59h-84q0 147 149 147q57 0 92 -34t35 -91q0 -58 -45 -90l-84 -37
q-45 -21 -45 -58q0 -19 15.5 -33.5t42.5 -14.5q47 0 57 42q1 7 1 23q0 6 -2 17h99v-23q0 -27 26 -43q19 -12 40 -15q38 0 65 44t27 93q0 88 -68 132q-21 14 -66 20h-11v71h46h16q57 0 57 37q0 39 -45 39h-335v82h357q115 0 115 -102q0 -50 -43 -89z" />
    <glyph glyph-name="uni0C2D_uni0C46.abvs" horiz-adv-x="603" 
d="M500 408l25 -26q53 -65 53 -166q0 -95 -60.5 -157.5t-152.5 -62.5q-26 0 -47 13q-4 1 -34 33q-51 -48 -123 -48q-68 0 -104 42q-37 36 -37 95q0 102 114 139l48 14q22 11 22 36q0 39 -43 39q-59 0 -59 -59h-84q0 147 149 147q57 0 92 -34t35 -91q0 -58 -45 -90l-84 -37
q-45 -21 -45 -58q0 -19 15.5 -33.5t42.5 -14.5q47 0 57 42q1 7 1 23q0 6 -2 17h99v-23q0 -27 26 -43q19 -12 40 -15q38 0 65 44t27 93q0 88 -68 132q-21 14 -66 20h-11v71h46h16q57 0 57 37q0 39 -45 39h-335v82h357q115 0 115 -102q0 -50 -43 -89zM326 -117h-101v111h101
v-111z" />
    <glyph glyph-name="uni0C2E_uni0C46.abvs" horiz-adv-x="861" 
d="M231 141q0 23 -17 40.5t-42 17.5q-54 0 -54 -62q0 -54 54 -54q25 0 42 16t17 42zM569 183l13 -39q23 -53 73 -53q39 0 66 46q27 38 27 90q0 47 -24 83q-29 49 -79 49l-36 -1v89l41 2q77 0 131.5 -66.5t54.5 -166.5q0 -93 -59 -158t-141 -65q-87 0 -132 53
q-53 -55 -133 -55q-57 0 -95 45q-40 -45 -120 -45q-68 0 -106 47q-32 40 -32 99q0 60 38 99q45 51 127 51q61 0 105.5 -48t44.5 -108q11 -34 49 -34h14q28 0 55 36t27 80q0 97 -86 135q-31 10 -60 13.5t-83 3.5h-5h-52v85h169q55 0 55 29q0 39 -43 39h-334v82h373
q39 0 68 -25.5t29 -78.5q0 -46 -42 -90l28 -21q77 -68 77 -160z" />
    <glyph glyph-name="uni0C2F_uni0C46.abvs" horiz-adv-x="1138" 
d="M408 222q0 64 -43.5 101.5t-104.5 37.5q-54 0 -96 -38.5t-42 -95.5q0 -63 35 -104q41 -37 97 -37q64 0 107 39q47 37 47 97zM645 365h-127v87h132q56 0 56 27q0 39 -45 39h-335v82h374q39 0 67.5 -25.5t28.5 -78.5q0 -46 -40 -86q13 -10 27 -29q54 -65 54 -165l-1 -32
q6 -16 13.5 -27t7.5 -13q26 -53 74 -53q38 0 67 46q25 38 25 90q0 47 -23 83q-30 49 -78 49l-37 -1v89l41 2q79 0 133.5 -66.5t54.5 -166.5q0 -93 -60 -158t-143 -65q-85 0 -131 54l-4 6q-58 -60 -139 -60q-119 0 -180 107q-78 -106 -206 -106q-108 0 -170.5 68.5
t-62.5 170.5q0 89 76.5 154.5t172.5 65.5q95 0 162 -63q36 -33 54.5 -71.5t18.5 -82.5q32 -77 55 -104q33 -41 84 -41q49 0 80 46q29 37 29 90q0 47 -25 83q-14 24 -35 39.5t-45 15.5z" />
    <glyph glyph-name="uni0C30_uni0C46.abvs" horiz-adv-x="549" 
d="M424 222q0 64 -41 99q-39 37 -100 37q-56 0 -97 -38q-38 -36 -38 -93q0 -60 35 -101q40 -36 93 -36q59 0 103.5 37.5t44.5 94.5zM165 419v39l139 1q56 0 56 38q0 40 -43 40h-299v82h328q108 0 108 -105q0 -48 -44 -91q11 -8 22.5 -16.5t23.5 -20.5q68 -64 68 -164
q0 -95 -77 -161.5t-174 -66.5q-107 0 -170 68.5t-63 170.5q0 89 75 154q12 11 23.5 18.5t26.5 13.5z" />
    <glyph glyph-name="uni0C31_uni0C46.abvs" horiz-adv-x="634" 
d="M213 334q0 40 -33 40q-36 0 -36 -40q0 -38 36 -38q33 0 33 38zM515 234q0 46 -21 82q-23 44 -64 44q-37 0 -37 -39q0 -41 46 -56v-94h-257v47q-6 -5 -15.5 -6t-12.5 -1q-13 0 -25 9l-5 -36q0 -40 19 -74.5t59 -34.5q55 0 55 72h110l-2 -20q0 -42 50 -42q51 0 77 47
q23 42 23 102zM362 429v21h62q55 0 55 37q0 39 -43 39h-337v82h362q112 0 112 -102q0 -51 -42 -88q20 -16 40 -43q38 -65 38 -162q0 -88 -49 -151q-53 -68 -136 -68q-78 0 -126 54q-17 -54 -123 -54q-68 0 -112.5 56.5t-44.5 135.5q0 101 37 177q44 92 130 92q39 0 71 -27.5
t32 -66.5q0 -60 -32 -98h62q-11 29 -11 55q0 57 37 94z" />
    <glyph glyph-name="uni0C32_uni0C46.abvs" horiz-adv-x="606" 
d="M225 334q0 20 -13.5 35t-28.5 15q-40 0 -40 -50q0 -47 40 -47q42 0 42 47zM412 450h4q58 0 58 35q0 39 -45 39h-335v83h360q112 0 112 -102q0 -49 -43 -89l-19 -13l21 -22q57 -70 57 -165t-87.5 -159t-203.5 -64q-120 0 -196.5 67.5t-76.5 172.5q0 87 44.5 153.5
t119.5 66.5q52 0 90 -33t38 -79q0 -58 -37 -99t-92 -41q-26 0 -40 8l-17 14q5 -64 61 -100q45 -30 109 -30q79 0 131 34q57 41 57 107q0 73 -62 115q-33 22 -68 16v85h41h19z" />
    <glyph glyph-name="uni0C33_uni0C46.abvs" horiz-adv-x="521" 
d="M372 146q0 46 -100 46q-26 0 -36.5 -1.5t-28.5 -10.5q-35 -15 -35 -46q0 -61 95 -61q40 0 67 18q38 20 38 55zM161 361q0 15 -10.5 25t-25.5 10q-32 -5 -32 -39q0 -30 36 -30q37 4 32 34zM346 381h-69v69h85q26 4 26 32q0 35 -32 35h-303v89h315q45 0 79.5 -33t34.5 -86
q0 -22 -21 -50q6 -5 18 -25q18 -27 18 -67q0 -54 -77 -107q34 -25 34 -86q0 -48 -31 -89q-25 -35 -65.5 -53.5t-98.5 -18.5q-77 0 -126.5 36t-49.5 107q0 61 52 95q-47 9 -78 41q-39 35 -39 90q0 103 109 103q44 0 70 -24t26 -63q0 -31 -7 -46t-40 -39q41 -25 104 -25
q40 0 90 22t50 53q0 40 -53 40h-21z" />
    <glyph glyph-name="uni0C35_uni0C46.abvs" horiz-adv-x="597" 
d="M231 141q0 23 -17 40.5t-42 17.5q-54 0 -54 -62q0 -54 54 -54q25 0 42 16t17 42zM244 365h-25v85h142q55 0 55 29q0 39 -43 39h-334v82h373q39 0 68 -25.5t29 -78.5q0 -46 -42 -90l28 -21q77 -68 77 -160q0 -94 -53 -163q-58 -71 -148 -71q-57 0 -95 45q-40 -45 -120 -45
q-68 0 -106 47q-32 40 -32 99q0 60 38 99q45 51 127 51q61 0 105.5 -48t44.5 -108q11 -34 49 -34h14q28 0 55 36t27 80q0 97 -86 135q-31 10 -60 13.5t-83 3.5h-5z" />
    <glyph glyph-name="uni0C36_uni0C46.abvs" horiz-adv-x="547" 
d="M423 160q0 32 -26 56.5t-55 24.5q-35 0 -58 -23.5t-23 -57.5t26 -57.5t57 -23.5q79 0 79 81zM370 381h-82v69h87q33 0 33 32q0 35 -35 35h-302v89h316q46 0 81 -32q32 -34 32 -87q0 -24 -26 -56l14 -14q30 -28 30 -65q0 -20 -15 -44l-29 -33q5 -10 14.5 -24t15.5 -22
q19 -29 19 -69q0 -75 -54 -122t-135 -47q-88 0 -138 51q-41 44 -41 106q0 47 36 99q-78 0 -78 -92q0 -35 16 -55h-101q-10 15 -10 51q0 86 74 131t200 45l39 2h36q15 -1 22 -3t19 -8q17 5 18 26q0 37 -47 37h-9z" />
    <glyph glyph-name="uni0C37_uni0C46.abvs" horiz-adv-x="648" 
d="M624 -99q-35 -19 -64 -31.5t-45 -12.5q-41 32 -41 115v27q4 16 5 22l-38 -19q-26 -11 -60 -11q-76 0 -98 51q-38 -48 -102 -48t-106.5 47.5t-42.5 106.5q0 68 45.5 114t119.5 46q79 0 121 -70q13 -22 23.5 -50.5t10.5 -56.5q18 -37 51 -37q30 0 59 37q26 38 26 80
q0 48 -20 80q-24 43 -63 43h-35v105q11 5 42 5q72 0 118 -58q52 -68 52 -195v-48q-5 -26 -6 -38q-5 -46 -6 -54t-1 -32q0 -98 55 -118zM243 157q0 58 -50 58q-54 0 -54 -61q0 -57 54 -57q13 0 31.5 20t18.5 40zM334 492q0 -133 -142 -133h-104v85h104q41 0 41 30
q0 21 -41 21h-95h-79v93h213q103 0 103 -96z" />
    <glyph glyph-name="uni0C38_uni0C46.abvs" horiz-adv-x="620" 
d="M595 225q0 -79 -40 -142q-57 -93 -159 -93q-84 0 -121 54q-9 15 -32 102q-18 54 -57 54q-45 0 -45 -63q0 -47 28 -84l41 -59h-122q-54 69 -54 132q0 69 37 116q44 54 133 54q68 0 106 -53l41 -97q19 -55 56 -55q32 0 64 37q13 19 22 41t9 49q0 47 -32.5 85.5t-73.5 38.5
l-26 -5v107q107 0 166 -61t59 -158zM334 492q0 -133 -142 -133h-104v85h104q41 0 41 30q0 21 -41 21h-95h-79v93h213q103 0 103 -96z" />
    <glyph glyph-name="uni0C39_uni0C46.abvs" horiz-adv-x="942" 
d="M803 207q0 36 -42 36q-43 0 -43 -38q0 -45 40 -45q45 0 45 47zM246 141q0 23 -17 40.5t-41 17.5q-56 0 -56 -62q0 -54 56 -54q24 0 41 16t17 42zM549 363q22 -34 31 -74t9 -95q0 -71 -54 -134q-58 -69 -149 -69q-57 0 -94 45q-41 -45 -120 -45q-69 0 -106 47
q-33 40 -33 99q0 60 38 99q46 51 127 51q61 0 106 -48t45 -108q10 -34 49 -34h12q29 0 56 36t27 80q0 39 -25 89q-32 61 -76 61h-36v89h257q156 0 190 -13q114 -44 114 -191q0 -69 -50 -126.5t-121 -57.5q-52 0 -90 37t-38 87q0 62 38 100.5t107 38.5l46 -5q-22 26 -59 33.5
t-123 7.5h-78zM334 492q0 -133 -142 -133h-104v85h104q41 0 41 30q0 21 -41 21h-95h-79v93h213q103 0 103 -96z" />
    <glyph glyph-name="uni0C15_uni0C46_uni0C37_uni0C4D" horiz-adv-x="542" 
d="M423 415q40 -33 40 -91h-98q-11 25 -45 39q-13 8 -26 9.5t-33 1.5q-95 0 -95 -63q0 -41 84 -41l43 11q40 10 78 10q59 0 92 -38q28 -27 28 -70q0 -72 -72 -130.5t-158 -58.5q-111 0 -174 62q-48 45 -48 102h104q0 -27 37 -50.5t86 -23.5q59 0 90.5 23.5t31.5 47.5
q0 46 -54 46l-56 -9l-71 -7q-55 0 -100 33q-51 35 -51 92q0 44 52 90q7 8 26.5 19.5t31.5 17.5v21l160 1q57 0 57 38q0 40 -43 40h-300v82h328q109 0 109 -105q0 -46 -44 -91zM544 -255l-61 -40q-27 32 -27 70v46q-60 -28 -86 -28q-41 0 -94 45q-29 -49 -115 -49
q-59 0 -101 47.5t-42 100.5q0 21 7 42l86 -2l-2 -15l-1 -18q0 -27 18.5 -47t49.5 -20q67 0 67 65l-4 15l-1 13h91l-1 -13l-3 -15q0 -60 53 -60q25 0 45 18q16 22 16 44q0 31 -26 44l39 44q78 -34 78 -126l-2 -44l-4 -43q0 -60 20 -74z" />
    <glyph glyph-name="uni0C15_uni0C47.abvs" horiz-adv-x="557" 
d="M402 415q40 -33 40 -91h-98q-11 25 -43 39q-14 8 -27 9.5t-34 1.5q-95 0 -95 -63q0 -41 85 -41l43 11q40 10 78 10q59 0 91 -38q28 -27 28 -70q0 -72 -71 -130.5t-159 -58.5q-111 0 -173 62q-49 45 -49 102h105q0 -27 36.5 -50.5t86.5 -23.5q58 0 90 23.5t32 47.5
q0 46 -54 46l-55 -9l-73 -7q-54 0 -100 33q-51 35 -51 92q0 44 52 90q9 8 28 19.5t30 17.5v22h160q57 0 57 38q0 40 -43 40h-300v81h273v43q0 48 43 87q46 32 91 32q67 0 108.5 -48.5t41.5 -128.5h-100l1 32q-10 56 -51 56q-47 0 -47 -49l-1 -20q78 -34 78 -108
q0 -46 -44 -91z" />
    <glyph glyph-name="uni0C16_uni0C47.abvs" horiz-adv-x="743" 
d="M189 345q0 39 -35 39q-36 0 -36 -39q0 -37 36 -37q35 0 35 37zM244 111q-27 22 -66 22q-54 0 -54 -23q0 -26 47 -26q53 0 73 27zM588 410q12 -10 23 -24q53 -63 53 -159t-62 -162q-65 -66 -158 -66q-47 0 -68.5 6t-62.5 46q-24 -25 -75 -45q-21 -7 -41 -11t-38 -4
q-60 0 -98 26q-43 27 -43 80q0 49 48 83.5t105 34.5q88 0 141 -40l13 61q0 38 -11.5 69t-29.5 32q-9 -42 -40 -73q-9 -9 -32 -21q-34 -14 -53 -14q-63 0 -99.5 31.5t-36.5 84.5q0 56 75 102q40 26 109 26q96 0 161 -70q48 -53 48 -156q0 -25 -9 -66q-11 -33 -28 -50
q3 -19 22.5 -30t45.5 -13q46 0 84 30q48 41 48 108q0 85 -68 133q-18 12 -67 20h-11v71h60q56 0 56 37q0 39 -45 39h-334v82h308v42q0 50 44 83.5t92 33.5q68 0 108 -46.5t40 -129.5h-101l2 36q0 55 -49 55t-49 -52l-2 -17q79 -37 79 -107q0 -50 -43 -89q-6 -4 -11 -7z
M360 -117h-101v111h101v-111z" />
    <glyph glyph-name="uni0C17_uni0C47.abvs" horiz-adv-x="557" 
d="M398 411q35 -25 59 -68q40 -69 40 -133q0 -82 -48 -150q-36 -48 -65 -56l-5 2q-12 24 -18 33.5t-31 44.5l1 5q67 53 67 123q0 57 -30 98q-38 50 -101 50q-65 0 -108 -50q-34 -44 -34 -118q0 -51 15 -76q4 -5 15 -15q22 -17 33 -28l1 -4q-4 -18 -59 -71q-112 40 -112 209
q0 95 69 168q37 36 79 54v30h139q57 0 57 38q0 40 -43 40h-300v81h273v43q0 48 43 87q46 32 91 32q67 0 108.5 -48.5t41.5 -128.5h-100l1 32q-10 56 -51 56q-47 0 -47 -49l-1 -20q78 -34 78 -108q0 -46 -44 -91z" />
    <glyph glyph-name="uni0C18_uni0C47.abvs" horiz-adv-x="893" 
d="M247 141q0 23 -16 39q-14 19 -42 19q-54 0 -54 -62q0 -54 54 -54q24 0 41 16t17 42zM589 212l22 -68q25 -53 74 -53q39 0 66 44t27 92q0 47 -23 83q-30 49 -81 49l-35 -1v89l40 2q80 0 134.5 -66.5t54.5 -166.5q0 -90 -60 -156.5t-144 -66.5q-85 0 -130 54l-4 5
q-54 -61 -133 -61q-64 0 -104 45q-37 -45 -117 -45q-68 0 -107 47q-35 40 -35 99q0 58 40 99q43 51 128 51q59 0 104 -48t45 -108q11 -40 54 -40q36 0 61 38t25 84q0 135 -131 135v102q56 0 97 -16.5t75 -55.5q57 -70 57 -160v-6zM423 574h-84l-6 31q0 44 -45 44
q-42 0 -42 -49l-1 -12q89 0 89 -96q0 -133 -142 -133h-104v85h104q41 0 41 30q0 21 -41 21h-95h-79v93h149v31q0 45 40 77t81 32q64 0 99.5 -41t35.5 -113zM342 -117h-102v111h102v-111z" />
    <glyph glyph-name="uni0C19_uni0C47.abvs" horiz-adv-x="621" 
d="M436 470v-51h67v-91h-204q0 -44 -29.5 -73.5t-88.5 -46t-59 -67.5q0 -57 54 -57q22 0 49 18q6 5 14 17t10 27v33h95l1 -51q0 -12 16.5 -26t38.5 -17q23 0 41 17q20 23 20 50q0 50 -47 50q-22 0 -33 -3v95q100 0 128 -29q42 -44 42 -111q0 -65 -54 -116q-48 -45 -101 -45
q-94 0 -116 55q-3 -20 -31 -39q-34 -18 -79 -18q-57 0 -100 35q-50 39 -50 105q0 124 108 149q78 16 78 54q0 15 -12 34q-9 13 -24 16q-18 0 -32 -17t-14 -31l3 -14h-109q0 47 25 88q38 64 124 64q77 0 113 -57h64v48h-20v69h78q32 17 32 34q0 33 -34 33h-303v89h259v33
q0 48 43 82t92 34q66 0 108 -47q19 -25 30 -58t11 -71h-103l4 33q0 55 -50 55t-50 -50v-8v-7q87 -19 87 -114q0 -32 -34 -64q-21 -27 -58 -38z" />
    <glyph glyph-name="uni0C1A_uni0C47.abvs" horiz-adv-x="761" 
d="M495 598v44q0 49 46 86q43 31 90 31q67 0 107.5 -47.5t40.5 -129.5h-101l1 35q0 55 -48 55t-48 -51v-25q27 -6 46 -21q29 -28 29 -79q0 -49 -42 -86l25 -21q65 -62 65 -167q0 -91 -55.5 -159.5t-143.5 -68.5q-93 0 -110 50q-40 -51 -120 -51q-65 0 -112.5 50t-47.5 116
q0 47 22 68h-121v95h279v-75q-66 -15 -66 -73q0 -30 16 -56q19 -22 47 -22q55 0 55 75l-4 30h120l-4 -41q0 -72 55 -72q44 0 70 50q19 41 19 87q0 97 -81 124q-17 5 -55.5 8.5t-84.5 3.5h-25v86h150h12q24 3 34 9.5t10 20.5q0 40 -44 40h-335v81h309z" />
    <glyph glyph-name="uni0C1B_uni0C47.abvs" horiz-adv-x="761" 
d="M495 598v44q0 49 46 86q43 31 90 31q67 0 107.5 -47.5t40.5 -129.5h-101l1 35q0 55 -48 55t-48 -51v-25q27 -6 46 -21q29 -28 29 -79q0 -49 -42 -86l25 -21q65 -62 65 -167q0 -91 -55.5 -159.5t-143.5 -68.5q-93 0 -110 50q-40 -51 -120 -51q-65 0 -112.5 50t-47.5 116
q0 47 22 68h-121v95h279v-75q-66 -15 -66 -73q0 -30 16 -56q19 -22 47 -22q55 0 55 75l-4 30h120l-4 -41q0 -72 55 -72q44 0 70 50q19 41 19 87q0 97 -81 124q-17 5 -55.5 8.5t-84.5 3.5h-25v86h150h12q24 3 34 9.5t10 20.5q0 40 -44 40h-335v81h309zM444 -117h-100v111h100
v-111z" />
    <glyph glyph-name="uni0C1C_uni0C47.abvs" horiz-adv-x="662" 
d="M361 379h-10v71h41h20q55 0 55 37q0 39 -43 39h-337v82h311v42q0 51 43 84t91 33q67 0 108 -46.5t41 -129.5h-102l3 36q0 55 -50 55q-49 0 -49 -52l-1 -17q78 -37 78 -107q0 -50 -41 -88q41 -26 41 -74q0 -58 -56 -92q-48 -27 -108 -27q-44 0 -103 22
q-10 -24 -83.5 -48.5t-73.5 -57.5q0 -18 18 -36q16 -12 39 -15q57 0 63 72h103l-4 -20q0 -25 13 -39.5t35 -17.5q25 0 41.5 14.5t18.5 37.5q0 18 -7 25l-10 16h117q6 -25 3 -45q0 -27 -12.5 -51.5t-37.5 -45.5q-43 -40 -104 -40q-52 0 -82 15l-43 33q-23 -24 -50.5 -37
t-60.5 -13t-60.5 9t-49.5 33q-48 43 -48 101q0 69 52 97l96 32q49 15 49 56q0 43 -44 43q-54 0 -54 -68h-99q0 68 45.5 113.5t111.5 45.5q68 0 102 -40l51 -73q26 -41 60 -41q22 0 45 13.5t23 28.5q0 21 -40 31z" />
    <glyph glyph-name="uni0C1D_uni0C47.abvs" horiz-adv-x="1106" 
d="M424 222q0 64 -41 99q-39 37 -100 37q-56 0 -97 -38q-38 -36 -38 -93q0 -60 35 -101q40 -36 93 -36q59 0 103.5 37.5t44.5 94.5zM788 -118h-101v112h101v-112zM518 168l12 -30q26 -47 74 -47q40 0 67.5 44t27.5 92q0 43 -25 83q-29 49 -79 49h-18l-19 -1v89h21l21 2
q74 0 131.5 -66.5t57.5 -169.5q0 -27 -2 -39q21 -83 109 -83q39 0 70 46q28 37 28 90q0 46 -24 83q-29 49 -80 49h-17l-19 -1v89h21l21 2q79 0 132 -66.5t53 -166.5q0 -93 -59 -158t-140 -65q-104 0 -148 74q-61 -74 -148 -74q-84 0 -132 54l-10 11q-76 -64 -171 -64
q-107 0 -170 68.5t-63 170.5q0 89 75 154q12 11 23.5 18.5t26.5 13.5v40h139q56 0 56 38q0 40 -43 40h-299v81h273v43q0 48 43 87q44 32 91 32q67 0 108 -48.5t41 -128.5h-101l3 32q-10 56 -51 56q-47 0 -47 -49l-2 -20q78 -34 78 -108q0 -48 -44 -91q11 -8 22.5 -16.5
t23.5 -20.5q68 -64 68 -164q0 -34 -6 -54z" />
    <glyph glyph-name="uni0C1E_uni0C47.abvs" horiz-adv-x="869" 
d="M378 107q-47 39 -97 39q-24 0 -37 -3l-31 -9q-15 -3 -20 -14l-2 -9q0 -14 21 -25t59 -11q15 -1 20 -1q44 0 87 33zM424 468h22q32 16 32 33q0 33 -34 33h-303v89h259v32q0 49 44 82.5t91 33.5q67 0 107.5 -47.5t40.5 -128.5h-100l3 34q0 56 -51 56q-48 0 -48 -51v-7v-8
q85 -19 85 -113q0 -32 -33 -64q-10 -15 -23 -23l9 -7q25 -27 36 -59t11 -74h39v69h111v-67h123v-93h-111v-74h-120v74l-42 -8l-30 -50l67 -114l-85 -62l-67 99q-38 -32 -85 -46t-102 -14q-95 0 -146.5 29.5t-51.5 82.5q0 96 190 121l45 2q64 0 129 -37q25 32 25 77
q0 39 -15 73q-18 37 -43 37q-27 0 -42.5 -23t-15.5 -50l2 -24h-117q0 90 -65 90q-35 0 -35 -44q-3 -44 25 -61h-126q-11 34 -11 52q0 57 46.5 98.5t104.5 48.5q28 0 44 -1t27 -9l48 -29q27 26 42 32q26 11 67 11z" />
    <glyph glyph-name="uni0C1F_uni0C47.abvs" horiz-adv-x="705" 
d="M224 281q0 13 -11 26t-25 13q-13 0 -25 -12t-12 -27q0 -40 37 -40q14 0 24 12q6 9 9 14.5t3 13.5zM547 408l25 -26q53 -66 53 -166q0 -91 -53.5 -157t-136.5 -66q-86 0 -122 67q-36 -67 -115 -67q-83 0 -131.5 56.5t-48.5 141.5q0 72 33.5 129.5t91.5 65.5v110h75v-107
q86 -21 86 -108q0 -54 -39.5 -89t-86.5 -35q-55 0 -65 34l-2 -22q0 -35 28 -62q32 -22 65 -22q31 0 56 29q23 30 23 67h90q9 -91 71 -91q39 0 70 44q22 45 22 93q0 88 -66 132q-20 14 -67 20h-10v71h44h18q54 0 54 37q0 39 -42 39h-337v82h310v42q0 50 44 87q45 30 92 30
q66 0 107 -46.5t41 -129.5h-101l1 36q0 55 -48 55q-47 0 -47 -52l-4 -17q78 -37 78 -107q0 -50 -43 -89z" />
    <glyph glyph-name="uni0C20_uni0C47.abvs" horiz-adv-x="556" 
d="M424 222q0 64 -41 99q-39 37 -100 37q-56 0 -97 -38q-38 -36 -38 -93q0 -60 35 -101q40 -36 93 -36q59 0 103.5 37.5t44.5 94.5zM165 419v40h139q56 0 56 38q0 40 -43 40h-299v81h273v43q0 48 43 87q44 32 91 32q67 0 108 -48.5t41 -128.5h-101l3 32q-10 56 -51 56
q-47 0 -47 -49l-2 -20q78 -34 78 -108q0 -48 -44 -91q11 -8 22.5 -16.5t23.5 -20.5q68 -64 68 -164q0 -95 -77 -161.5t-174 -66.5q-107 0 -170 68.5t-63 170.5q0 89 75 154q12 11 23.5 18.5t26.5 13.5zM321 199q-9 -20 -37 -20q-13 0 -23 5q-18 11 -18 41q0 12 4 22
q12 21 40 21q11 0 26 -9.5t15 -36.5q0 -12 -7 -23z" />
    <glyph glyph-name="uni0C21_uni0C47.abvs" horiz-adv-x="592" 
d="M474 444v-75h-212q-73 0 -114 -47q-36 -43 -36 -111q0 -52 21.5 -87t59.5 -35q19 0 40 25q16 28 16 55l-3 19h101l-2 -21q0 -70 57 -70q24 0 44 25t20 51t-17 42q-12 14 -30 18q-35 0 -48 -11v101q21 6 43 6q35 0 63 -19q75 -46 75 -137q0 -87 -54 -140q-48 -40 -115 -40
q-55 0 -96 51q-38 -53 -115 -53q-71 0 -113 69q-19 31 -30 69t-11 78q0 108 58 171q53 59 142 69l39 3h84q57 0 57 31q0 40 -44 40h-336v82h308v42q0 50 45 85q44 32 91 32q67 0 107.5 -45.5t40.5 -130.5h-101v35q0 55 -47 55q-48 0 -48 -50l-2 -19q79 -36 79 -107
q0 -18 -4.5 -29.5t-12.5 -26.5z" />
    <glyph glyph-name="uni0C22_uni0C47.abvs" horiz-adv-x="592" 
d="M474 444v-75h-212q-73 0 -114 -47q-36 -43 -36 -111q0 -52 21.5 -87t59.5 -35q19 0 40 25q16 28 16 55l-3 19h101l-2 -21q0 -70 57 -70q24 0 44 25t20 51t-17 42q-12 14 -30 18q-35 0 -48 -11v101q21 6 43 6q35 0 63 -19q75 -46 75 -137q0 -87 -54 -140q-48 -40 -115 -40
q-55 0 -96 51q-38 -53 -115 -53q-71 0 -113 69q-19 31 -30 69t-11 78q0 108 58 171q53 59 142 69l39 3h84q57 0 57 31q0 40 -44 40h-336v82h308v42q0 50 45 85q44 32 91 32q67 0 107.5 -45.5t40.5 -130.5h-101v35q0 55 -47 55q-48 0 -48 -50l-2 -19q79 -36 79 -107
q0 -18 -4.5 -29.5t-12.5 -26.5zM340 -117h-102v111h102v-111z" />
    <glyph glyph-name="uni0C23_uni0C47.abvs" horiz-adv-x="639" 
d="M441 118q0 19 -13.5 35.5t-34.5 17.5q-15 0 -32 -16q-14 -18 -14 -34q0 -48 50 -48q44 0 44 45zM326 439v13h61q57 0 57 35q0 40 -44 40h-334v82h307v44q0 48 45 82t90 34q68 0 108.5 -47.5t40.5 -129.5h-100l1 35q-6 55 -50 55q-46 0 -46 -50l-1 -19q76 -34 76 -107
q0 -50 -44 -89q16 -17 35 -44q35 -68 35 -151q0 -80 -33 -148q-46 -81 -132 -81q-56 0 -96 31.5t-40 87.5q0 58 34 94t92 36q67 0 82 -24q0 30 -4 53t-19 46q-21 43 -63 43q-45 0 -45 -52h-96q0 26 -24 49q-21 17 -41 17q-56 0 -56 -40q0 -17 14 -32t33 -15q12 0 22 5v-81
l-11 1q-25 0 -45 -20q-20 -22 -20 -48q0 -27 20.5 -41t46.5 -14q15 0 25 5v-93q-27 -7 -53 -7q-56 0 -97 34q-38 35 -38 89q0 94 51 121q-52 28 -52 84q0 63 49 97q47 34 110 34q59 0 104 -43q20 19 45 29z" />
    <glyph glyph-name="uni0C24_uni0C47.abvs" horiz-adv-x="650" 
d="M188 234q0 36 -39 36q-15 0 -31 -10q-10 -13 -11 -26q0 -13 11.5 -22.5t30.5 -10.5q39 0 39 33zM487 257q0 13 -12 28t-29 15q-11 0 -23.5 -11t-14.5 -29q0 -37 34 -37q45 0 45 34zM378 373h-112v80h133q57 0 57 31q0 39 -44 39h-336v83h308v42q0 49 45 86q45 31 91 31
q67 0 110 -47q38 -47 38 -130h-99v35q0 57 -49 57q-47 0 -47 -52l-3 -19q77 -35 77 -106q0 -48 -43 -91l3 -6q43 -35 53 -74q50 -49 50 -114q0 -101 -102 -165q-94 -59 -210 -59q-115 0 -196 59q-84 64 -84 157q0 50 31 85q38 48 112 48q48 0 78.5 -27t30.5 -73
q0 -42 -29 -72t-64 -30q-26 0 -49 16q4 -16 27 -34q17 -12 33 -21q56 -28 120 -28q67 0 106 20q49 21 95 77q-25 -13 -47 -20.5t-38 -7.5q-43 0 -74 29t-31 67q0 45 33 78q14 15 34.5 20.5t46.5 5.5q-4 1 -22.5 13.5t-32.5 16.5z" />
    <glyph glyph-name="uni0C25_uni0C47.abvs" horiz-adv-x="611" 
d="M461 222q0 28 -10 53.5t-28 46.5q-48 51 -130 51q-60 0 -117.5 -52.5t-57.5 -131.5q0 -34 16 -63t48 -29q54 0 54 102h99l-1 -40q8 -65 52 -65q34 0 54 43q10 21 15.5 41.5t5.5 43.5zM347 443h13q26 0 40.5 11.5t14.5 27.5q0 40 -43 40h-335v83h309v41q0 50 43 88
q46 31 92 31q66 0 107.5 -47.5t41.5 -129.5h-100v34q0 55 -49 55q-47 0 -47 -50l-4 -19q78 -33 78 -107q0 -47 -42 -89l-10 -9l28 -21q71 -61 71 -176q0 -88 -53 -150.5t-137 -62.5q-40 0 -82 51q-45 -53 -103 -53q-69 0 -115.5 60t-46.5 144q0 121 81 186.5t190 65.5z
M324 242q-11 -19 -38 -19q-14 0 -24 5q-19 11 -19 40q0 12 8.5 27t36.5 15q13 0 22 -5q19 -11 19 -40q0 -13 -5 -23zM326 -117h-101v111h101v-111z" />
    <glyph glyph-name="uni0C26_uni0C47.abvs" horiz-adv-x="611" 
d="M461 222q0 28 -10 53.5t-28 46.5q-48 51 -130 51q-60 0 -117.5 -52.5t-57.5 -131.5q0 -34 16 -63t48 -29q54 0 54 102h99l-1 -40q8 -65 52 -65q34 0 54 43q10 21 15.5 41.5t5.5 43.5zM347 443h13q26 0 40.5 11.5t14.5 27.5q0 40 -43 40h-335v83h309v41q0 50 43 88
q46 31 92 31q66 0 107.5 -47.5t41.5 -129.5h-100v34q0 55 -49 55q-47 0 -47 -50l-4 -19q78 -33 78 -107q0 -47 -42 -89l-10 -9l28 -21q71 -61 71 -176q0 -88 -53 -150.5t-137 -62.5q-40 0 -82 51q-45 -53 -103 -53q-69 0 -115.5 60t-46.5 144q0 121 81 186.5t190 65.5z" />
    <glyph glyph-name="uni0C27_uni0C47.abvs" horiz-adv-x="611" 
d="M461 222q0 28 -10 53.5t-28 46.5q-48 51 -130 51q-60 0 -117.5 -52.5t-57.5 -131.5q0 -34 16 -63t48 -29q54 0 54 102h99l-1 -40q8 -65 52 -65q34 0 54 43q10 21 15.5 41.5t5.5 43.5zM347 443h13q26 0 40.5 11.5t14.5 27.5q0 40 -43 40h-335v83h309v41q0 50 43 88
q46 31 92 31q66 0 107.5 -47.5t41.5 -129.5h-100v34q0 55 -49 55q-47 0 -51 -69q78 -33 78 -107q0 -47 -42 -89l-10 -9l28 -21q71 -61 71 -176q0 -88 -53 -150.5t-137 -62.5q-40 0 -82 51q-45 -53 -103 -53q-69 0 -115.5 60t-46.5 144q0 121 81 186.5t190 65.5zM326 -117
h-101v111h101v-111z" />
    <glyph glyph-name="uni0C28_uni0C47.abvs" horiz-adv-x="610" 
d="M467 412q6 -4 16.5 -12t19.5 -15q75 -67 75 -160q0 -81 -41 -146q-54 -89 -159 -89q-84 0 -119 54q-9 15 -34 102q-17 54 -55 54q-45 0 -45 -63q0 -47 26 -84l43 -59h-122q-54 69 -54 132q0 69 37 116q43 54 133 54q68 0 105 -53l40 -97q21 -55 55 -55q36 0 66 38t30 84
q0 102 -85 135q-18 7 -28 9.5t-31 5.5l-27 5h-78v81h124q55 0 55 30q0 40 -44 40h-336v81h310v44q0 47 44 85q45 32 91 32q67 0 108.5 -47.5t41.5 -128.5h-101l1 33q0 56 -50 56q-49 0 -49 -51l-1 -18q78 -34 78 -108q0 -45 -40 -85z" />
    <glyph glyph-name="uni0C2A_uni0C47.abvs" horiz-adv-x="614" 
d="M589 218q0 -92 -55 -159.5t-137 -67.5q-64 0 -104 45q-37 -45 -117 -45q-68 0 -107 47q-35 40 -35 99q0 58 40 99q43 51 128 51q59 0 104 -48t45 -108q11 -40 54 -40q36 0 61 38t25 84q0 135 -131 135v102q56 0 97 -16.5t75 -55.5q57 -70 57 -160zM247 141q0 23 -16 39
q-14 19 -42 19q-54 0 -54 -62q0 -54 54 -54q24 0 41 16t17 42zM423 574h-84l-6 31q0 44 -45 44q-42 0 -42 -49l-1 -12q89 0 89 -96q0 -133 -142 -133h-104v85h104q41 0 41 30q0 21 -41 21h-95h-79v93h149v31q0 45 40 77t81 32q64 0 99.5 -41t35.5 -113z" />
    <glyph glyph-name="uni0C2B_uni0C47.abvs" horiz-adv-x="614" 
d="M589 218q0 -92 -55 -159.5t-137 -67.5q-64 0 -104 45q-37 -45 -117 -45q-68 0 -107 47q-35 40 -35 99q0 58 40 99q43 51 128 51q59 0 104 -48t45 -108q11 -40 54 -40q36 0 61 38t25 84q0 135 -131 135v102q56 0 97 -16.5t75 -55.5q57 -70 57 -160zM247 141q0 23 -16 39
q-14 19 -42 19q-54 0 -54 -62q0 -54 54 -54q24 0 41 16t17 42zM342 -117h-102v111h102v-111zM423 574h-84l-6 31q0 44 -45 44q-42 0 -42 -49l-1 -12q89 0 89 -96q0 -133 -142 -133h-104v85h104q41 0 41 30q0 21 -41 21h-95h-79v93h149v31q0 45 40 77t81 32q64 0 99.5 -41
t35.5 -113z" />
    <glyph glyph-name="uni0C2C_uni0C47.abvs" horiz-adv-x="658" 
d="M500 408l25 -26q53 -65 53 -166q0 -95 -60.5 -157.5t-152.5 -62.5q-26 0 -47 13q-4 1 -34 33q-51 -48 -123 -48q-68 0 -104 42q-37 36 -37 95q0 102 114 139l48 14q22 11 22 36q0 39 -43 39q-59 0 -59 -59h-84q0 147 149 147q57 0 92 -34t35 -91q0 -58 -45 -90l-84 -37
q-45 -21 -45 -58q0 -19 15.5 -33.5t42.5 -14.5q47 0 57 42q1 7 1 23q0 6 -2 17h99v-23q0 -27 26 -43q19 -12 40 -15q38 0 65 44t27 93q0 88 -68 132q-21 14 -66 20h-11v71h46h16q57 0 57 37q0 39 -45 39h-335v82h308v42q0 50 44.5 83.5t92.5 33.5q68 0 107.5 -46.5
t39.5 -129.5h-100l1 36q0 55 -48 55q-49 0 -49 -52l-2 -17q78 -37 78 -107q0 -50 -43 -89z" />
    <glyph glyph-name="uni0C2D_uni0C47.abvs" horiz-adv-x="658" 
d="M500 408l25 -26q53 -65 53 -166q0 -95 -60.5 -157.5t-152.5 -62.5q-26 0 -47 13q-4 1 -34 33q-51 -48 -123 -48q-68 0 -104 42q-37 36 -37 95q0 102 114 139l48 14q22 11 22 36q0 39 -43 39q-59 0 -59 -59h-84q0 147 149 147q57 0 92 -34t35 -91q0 -58 -45 -90l-84 -37
q-45 -21 -45 -58q0 -19 15.5 -33.5t42.5 -14.5q47 0 57 42q1 7 1 23q0 6 -2 17h99v-23q0 -27 26 -43q19 -12 40 -15q38 0 65 44t27 93q0 88 -68 132q-21 14 -66 20h-11v71h46h16q57 0 57 37q0 39 -45 39h-335v82h308v42q0 50 44.5 83.5t92.5 33.5q68 0 107.5 -46.5
t39.5 -129.5h-100l1 36q0 55 -48 55q-49 0 -49 -52l-2 -17q78 -37 78 -107q0 -50 -43 -89zM326 -117h-101v111h101v-111z" />
    <glyph glyph-name="uni0C2E_uni0C47.abvs" horiz-adv-x="861" 
d="M231 141q0 23 -17 40.5t-42 17.5q-54 0 -54 -62q0 -54 54 -54q25 0 42 16t17 42zM569 183l13 -39q23 -53 73 -53q39 0 66 46q27 38 27 90q0 47 -24 83q-29 49 -79 49l-36 -1v89l41 2q77 0 131.5 -66.5t54.5 -166.5q0 -93 -59 -158t-141 -65q-87 0 -132 53
q-53 -55 -133 -55q-57 0 -95 45q-40 -45 -120 -45q-68 0 -106 47q-32 40 -32 99q0 60 38 99q45 51 127 51q61 0 105.5 -48t44.5 -108q11 -34 49 -34h14q28 0 55 36t27 80q0 97 -86 135q-31 10 -60 13.5t-83 3.5h-5h-52v85h169q55 0 55 29q0 39 -43 39h-334v82h308v43
q0 48 45 85q44 31 90 31q67 0 108 -46.5t41 -130.5h-100v36q0 56 -49 56q-47 0 -47 -52l-2 -17q76 -37 76 -109q0 -46 -42 -90l28 -21q77 -68 77 -160z" />
    <glyph glyph-name="uni0C2F_uni0C47.abvs" horiz-adv-x="1138" 
d="M408 222q0 64 -43.5 101.5t-104.5 37.5q-54 0 -96 -38.5t-42 -95.5q0 -63 35 -104q41 -37 97 -37q64 0 107 39q47 37 47 97zM657 365h-5h-134v87h132q56 0 56 27q0 39 -45 39h-335v82h310v43q0 48 43 85q45 31 90 31q67 0 108.5 -45t41.5 -132h-100v36q0 56 -50 56
q-47 0 -47 -52l-2 -17q76 -36 76 -109q0 -46 -40 -86q13 -10 27 -29q54 -65 54 -165l-1 -32q6 -16 13.5 -27t7.5 -13q26 -53 74 -53q38 0 67 46q25 38 25 90q0 47 -23 83q-30 49 -78 49l-37 -1v89l41 2q79 0 133.5 -66.5t54.5 -166.5q0 -93 -60 -158t-143 -65q-85 0 -131 54
l-4 6q-58 -60 -139 -60q-119 0 -180 107q-78 -106 -206 -106q-108 0 -170.5 68.5t-62.5 170.5q0 89 76.5 154.5t172.5 65.5q95 0 162 -63q36 -33 54.5 -71.5t18.5 -82.5q32 -77 55 -104q33 -41 84 -41q49 0 80 46q29 37 29 90q0 47 -25 83q-16 27 -27 37q-17 14 -41 18z" />
    <glyph glyph-name="uni0C30_uni0C47.abvs" horiz-adv-x="556" 
d="M424 222q0 64 -41 99q-39 37 -100 37q-56 0 -97 -38q-38 -36 -38 -93q0 -60 35 -101q40 -36 93 -36q59 0 103.5 37.5t44.5 94.5zM165 419v40h139q56 0 56 38q0 40 -43 40h-299v81h273v43q0 48 43 87q44 32 91 32q67 0 108 -48.5t41 -128.5h-101l3 32q-10 56 -51 56
q-47 0 -47 -49l-2 -20q78 -34 78 -108q0 -48 -44 -91q11 -8 22.5 -16.5t23.5 -20.5q68 -64 68 -164q0 -95 -77 -161.5t-174 -66.5q-107 0 -170 68.5t-63 170.5q0 89 75 154q12 11 23.5 18.5t26.5 13.5z" />
    <glyph glyph-name="uni0C31_uni0C47.abvs" horiz-adv-x="676" 
d="M213 334q0 40 -33 40q-36 0 -36 -40q0 -38 36 -38q33 0 33 38zM515 234q0 46 -21 82q-23 44 -64 44q-37 0 -37 -39q0 -41 46 -56v-94h-257v47q-6 -5 -15.5 -6t-12.5 -1q-13 0 -25 9l-5 -36q0 -40 19 -74.5t59 -34.5q55 0 55 72h110l-2 -20q0 -42 50 -42q51 0 77 47
q23 42 23 102zM362 429v21h62q55 0 55 37q0 39 -43 39h-337v82h311v42q0 50 45 87q42 30 90 30q66 0 107.5 -46.5t41.5 -129.5h-101v36q0 55 -48 55t-48 -52l-3 -17q79 -37 79 -107q0 -51 -42 -88q20 -16 40 -43q38 -65 38 -162q0 -88 -49 -151q-53 -68 -136 -68
q-78 0 -126 54q-17 -54 -123 -54q-68 0 -112.5 56.5t-44.5 135.5q0 101 37 177q44 92 130 92q39 0 71 -27.5t32 -66.5q0 -60 -32 -98h62q-11 29 -11 55q0 57 37 94z" />
    </font>
</defs>
</svg>
